<?xml version="1.0" encoding="UTF-8" standalone="no"?>
<svg width="356px" height="332px" viewBox="0 0 356 332" version="1.1" xmlns="http://www.w3.org/2000/svg" xmlns:xlink="http://www.w3.org/1999/xlink">
    <!-- Generator: Sketch 39.1 (31720) - http://www.bohemiancoding.com/sketch -->
    <title>analytics (1)</title>
    <desc>Created with Sketch.</desc>
    <defs></defs>
    <g id="Page-1" stroke="none" stroke-width="1" fill="none" fill-rule="evenodd">
        <g id="Artboard" transform="translate(-845.000000, -300.000000)">
            <g id="analytics-(1)" transform="translate(845.000000, 300.000000)">
                <g id="Layer_1">
                    <g id="Group">
                        <path d="M251.164593,331.545063 L104.14145,331.545063 C104.14145,318.00113 115.112912,307.020126 128.645076,307.020126 L226.660273,307.020126 C240.193131,307.019431 251.164593,318.00113 251.164593,331.545063" id="Shape" fill="#E8EDEE"></path>
                        <polygon id="Shape" fill="#B0B6BB" points="220.534713 307.019431 134.771329 307.019431 147.023142 257.969556 208.282901 257.969556"></polygon>
                        <path d="M355.306043,208.918987 L0,208.918987 L0,21.9147782 C0,10.062795 9.59950877,0.454937238 21.441193,0.454937238 L333.865544,0.454937238 C345.707228,0.454937238 355.306737,10.062795 355.306737,21.9147782 L355.306737,208.918987 L355.306043,208.918987 Z" id="Shape" fill="#38454F"></path>
                        <path d="M333.86485,257.969556 L21.441193,257.969556 C9.59950877,257.969556 0,248.361699 0,236.509715 L0,208.918987 L355.306043,208.918987 L355.306043,236.509715 C355.306043,248.361699 345.706534,257.969556 333.86485,257.969556" id="Shape" fill="#E8EDEE"></path>
                        <g transform="translate(171.407407, 43.062762)" id="Shape" fill="#EA6148">
                            <path d="M6.24561404,37.0992636 C4.67727096,37.0992636 3.10892788,36.4984686 1.91462768,35.3031297 C-0.480912281,32.9055063 -0.480912281,29.0305523 1.91462768,26.6336234 L26.4182534,2.10868619 C28.8137934,-0.288937238 32.6853801,-0.288937238 35.0802261,2.10868619 C37.4757661,4.50630962 37.4757661,8.3812636 35.0802261,10.7781925 L10.5766004,35.3031297 C9.38230019,36.4984686 7.81395712,37.0992636 6.24561404,37.0992636"></path>
                            <path d="M30.7492398,37.0992636 C29.1808967,37.0992636 27.6125536,36.4984686 26.4182534,35.3031297 L1.91462768,10.7781925 C-0.480912281,8.38056904 -0.480912281,4.50561506 1.91462768,2.10868619 C4.31016764,-0.288937238 8.18175439,-0.288937238 10.5766004,2.10868619 L35.0802261,26.6336234 C37.4757661,29.0312469 37.4757661,32.9062008 35.0802261,35.3031297 C33.8859259,36.4984686 32.3175828,37.0992636 30.7492398,37.0992636"></path>
                            <path d="M122.638877,129.06882 C121.070534,129.06882 119.502191,128.468025 118.307891,127.272686 C115.912351,124.875063 115.912351,121.000109 118.307891,118.60318 L142.811517,94.0782427 C145.207057,91.6806192 149.078643,91.6806192 151.473489,94.0782427 C153.869029,96.4758661 153.869029,100.35082 151.473489,102.747749 L126.969864,127.272686 C125.775563,128.467331 124.20722,129.06882 122.638877,129.06882"></path>
                            <path d="M147.142503,129.06882 C145.57416,129.06882 144.005817,128.468025 142.811517,127.272686 L118.307891,102.747749 C115.912351,100.350126 115.912351,96.4751715 118.307891,94.0782427 C120.703431,91.6813138 124.575018,91.6806192 126.969864,94.0782427 L151.473489,118.60318 C153.869029,121.000803 153.869029,124.875757 151.473489,127.272686 C150.279189,128.467331 148.710846,129.06882 147.142503,129.06882"></path>
                        </g>
                        <path d="M329.00715,57.4332218 L310.635329,39.0454226 C310.065591,38.4751883 309.391758,38.0278912 308.638121,37.7146444 C307.143337,37.0950962 305.452858,37.0950962 303.958074,37.7146444 C303.204437,38.0271967 302.524359,38.4751883 301.960865,39.0454226 L283.589045,57.4332218 C281.193505,59.8308452 281.193505,63.7057992 283.589045,66.102728 C284.783345,67.2980669 286.351688,67.8988619 287.920031,67.8988619 C289.488374,67.8988619 291.056717,67.2980669 292.251018,66.102728 L300.171844,58.1750126 L300.171844,74.0304435 C300.171844,87.556318 289.181645,98.5553808 275.668218,98.5553808 L220.534713,98.5553808 C200.264226,98.5553808 183.778581,115.054669 183.778581,135.343481 C183.778581,138.728075 186.516936,141.475063 189.904834,141.475063 C193.292733,141.475063 196.031088,138.728075 196.031088,135.343481 C196.031088,121.817607 207.021287,110.818544 220.534713,110.818544 L275.668218,110.818544 C295.938706,110.818544 312.424351,94.3192552 312.424351,74.0304435 L312.424351,58.1750126 L320.345177,66.102728 C321.539478,67.2980669 323.107821,67.8988619 324.676164,67.8988619 C326.244507,67.8988619 327.81285,67.2980669 329.00715,66.102728 C331.40269,63.7057992 331.40269,59.8308452 329.00715,57.4332218" id="Shape" fill="#ECBA16"></path>
                        <g transform="translate(24.288499, 36.811715)" id="Shape" fill="#DD691D">
                            <path d="M24.7194464,12.6937908 L6.34138012,12.6937908 C2.95348148,12.6937908 0.215126706,9.94680335 0.215126706,6.56220921 C0.215126706,3.17761506 2.95348148,0.430627615 6.34138012,0.430627615 L24.7194464,0.430627615 C28.107345,0.430627615 30.8456998,3.17761506 30.8456998,6.56220921 C30.8450058,9.94680335 28.1066511,12.6937908 24.7194464,12.6937908"></path>
                            <path d="M110.48283,12.6937908 L49.2230721,12.6937908 C45.8351735,12.6937908 43.0968187,9.94680335 43.0968187,6.56220921 C43.0968187,3.17761506 45.8351735,0.430627615 49.2230721,0.430627615 L110.48283,0.430627615 C113.870729,0.430627615 116.609084,3.17761506 116.609084,6.56220921 C116.60839,9.94680335 113.870729,12.6937908 110.48283,12.6937908"></path>
                            <path d="M36.9712593,37.218728 L6.34138012,37.218728 C2.95348148,37.218728 0.215126706,34.4717406 0.215126706,31.0871464 C0.215126706,27.7025523 2.95348148,24.9555649 6.34138012,24.9555649 L36.9712593,24.9555649 C40.3591579,24.9555649 43.0975127,27.7025523 43.0975127,31.0871464 C43.0975127,34.4717406 40.3591579,37.218728 36.9712593,37.218728"></path>
                            <path d="M79.8529513,37.218728 L61.474885,37.218728 C58.0869864,37.218728 55.3486316,34.4717406 55.3486316,31.0871464 C55.3486316,27.7025523 58.0869864,24.9555649 61.474885,24.9555649 L79.8529513,24.9555649 C83.2408499,24.9555649 85.9792047,27.7025523 85.9792047,31.0871464 C85.9792047,34.4717406 83.2408499,37.218728 79.8529513,37.218728"></path>
                            <path d="M110.48283,37.218728 L104.356577,37.218728 C100.968678,37.218728 98.2303236,34.4717406 98.2303236,31.0871464 C98.2303236,27.7025523 100.968678,24.9555649 104.356577,24.9555649 L110.48283,24.9555649 C113.870729,24.9555649 116.609084,27.7025523 116.609084,31.0871464 C116.609084,34.4717406 113.870729,37.218728 110.48283,37.218728"></path>
                            <path d="M24.7194464,61.7443598 L6.34138012,61.7443598 C2.95348148,61.7443598 0.215126706,58.9973724 0.215126706,55.6127782 C0.215126706,52.2281841 2.95348148,49.4811967 6.34138012,49.4811967 L24.7194464,49.4811967 C28.107345,49.4811967 30.8456998,52.2281841 30.8456998,55.6127782 C30.8450058,58.9973724 28.1066511,61.7443598 24.7194464,61.7443598"></path>
                            <path d="M110.48283,61.7443598 L49.2230721,61.7443598 C45.8351735,61.7443598 43.0968187,58.9973724 43.0968187,55.6127782 C43.0968187,52.2281841 45.8351735,49.4811967 49.2230721,49.4811967 L110.48283,49.4811967 C113.870729,49.4811967 116.609084,52.2281841 116.609084,55.6127782 C116.60839,58.9973724 113.870729,61.7443598 110.48283,61.7443598"></path>
                            <path d="M36.9712593,86.2692971 L6.34138012,86.2692971 C2.95348148,86.2692971 0.215126706,83.5223096 0.215126706,80.1377155 C0.215126706,76.7531213 2.95348148,74.0061339 6.34138012,74.0061339 L36.9712593,74.0061339 C40.3591579,74.0061339 43.0975127,76.7531213 43.0975127,80.1377155 C43.0968187,83.5223096 40.3591579,86.2692971 36.9712593,86.2692971"></path>
                            <path d="M79.8529513,86.2692971 L61.474885,86.2692971 C58.0869864,86.2692971 55.3486316,83.5223096 55.3486316,80.1377155 C55.3486316,76.7531213 58.0869864,74.0061339 61.474885,74.0061339 L79.8529513,74.0061339 C83.2408499,74.0061339 85.9792047,76.7531213 85.9792047,80.1377155 C85.9792047,83.5223096 83.2408499,86.2692971 79.8529513,86.2692971"></path>
                            <path d="M110.48283,86.2692971 L104.356577,86.2692971 C100.968678,86.2692971 98.2303236,83.5223096 98.2303236,80.1377155 C98.2303236,76.7531213 100.968678,74.0061339 104.356577,74.0061339 L110.48283,74.0061339 C113.870729,74.0061339 116.609084,76.7531213 116.609084,80.1377155 C116.60839,83.5223096 113.870729,86.2692971 110.48283,86.2692971"></path>
                            <path d="M24.7194464,110.794234 L6.34138012,110.794234 C2.95348148,110.794234 0.215126706,108.047247 0.215126706,104.662653 C0.215126706,101.278059 2.95348148,98.5310711 6.34138012,98.5310711 L24.7194464,98.5310711 C28.107345,98.5310711 30.8456998,101.278059 30.8456998,104.662653 C30.8450058,108.047247 28.1066511,110.794234 24.7194464,110.794234"></path>
                            <path d="M110.48283,110.794234 L49.2230721,110.794234 C45.8351735,110.794234 43.0968187,108.047247 43.0968187,104.662653 C43.0968187,101.278059 45.8351735,98.5310711 49.2230721,98.5310711 L110.48283,98.5310711 C113.870729,98.5310711 116.609084,101.278059 116.609084,104.662653 C116.60839,108.047247 113.870729,110.794234 110.48283,110.794234"></path>
                            <path d="M36.9712593,135.319866 L6.34138012,135.319866 C2.95348148,135.319866 0.215126706,132.572879 0.215126706,129.188285 C0.215126706,125.80369 2.95348148,123.056703 6.34138012,123.056703 L36.9712593,123.056703 C40.3591579,123.056703 43.0975127,125.80369 43.0975127,129.188285 C43.0975127,132.572879 40.3591579,135.319866 36.9712593,135.319866"></path>
                            <path d="M79.8529513,135.319866 L61.474885,135.319866 C58.0869864,135.319866 55.3486316,132.572879 55.3486316,129.188285 C55.3486316,125.80369 58.0869864,123.056703 61.474885,123.056703 L79.8529513,123.056703 C83.2408499,123.056703 85.9792047,125.80369 85.9792047,129.188285 C85.9792047,132.572879 83.2408499,135.319866 79.8529513,135.319866"></path>
                            <path d="M110.48283,135.319866 L104.356577,135.319866 C100.968678,135.319866 98.2303236,132.572879 98.2303236,129.188285 C98.2303236,125.80369 100.968678,123.056703 104.356577,123.056703 L110.48283,123.056703 C113.870729,123.056703 116.609084,125.80369 116.609084,129.188285 C116.609084,132.572879 113.870729,135.319866 110.48283,135.319866"></path>
                        </g>
                        <path d="M208.282901,153.737531 C208.282901,163.89687 200.056039,172.131582 189.904834,172.131582 C179.75363,172.131582 171.526768,163.897565 171.526768,153.737531 C171.526768,143.578192 179.75363,135.343481 189.904834,135.343481 C200.056039,135.343481 208.282901,143.578192 208.282901,153.737531" id="Shape" fill="#25AE88"></path>
                    </g>
                </g>
            </g>
        </g>
    </g>
</svg>