<?xml version="1.0" encoding="UTF-8" standalone="no"?>
<svg width="238px" height="93px" viewBox="0 0 238 93" version="1.1" xmlns="http://www.w3.org/2000/svg" xmlns:xlink="http://www.w3.org/1999/xlink">
    <!-- Generator: Sketch 39.1 (31720) - http://www.bohemiancoding.com/sketch -->
    <title>babel-10</title>
    <desc>Created with Sketch.</desc>
    <defs></defs>
    <g id="Page-1" stroke="none" stroke-width="1" fill="none" fill-rule="evenodd">
        <g id="Artboard" transform="translate(-567.000000, -1001.000000)">
            <g id="babel-10" transform="translate(567.000000, 1001.000000)">
                <g id="Group">
                    <path d="M163.225234,8.229105 L163.172242,7.719 L162.346215,7.78968 L162.398742,8.29932 L163.225234,8.229105 L163.225234,8.229105 Z M168.779652,21.592275 L168.797316,21.8736 L169.377441,21.821055 C169.359777,21.645285 169.429969,21.36396 169.553152,21.01242 L169.50016,20.502315 C169.254258,20.519985 169.007891,20.889195 168.779652,21.592275 L168.779652,21.592275 Z M147.106313,38.419695 C147.071449,37.94493 145.594641,36.09888 142.676816,32.84574 C142.624289,32.248215 143.626027,31.35123 145.682496,30.173385 L151.553473,25.056525 C152.87177,23.38578 153.64527,20.678085 153.873973,16.915305 L153.803316,16.05366 C153.575078,13.45152 151.69432,11.35902 148.12618,9.758955 C146.016719,8.33466 142.219875,7.54323 136.735648,7.4028 C132.200633,7.78968 126.277129,9.40695 118.982336,12.27321 C116.978395,13.715175 114.693688,15.15714 112.127285,16.59864 L112.162148,17.03853 C112.32066,17.02086 112.566563,16.932975 112.847793,16.739535 C113.146688,16.704195 113.322398,16.84509 113.340063,17.126415 L113.77934,16.897635 L113.990379,16.879965 L114.008043,17.073405 C114.025707,17.302185 112.443379,18.55071 109.244324,20.78364 L109.490691,21.240735 L109.279652,21.258405 L108.752055,21.064965 C108.769719,21.223065 108.54148,21.32862 108.101738,21.36396 L108.119402,21.5574 L108.629336,22.190265 C108.471289,22.207935 108.224922,22.13772 107.891164,22.014495 C107.152527,22.08471 106.43202,22.47159 105.711512,23.21001 L106.010406,21.90894 C107.082336,17.284515 107.820508,13.1874 108.207258,9.63573 L108.15473,9.40695 C107.416559,8.932185 106.695586,8.26398 106.027605,7.420005 C106.04527,6.875025 106.04527,6.558825 106.027605,6.488145 L105.975078,6.294705 L105.764039,6.347715 C103.444004,9.82917 98.9791797,15.772335 92.3523672,24.17721 C87.3078828,30.155715 84.7061523,33.47907 84.5481055,34.147275 C82.4916367,36.27465 81.5070977,37.558515 81.6126172,37.99794 C81.0678203,38.34948 80.8391172,38.70102 80.9269727,39.0879 C80.7689258,39.12324 80.6634063,39.070695 80.6280781,38.91213 C79.7495234,40.336425 78.4484258,41.250615 76.7085156,41.655165 L74.8802852,42.077385 C74.6343828,42.12993 74.5111992,42.3057 74.5288633,42.604695 L74.5813906,42.833475 L75.2670352,42.67491 L75.3200273,42.86835 L73.7730273,43.46634 L71.0309141,44.099205 L69.5894336,44.18709 C69.3783945,44.3982 70.7320195,44.169885 70.2048867,44.292645 L68.4119844,44.714865 C67.3219258,44.96085 66.7246016,44.872965 66.619082,44.43354 L66.408043,44.486085 C66.4433711,44.679525 66.4605703,44.82042 66.425707,44.94318 L66.3201875,44.503755 L64.878707,44.837625 C64.7731875,44.169885 62.8222383,41.74305 59.0430586,37.558515 C58.9728672,36.749415 60.3083633,35.571105 63.0332773,34.04172 L70.7320195,27.271785 C72.4547305,25.056525 73.4741328,21.50439 73.8083555,16.61631 L73.7028359,15.47334 C73.4039414,12.027225 70.9077305,9.24885 66.214668,7.103805 C63.4372266,5.222415 58.4452695,4.219875 51.2387969,4.061775 C45.2623008,4.57188 37.4575742,6.699255 27.8604102,10.40949 C25.2238164,12.325755 22.2181367,14.224815 18.8433711,16.106205 L18.8958984,16.704195 C19.1246016,16.686525 19.4230313,16.563765 19.7921172,16.352655 C20.1788672,16.317315 20.3899063,16.493085 20.4252344,16.84509 L21.0225586,16.510755 L21.3214531,16.493085 L21.3391172,16.77441 C21.3567813,17.055735 19.2649844,18.69114 15.0288633,21.68016 L15.3626211,22.207935 L15.0641914,22.225605 L14.4134102,21.996825 C14.4310742,22.172595 14.1321797,22.29582 13.5171914,22.348365 L13.5520547,22.66503 L14.2553633,23.43879 C14.027125,23.45646 13.7105664,23.38578 13.3061523,23.24535 C11.9353281,23.368575 10.5993672,24.35298 9.28107031,26.217165 L9.61482813,26.744475 C10.7574141,25.68939 11.4253945,25.16208 11.6187695,25.14441 L11.6889609,26.006055 C11.4955859,26.023725 11.1966914,26.146485 10.7927422,26.357595 L11.51325,27.44802 C12.8743656,25.9761637 14.4159054,24.68221 16.1012578,23.59689 C16.9272852,23.808 17.3665625,24.071655 17.3842266,24.35298 L18.0168789,24.300435 C22.5518945,20.94174 27.0343828,18.51537 31.481543,17.02086 L31.5340703,17.618385 C30.708043,18.84924 30.145582,19.48257 29.8466875,19.517445 C29.8820156,19.939665 30.0223984,20.308875 30.2859648,20.62554 C30.3566211,21.38163 28.3350156,26.48082 24.2392773,35.90544 C14.9410078,57.81438 7.13628125,74.02614 0.791164063,84.50631 C0.808363281,84.716955 0.931546875,84.99828 1.16025,85.350285 C2.72444922,84.981075 3.70898828,84.594195 4.13060156,84.22452 L4.46482422,84.189645 L4.51735156,84.787635 L5.09747656,84.734625 L5.69526563,84.400755 C5.71292969,84.576525 5.90630469,84.66441 6.31025391,84.62907 L6.36324609,85.22706 C6.41577344,85.80738 6.08201563,86.68623 5.37870703,87.89988 C4.74605469,88.62063 4.06041016,90.13281 3.33990234,92.43642 L3.35710156,92.717745 L3.93722656,92.664735 C6.46876563,89.833815 8.38438672,87.05544 9.70268359,84.347745 C17.085332,82.18503 22.7104063,80.057655 26.6123047,77.965155 C30.532332,77.63082 33.5203477,76.593405 35.5596172,74.887785 L35.5242891,74.571585 L34.0479453,75.01101 L33.7137227,75.04635 L33.6783945,74.729685 C36.5613555,74.29026 38.5476328,73.65693 39.6548906,72.77808 C45.2623008,68.452185 49.4984219,65.39295 52.3637188,63.581775 C58.2518945,59.256345 62.0840664,55.036005 63.8239766,50.939355 C64.153184,50.8675904 64.4813944,50.7913232 64.8085156,50.710575 C65.634543,50.6757 66.0914844,50.65803 66.214668,50.62269 C66.1793398,50.46459 66.2499961,50.376705 66.408043,50.341365 C67.7263398,50.200935 67.0936875,50.42925 67.9373789,50.23581 L70.1518945,49.72617 C70.0115117,49.761045 69.9585195,49.831725 69.9938477,49.972155 L70.3276055,49.761045 C70.2574141,49.761045 70.2048867,49.74384 70.1518945,49.72617 L70.5209805,49.638285 L70.3452695,49.74384 C70.5916367,49.778715 70.8552031,49.761045 71.1540977,49.69083 L71.3121445,50.341365 L61.240375,66.36015 L59.0077305,69.15573 L57.9181367,72.812955 L58.1291758,72.76041 L59.2187695,72.303315 L58.8673477,73.72761 L58.9728672,74.149365 L59.2712969,74.518575 C59.1309141,74.553915 59.0783867,74.6418 59.11325,74.7999 L59.1662422,75.02868 L59.6231836,74.923125 C60.2911641,74.342805 60.5723945,73.815495 60.466875,73.34073 C61.1873828,73.46349 61.6619883,73.5165 61.9083555,73.446285 L61.9608828,73.6746 C61.5216055,73.780155 61.2929023,74.131695 61.2575742,74.729685 L61.3105664,74.958465 L61.5564688,74.905455 C65.2129297,70.913895 74.1774414,57.25173 81.3667148,47.98521 C81.1380117,46.983135 84.8818633,45.593715 92.6159336,43.80021 L92.8623008,43.747665 C93.1435313,44.96085 92.5457422,47.897325 91.0693984,52.55709 C90.1201875,55.37034 89.6632461,56.91786 89.7334375,57.163845 C88.5029961,60.908955 87.9228711,62.93124 87.9930625,63.247905 L85.2509492,72.232635 C83.4757109,76.839855 82.1225508,81.67539 81.1733398,86.77458 C81.3313867,86.73924 81.5772891,86.75691 81.9291758,86.844795 L82.3154609,86.51046 C82.3507891,86.669025 82.4563086,86.72157 82.6143555,86.68623 L82.4563086,86.035695 L83.6514219,86.00082 C84.0028438,85.912935 84.3017383,85.473045 84.5481055,84.66441 C84.4951133,83.451225 84.7414805,82.80069 85.2862773,82.659795 C86.0244492,79.77633 86.4813906,78.334365 86.6399023,78.281355 C87.325082,75.41556 87.8350156,73.780155 88.1687734,73.375605 C89.2063047,69.648165 89.9616758,67.731435 90.4539453,67.60821 L90.5594648,68.06577 L89.8036289,70.017375 C88.485332,75.872655 87.1493711,80.49708 85.7962109,83.89065 L86.1829609,85.5786 L86.4288633,85.526055 C89.6981094,78.492465 94.4088359,64.566645 100.543379,43.747665 C100.719555,41.91882 101.598109,40.494525 103.162773,39.49245 L102.810887,39.12324 L102.758359,38.9298 C103.461668,38.7717 103.953473,38.490375 104.234703,38.103495 C104.19984,37.94493 103.584387,37.716615 102.389273,37.39995 L105.447945,24.282765 C106.115461,23.684775 106.502211,23.368575 106.625395,23.368575 L106.678387,24.03678 C106.519875,24.053985 106.273973,24.14187 105.992742,24.33531 L106.572867,25.16208 C107.627133,24.01911 108.769719,23.03424 110.017824,22.207935 C110.650477,22.383705 110.967035,22.594815 111.002363,22.805925 L111.459305,22.770585 C114.93959,20.22099 118.349684,18.392145 121.706785,17.284515 L121.742113,17.72394 C121.127125,18.6558 120.705047,19.130565 120.476344,19.148235 C120.511672,19.4649 120.599527,19.746225 120.757574,19.99221 C120.810566,20.57253 119.298895,24.440865 116.205359,31.614885 C109.138805,48.231195 103.215301,60.522075 98.3990547,68.505195 C98.4167188,68.663295 98.5222383,68.874405 98.7156133,69.15573 C99.8930625,68.874405 100.648898,68.57541 100.947793,68.294085 L101.158832,68.276415 L101.19416,68.716305 L101.685965,68.680965 L102.125707,68.452185 C102.142906,68.57541 102.301418,68.62842 102.600313,68.61075 L102.635176,69.085515 C102.670504,69.50727 102.424602,70.175475 101.87934,71.089665 C101.369871,71.63511 100.842273,72.77808 100.279813,74.518575 L100.297477,74.747355 L100.754418,74.712015 C102.670504,72.56697 104.129184,70.4568 105.131387,68.38197 C110.738332,66.72936 115.009781,65.129295 117.962934,63.546435 C120.968613,63.28278 123.236121,62.50902 124.783121,61.20795 L124.765457,60.979635 L123.622871,61.313505 L123.376969,61.331175 L123.359305,61.102395 C125.538957,60.786195 127.068293,60.29376 127.89432,59.643225 C132.148105,56.372415 135.364824,54.03393 137.544477,52.662645 C144.329336,47.721555 147.493063,42.973905 147.106313,38.419695 L147.106313,38.419695 Z M145.946527,38.71869 L146.104574,40.494525 C145.893535,40.934415 145.665297,41.16273 145.454258,41.1804 L145.190691,38.15604 C145.682496,38.33181 145.928863,38.50758 145.946527,38.71869 L145.946527,38.71869 Z M12.8492109,24.40599 L12.5503164,24.423195 L12.4977891,23.878215 L13.7105664,23.77266 L13.7282305,24.053985 C13.5348555,24.071655 13.2359609,24.17721 12.8492109,24.40599 L12.8492109,24.40599 Z M6.92570703,83.67954 C6.22239844,83.36334 5.58974609,83.240115 5.04494922,83.29266 L4.97429297,82.431015 C4.93942969,82.097145 5.13280469,81.868365 5.55441797,81.78048 C5.94116797,81.745605 6.16987109,82.02693 6.20473438,82.58958 C7.22460156,81.341055 7.7870625,80.70819 7.89258203,80.69052 L8.54289844,80.954175 C8.33185938,82.712805 7.7870625,83.609325 6.92570703,83.67954 L6.92570703,83.67954 Z M70.2225508,17.442615 C69.9236563,17.477955 69.3258672,16.546095 68.4645117,14.69958 L68.4119844,14.1546 C68.9744453,14.102055 69.5545703,15.016245 70.1695586,16.897635 L70.2225508,17.442615 L70.2225508,17.442615 Z M69.3783945,10.884255 L69.1324922,11.464575 L60.5370664,7.877565 C66.2671953,8.071005 69.2203477,9.07308 69.3783945,10.884255 L69.3783945,10.884255 Z M33.0810703,42.059715 L31.868293,42.16527 L31.8153008,41.619825 L33.0280781,41.514735 L33.0810703,42.059715 L33.0810703,42.059715 Z M32.0965313,23.333235 L32.3954258,23.315565 L32.4656172,24.17721 C32.1843867,24.19488 31.8153008,24.616635 31.3583594,25.425735 L31.3053672,24.827745 C31.8506289,24.17721 32.1318594,23.684775 32.0965313,23.333235 L32.0965313,23.333235 Z M29.547793,29.346615 L29.6533125,30.489585 L29.354418,30.507255 L29.2488984,29.364285 L29.547793,29.346615 L29.547793,29.346615 Z M28.211832,31.492125 L28.791957,31.439115 C28.7394297,32.388645 28.4758633,32.89875 28.0012578,32.933625 L27.7023633,32.951295 C28.0714492,32.31843 28.2471602,31.825995 28.211832,31.492125 L28.211832,31.492125 Z M27.2100938,34.481145 L27.5438516,34.445805 L27.5615156,34.72713 L27.0167188,35.641785 L26.4365938,35.69433 L26.4189297,35.413005 C26.9990547,35.36046 27.2626211,35.061465 27.2100938,34.481145 L27.2100938,34.481145 Z M26.2255547,37.171635 L26.0498438,38.613135 L25.7509492,38.630805 L25.6282305,37.20651 L26.2255547,37.171635 L26.2255547,37.171635 Z M16.3648242,65.21718 C15.9780742,67.186455 15.5559961,68.18853 15.1167188,68.22387 L15.0990547,67.942545 C14.9935352,66.975345 15.4156133,66.061155 16.3648242,65.21718 L16.3648242,65.21718 Z M14.5542578,69.13806 L14.5719219,69.419385 C14.6067852,69.806265 14.4310742,70.035045 14.0443242,70.05225 L14.027125,69.770925 C13.9917969,69.437055 14.1675078,69.225945 14.5542578,69.13806 L14.5542578,69.13806 Z M14.027125,77.27928 L14.9410078,77.191395 L14.9758711,77.50806 C14.7476328,77.525265 14.4487383,77.64849 14.0796523,77.8596 L13.4995273,77.912145 C13.4641992,77.613615 13.6575742,77.384835 14.0266602,77.27928 L14.027125,77.27928 L14.027125,77.27928 Z M40.0416406,69.243615 C34.9088359,71.77554 31.8854922,73.49883 30.9892734,74.39535 C25.4348555,76.32975 22.6750781,77.525265 22.7276055,78.00003 C17.7886406,79.9521 14.5365938,81.394065 12.9723945,82.290585 C12.6033086,82.325925 12.0757109,82.18503 11.3728672,81.868365 C11.2850117,80.86629 11.7419531,80.057655 12.7083633,79.40712 C13.5697188,79.33644 14.3957461,79.459665 15.1869102,79.793535 C16.1012578,79.31877 17.7007852,78.79146 19.968293,78.22881 L19.9153008,77.63082 L18.0875352,77.789385 C18.3157734,77.47272 20.0733477,76.646415 23.3779219,75.310005 L24.2922695,75.22212 L24.3099336,75.503445 C22.7452695,75.643875 21.8839141,76.101435 21.6905391,76.92774 C21.7258672,77.29695 21.9369063,77.45505 22.3236563,77.420175 C23.5011055,76.68129 24.0812305,76.241865 24.0635664,76.11864 C26.2962109,75.696885 32.4656172,72.461415 42.5727148,66.430365 L42.625707,66.975345 C42.6433711,67.239 41.7820156,67.97742 40.0416406,69.243615 L40.0416406,69.243615 Z M24.5381719,74.342805 C26.0149805,74.21958 27.2802852,73.622055 28.3350156,72.58464 C28.7566289,72.5493 28.985332,72.7074 29.0029961,73.07661 C28.2820234,73.14729 26.8935352,73.744815 24.8723945,74.905455 L24.5735,74.923125 L24.5381719,74.342805 L24.5381719,74.342805 Z M49.5509492,55.12389 L41.7992148,61.26096 C36.0337578,65.04141 32.9402227,66.940005 32.5009453,66.975345 C23.3253945,72.02199 17.6129297,74.6418 15.3979492,74.83524 L15.0641914,74.870115 C15.3454219,73.833165 19.4230313,65.480835 27.3332773,49.761045 C30.8135625,49.46205 36.2977891,47.84478 43.768293,44.890635 L45.5960586,44.73207 C49.3752383,44.3982 52.205207,45.13662 54.0687656,46.89525 L54.1738203,48.037755 C52.767668,52.082325 51.2211328,54.43848 49.5509492,55.12389 L49.5509492,55.12389 Z M34.3993672,46.596255 L35.6474727,46.4907 L35.6646719,46.772025 L34.4170313,46.87758 L34.3993672,46.596255 L34.3993672,46.596255 Z M51.9239766,43.62444 L52.8383242,43.536555 C53.6820156,43.941105 54.121293,44.292645 54.1566211,44.60931 L54.1738203,44.890635 C53.365457,44.96085 52.6096211,44.539095 51.9239766,43.62444 L51.9239766,43.62444 Z M54.4025234,29.50518 C53.5941602,30.471915 51.3791797,32.12499 47.7580469,34.445805 C46.5629336,34.55136 42.1157734,36.27465 34.4170313,39.65055 C34.0321394,39.4746073 33.6080653,39.4020081 33.1865898,39.439905 L33.1335977,38.89446 C33.0457422,37.78683 33.5380117,36.397875 34.6276055,34.709925 C35.2253945,31.54467 35.8757109,29.733495 36.5966836,29.29407 L43.012457,14.858145 C42.9418008,13.96116 44.3130898,13.275285 47.1253945,12.80052 L48.0392773,12.712635 L48.1099336,13.539405 C50.8692461,13.117185 52.591957,12.8712 53.2599375,12.81819 C58.3574141,12.378765 61.0116719,13.41618 61.2227109,15.89556 L61.8028359,15.84255 L61.6796523,14.38338 L62.3123047,14.33037 C63.8063125,15.15714 64.6151406,16.159215 64.7206602,17.33706 C64.7908516,18.14616 64.3515742,19.148235 63.4195625,20.344215 C63.0332773,20.37909 62.8045742,20.097765 62.7692461,19.535115 L62.1365938,19.588125 L61.9962109,21.34629 C59.4121445,25.214625 57.5313867,27.20157 56.3711367,27.307125 C55.3164063,28.76676 54.6660898,29.48751 54.4025234,29.50518 L54.4025234,29.50518 Z M58.33975,39.615675 C57.8126172,39.26367 57.3905391,39.10557 57.0744453,39.12324 L57.0037891,38.261595 L57.5839141,38.20905 L58.8673477,38.96514 C58.919875,39.369225 58.7441641,39.580335 58.33975,39.615675 L58.33975,39.615675 Z M62.4178242,44.450745 C62.9802852,44.679525 63.3145078,44.92551 63.3846992,45.15429 L63.1034688,45.224505 L63.1211328,45.242175 C63.0681406,45.242175 62.9979492,45.259845 62.944957,45.277515 L62.5233438,45.611385 L62.4178242,44.450745 L62.4178242,44.450745 Z M62.8045742,46.87758 L62.7520469,46.6488 L63.4902188,46.47303 L63.5427461,46.70181 L62.8045742,46.87758 L62.8045742,46.87758 Z M64.5798125,48.864525 C65.3356484,48.7413 65.7047344,48.688755 67.1108867,48.37209 L67.1638789,48.60087 L64.491957,49.216065 C64.5272852,49.09284 64.5621484,48.97008 64.5798125,48.864525 L64.5798125,48.864525 Z M67.181543,49.972155 C66.0566211,50.07771 66.3025234,49.936815 64.5096211,50.341365 L64.4566289,50.11305 L66.6892734,49.391835 L67.761668,49.14585 L67.8667227,49.567605 C67.3921172,49.67316 67.7440039,49.67316 67.181543,49.972155 L67.181543,49.972155 Z M69.5545703,49.409505 C69.2905391,49.47972 69.0799648,49.35696 68.9567813,49.057965 L69.6424258,48.8994 C69.9408555,48.829185 70.1342305,48.95241 70.2048867,49.251405 L69.5545703,49.409505 L69.5545703,49.409505 Z M75.987543,42.48147 L75.9350156,42.253155 L77.0422734,41.9895 L77.147793,42.411255 L75.987543,42.48147 L75.987543,42.48147 Z M82.8607227,84.64674 C82.9309141,84.330075 82.9485781,84.10176 82.91325,83.943195 L83.1596172,83.89065 C83.4580469,83.820435 83.6337578,83.92599 83.7044141,84.207315 L83.7569414,84.43563 L82.8607227,84.64674 L82.8607227,84.64674 Z M87.6769688,44.292645 L87.1846992,44.20476 C86.3935352,44.521425 85.7255547,44.74974 85.1807578,44.872965 L84.7238164,44.97852 C84.46025,45.048735 84.2492109,44.94318 84.1436914,44.661855 L87.3604102,43.923435 L88.4151406,43.431 L88.7665625,43.83555 C88.2566289,43.941105 87.887543,44.099205 87.6769688,44.292645 L87.6769688,44.292645 Z M90.1550508,43.501215 L90.1025234,43.2729 C90.2605703,43.23756 90.4716094,43.1148 90.7003125,42.88602 L92.9850195,42.35871 L93.0380117,42.587025 C91.8252344,42.88602 90.8583594,43.185015 90.1550508,43.501215 L90.1550508,43.501215 Z M90.5069375,38.87679 C90.3484258,38.91213 90.1378516,39.053025 89.8738203,39.26367 C89.838957,39.10557 89.5223984,39.10557 88.9246094,39.246465 C88.8195547,38.806575 90.5069375,38.19138 94.0048867,37.38228 L94.4966914,37.276725 L94.6022109,37.698945 C92.1413281,38.419695 90.7705039,38.824245 90.5069375,38.87679 L90.5069375,38.87679 Z M96.6591445,32.230545 C96.4127773,35.026125 95.4287031,36.608985 93.6883281,37.01307 L93.6358008,36.784755 L92.0888008,37.38228 L91.4031563,37.540845 C91.0517344,37.62873 90.7351758,37.61106 90.4539453,37.523175 L90.3135625,36.907515 C90.2605703,36.6792 92.4932148,33.58416 97.0282305,27.640995 L97.5553633,27.729345 C97.7487383,28.53798 97.4498438,30.03249 96.6591445,32.230545 L96.6591445,32.230545 Z M107.539277,22.911015 L107.328703,22.928685 L107.293375,22.48926 L108.207258,22.401375 L108.224922,22.62969 C108.066875,22.66503 107.838172,22.752915 107.539277,22.911015 L107.539277,22.911015 Z M103.057254,67.942545 C102.529656,67.696095 102.055051,67.591005 101.651102,67.62588 L101.598109,66.957675 C101.580445,66.72936 101.721293,66.570795 102.020188,66.48291 C102.319082,66.448035 102.494793,66.65868 102.529656,67.11624 C103.285492,66.14904 103.70757,65.656605 103.795426,65.656605 L104.270031,65.850045 C104.09432,67.186455 103.689906,67.889535 103.057254,67.942545 L103.057254,67.942545 Z M151.114195,17.653725 C150.885492,17.671395 150.446215,16.96785 149.76057,15.543555 L149.725707,15.10413 C150.164984,15.06879 150.621926,15.754665 151.078867,17.16129 L151.114195,17.653725 L151.114195,17.653725 Z M150.481543,12.62475 L150.270504,13.081845 L143.766875,10.35648 C148.108516,10.497375 150.358359,11.253465 150.481543,12.62475 L150.481543,12.62475 Z M122.902363,36.30999 L121.988016,36.397875 L121.953152,35.957985 L122.867035,35.88777 L122.902363,36.30999 L122.902363,36.30999 Z M122.146527,22.08471 L122.39243,22.06704 L122.444957,22.735245 C122.216719,22.752915 121.935488,23.06958 121.601266,23.684775 L121.566402,23.24535 C121.970816,22.735245 122.163727,22.348365 122.146527,22.08471 L122.146527,22.08471 Z M120.230441,26.65659 L120.300633,27.518235 L120.05473,27.535905 L119.984074,26.67426 L120.230441,26.65659 L120.230441,26.65659 Z M119.193375,28.291995 L119.650316,28.256655 C119.597789,28.995075 119.404414,29.381955 119.070191,29.417295 L118.824289,29.4345 C119.087855,28.94253 119.211039,28.55565 119.193375,28.291995 L119.193375,28.291995 Z M118.455203,30.542595 L118.666242,30.524925 L118.683441,30.75324 L118.279492,31.456785 L117.822086,31.492125 L117.804887,31.263345 C118.279492,31.228005 118.490066,30.98202 118.455203,30.542595 L118.455203,30.542595 Z M117.717031,32.582085 L117.55852,33.707385 L117.34748,33.725055 L117.259625,32.617425 L117.717031,32.582085 L117.717031,32.582085 Z M110.211199,53.910705 C109.912305,55.38801 109.596211,56.1441 109.261988,56.178975 L109.244324,55.985535 C109.191797,55.247115 109.507891,54.544035 110.211199,53.910705 L110.211199,53.910705 Z M108.822711,56.88252 L108.83991,57.07596 C108.875238,57.39216 108.734855,57.568395 108.418297,57.5856 L108.400633,57.357285 C108.382969,57.128505 108.523816,56.970405 108.822711,56.88252 L108.822711,56.88252 Z M108.435961,63.07167 L109.138805,63.019125 L109.156469,63.24744 C108.998422,63.26511 108.752055,63.352995 108.470824,63.51156 L108.013883,63.546435 C107.996219,63.30045 108.137066,63.14235 108.435961,63.07167 L108.435961,63.07167 Z M128.175551,56.970405 C124.308516,58.887135 122.00568,60.188205 121.285172,60.85641 C117.06625,62.33325 114.974918,63.247905 115.009781,63.617115 C111.26593,65.111625 108.805047,66.183915 107.644797,66.86979 C107.363566,66.88746 106.959152,66.781905 106.43202,66.53592 C106.361828,65.77983 106.71325,65.16417 107.451422,64.707075 C108.119402,64.65453 108.752055,64.742415 109.33218,64.9884 C110.035488,64.63686 111.248266,64.24998 112.970977,63.810555 L112.935648,63.370665 L111.494168,63.47622 C111.670344,63.230235 113.023504,62.596905 115.537379,61.57716 L116.240223,61.524615 L116.257887,61.718055 C115.062773,61.82361 114.394793,62.17515 114.253945,62.808015 C114.271609,63.08934 114.44732,63.230235 114.746215,63.194895 C115.625234,62.614575 116.046848,62.280705 116.046848,62.17515 C117.73423,61.876155 122.410094,59.414445 130.091637,54.80769 L130.1265,55.247115 C130.144164,55.440555 129.493848,56.003205 128.175551,56.970405 L128.175551,56.970405 Z M116.398734,60.83874 C117.540855,60.733185 118.50773,60.29376 119.316559,59.52 C119.614988,59.48466 119.791164,59.625555 119.808363,59.90688 C119.28123,59.959425 118.244164,60.399315 116.6795,61.24329 L116.433598,61.26096 L116.398734,60.83874 L116.398734,60.83874 Z M135.417352,46.227045 L129.564039,50.939355 C125.18707,53.80515 122.814508,55.247115 122.444957,55.282455 C115.484387,59.11545 111.16041,61.102395 109.455363,61.24329 L109.209461,61.26096 C109.420035,60.46953 112.531699,54.121815 118.543059,42.200145 C121.161988,41.97183 125.310254,40.723305 131.00552,38.472705 L132.429336,38.34948 C135.294168,38.103495 137.438957,38.666145 138.845109,40.01976 L138.915301,40.881405 C137.842906,43.905765 136.683121,45.6816 135.417352,46.227045 L135.417352,46.227045 Z M123.921766,39.756105 L124.835648,39.66822 L124.853313,39.897 L123.93943,39.984885 L123.921766,39.756105 L123.921766,39.756105 Z M137.227918,37.487835 L137.931227,37.43529 C138.581543,37.75149 138.915301,38.03328 138.932965,38.261595 L138.950629,38.455035 C138.335176,38.50758 137.755051,38.19138 137.227918,37.487835 L137.227918,37.487835 Z M139.073348,26.779815 C138.458359,27.518235 136.788641,28.783965 134.064191,30.542595 C133.149844,30.63048 129.775078,31.93155 123.93943,34.463475 C123.658199,34.35792 123.341641,34.323045 123.007418,34.340715 L122.972555,33.900825 C122.902363,33.05685 123.271449,32.001765 124.079813,30.718365 C124.536754,28.291995 125.046688,26.937915 125.57382,26.62125 L130.477922,15.64911 C130.425395,14.998575 131.462461,14.471265 133.571922,14.066715 L134.274766,14.01417 L134.327758,14.682375 C136.401891,14.34804 137.702523,14.1546 138.229656,14.102055 C142.096691,13.76772 144.118297,14.54148 144.276344,16.44054 L144.733285,16.4052 L144.64543,15.350115 L145.102836,15.31524 C146.227758,15.930435 146.825082,16.66932 146.895738,17.54817 C146.948266,18.1815 146.631707,18.954795 145.963727,19.85178 C145.665297,19.886655 145.489586,19.67601 145.454258,19.218915 L144.997316,19.25379 L144.856469,20.57253 C142.90552,23.544345 141.481703,25.074195 140.58502,25.14441 C139.79432,26.217165 139.302051,26.762145 139.073348,26.779815 L139.073348,26.779815 Z M141.130281,34.094265 L141.077289,33.42606 L141.53423,33.391185 L142.51877,33.98871 C142.536434,34.270035 142.395586,34.4286 142.096691,34.463475 C141.675078,34.19982 141.35852,34.076595 141.130281,34.094265 L141.130281,34.094265 Z M59.306625,76.804515 L58.8496836,76.91007 L58.4629336,77.24394 C58.533125,77.525265 58.7088359,77.63082 59.0077305,77.560605 C59.306625,77.49039 59.4298086,77.31462 59.3596172,77.033295 L59.306625,76.804515 L59.306625,76.804515 Z M57.5667148,73.34073 L57.6192422,73.569045 C57.9181367,73.49883 58.0408555,73.32306 57.9706641,73.041735 L57.9181367,72.812955 C57.6369063,72.883635 57.5137227,73.059405 57.5667148,73.34073 L57.5667148,73.34073 Z M69.9408555,43.888095 L70.4684531,43.765335 L70.3629336,43.30824 L69.8358008,43.431 L69.9408555,43.888095 L69.9408555,43.888095 Z M229.439902,57.28707 C224.096059,58.482585 223.428078,58.271475 222.303156,58.35936 L222.338484,58.79925 L222.830754,58.76391 L223.09432,58.74624 L223.024129,58.693695 L223.603789,58.464915 C228.894641,57.884595 229.510094,58.095705 229.457102,57.497715 L229.439902,57.28707 L229.439902,57.28707 Z M200.665145,61.102395 L200.700473,61.542285 L200.770664,61.542285 L200.735801,61.102395 L200.665145,61.102395 L200.665145,61.102395 Z M197.36057,49.51506 L196.885965,49.35696 C196.499215,50.394375 196.30584,51.00957 196.323504,51.18534 L196.341168,51.37878 C196.710254,51.36111 197.044477,50.728245 197.36057,49.51506 L197.36057,49.51506 Z M230.529496,57.199185 L230.564824,57.63861 L231.337859,57.77904 L231.302996,57.339615 L230.529496,57.199185 L230.529496,57.199185 Z M194.161516,61.647375 L192.966402,61.506945 L192.755363,61.96404 L192.773027,62.19282 L199.891645,61.59483 L199.856781,61.155405 L194.161516,61.647375 L194.161516,61.647375 Z M190.927133,46.051275 L190.909934,45.822495 L190.663566,45.840165 L190.224289,46.12149 L190.470191,46.543245 C190.804414,46.50837 190.962461,46.349805 190.927133,46.051275 L190.927133,46.051275 Z M233.904262,53.963715 L234.238484,53.928375 C234.431859,53.910705 234.519715,53.752605 234.502051,53.47128 L234.308676,53.04906 C233.095898,53.154615 232.533438,53.207625 231.548898,53.752605 L231.531234,53.52429 L230.072555,53.66472 C230.037227,53.225295 229.914508,52.996515 229.721133,53.014185 L228.965297,53.0844 C228.086277,53.154615 227.664199,53.11974 227.224922,53.45361 C227.207258,53.29551 227.15473,53.225295 227.066875,53.225295 L226.223184,53.29551 L225.730914,53.576835 C225.71325,53.418735 225.660723,53.348055 225.572402,53.348055 L225.273973,53.612175 L225.256309,53.383395 L224.078395,53.29551 L223.797164,53.31318 L223.832492,53.752605 L224.430281,53.910705 L224.992742,53.87583 C225.186117,53.999055 225.396691,54.03393 225.643059,54.01626 L226.135328,53.770275 L226.152527,53.963715 C223.393215,54.64959 223.410414,54.526365 221.511992,54.84303 C221.301418,54.702135 221.142906,54.63192 221.037387,54.64959 L221.002523,54.684465 C220.791484,54.666795 220.668301,54.526365 220.651102,54.297585 L221.635176,54.174825 C221.705367,54.174825 221.758359,54.24504 222.303156,54.350595 C223.09432,53.963715 223.129184,53.80515 223.551262,53.770275 L223.515934,53.330385 C220.809148,53.85816 221.898742,53.50662 218.506313,53.80515 L218.348266,53.82282 L218.312938,53.383395 C222.672242,52.856085 221.213563,53.154615 222.70757,52.73286 C222.725234,52.89096 222.777762,52.961175 222.865617,52.961175 C223.025805,52.797461 223.23633,52.692327 223.463406,52.662645 L223.762301,52.644975 C225.291172,52.52175 225.801105,52.820745 228.824449,51.97677 L228.842113,52.17021 L229.334383,51.92376 L229.791324,51.888885 C229.755996,51.448995 230.423977,51.37878 230.65268,51.36111 L230.617352,50.886345 C225.308836,51.9591 223.920348,51.660105 222.444004,52.082325 L222.42634,51.888885 C221.037852,52.13487 220.984859,52.029315 220.633438,52.046985 C220.527918,52.064655 220.369871,52.15254 220.193695,52.32831 C220.176496,52.17021 220.123504,52.09953 220.017984,52.09953 C219.965457,52.09953 219.947793,52.1172 219.930129,52.1172 L215.430441,52.85562 C215.412777,52.73286 215.36025,52.662645 215.25473,52.67985 C212.917031,53.172285 213.549684,53.26017 210.42082,53.541495 C210.279973,53.559165 210.087063,53.62938 209.840695,53.787945 C209.823031,53.66472 209.75284,53.594505 209.594793,53.61171 L207.678707,53.770275 L206.395738,54.086475 C206.378074,53.963715 206.307883,53.8935 206.149371,53.910705 C205.428863,54.104145 204.796211,54.22737 204.286277,54.26271 L204.250949,54.26271 C203.934855,54.297585 204.409461,54.174825 204.163094,54.06927 L203.776344,54.297585 C203.213883,54.350595 203.512777,54.26271 201.579492,54.279915 C198.187063,54.702135 198.556148,54.75468 198.187063,54.77235 L196.921293,54.684465 C196.938957,54.80769 196.868766,54.895575 196.727918,54.895575 C195.286438,54.702135 194.548266,54.473355 194.530602,54.2097 C194.723977,52.838415 195.058199,52.13487 195.532805,52.09953 L195.778707,52.082325 L195.567668,52.53942 L195.814035,52.52175 C196.270977,52.275765 196.482016,52.046985 196.464352,51.835875 L196.429023,51.36111 L195.972082,51.39645 L195.936754,50.957025 C195.901891,50.62269 195.954418,50.323695 196.077602,50.07771 L197.114668,48.40743 L197.149996,48.846855 L197.641801,48.811515 L197.606938,48.37209 L197.325707,47.96754 C197.694793,47.65134 197.976023,47.475105 198.204262,47.4579 L198.187063,47.22912 L197.519082,47.28213 L197.46609,46.613925 C198.802051,43.83555 199.434703,42.217815 199.39984,41.76072 L199.874445,41.95416 C200.17334,41.93649 200.313723,41.76072 200.296059,41.444055 L199.839117,41.479395 L199.821453,41.285955 C199.789356,40.964901 199.850356,40.641392 199.997164,40.354095 C200.718137,39.598005 201.051895,38.841915 200.981703,38.050485 C201.122551,38.032815 201.192742,38.103495 201.210406,38.261595 C201.825395,37.910055 202.3,36.978195 202.651422,35.430675 C203.74148,33.4614 205.288016,29.52285 207.309621,23.63223 C211.176656,13.22274 211.018609,12.11511 211.563406,9.6534 L211.106465,9.688275 C211.141328,10.00494 211.071137,10.303935 210.930754,10.58526 C210.614195,10.462035 210.368293,10.39182 210.192582,10.40949 L210.174918,10.21605 C210.104262,9.319065 210.473813,8.246775 211.317504,6.98058 L211.528078,6.96291 L211.914828,8.47509 L212.37177,8.440215 C212.35457,8.33466 212.477289,7.73667 212.723656,6.62904 C212.705992,6.40026 212.530281,6.25983 212.178395,6.24216 L211.739117,6.523485 C211.704254,6.20682 211.721453,5.380515 211.774445,4.061775 L211.545742,4.079445 C211.158992,3.692565 210.965617,3.3759 210.947953,3.112245 L208.434543,3.35823 C208.416879,3.18246 208.329023,2.918805 208.153313,2.584935 C208.135648,2.356155 208.698109,2.127375 209.858359,1.89906 L210.368293,2.0925 L210.842898,1.811175 C210.860098,1.969275 210.947953,2.03949 211.123664,2.022285 L211.59827,1.74096 C211.615934,1.89906 211.703789,1.969275 211.879965,1.951605 L212.108203,1.9344 L212.072875,1.424295 C211.721453,1.459635 210.789906,1.459635 209.313563,1.406625 L208.838957,1.72329 L208.821293,1.441965 C197.026813,2.4087 190.329809,2.954145 188.730281,3.112245 C188.519242,3.129915 187.693215,3.112245 186.23407,3.076905 C186.251734,3.270345 186.076023,3.3759 185.724602,3.41124 L185.214668,3.18246 L183.491957,3.62235 C183.087543,3.657225 182.402363,3.639555 181.453152,3.534465 C181.189586,3.74511 180.873027,3.868335 180.486277,3.903675 C180.275238,3.92088 182.999688,3.76278 185.530762,3.58701 C185.267195,3.79812 184.863246,3.92088 184.300785,3.97389 C183.914035,4.00923 183.579813,3.95622 183.298582,3.79812 C182.911832,3.97389 181.664191,4.255215 179.572395,4.67697 L179.062461,4.483995 L170.836121,5.749725 C170.519563,5.591625 170.150477,5.538615 169.728863,5.573955 C169.289121,5.609295 168.550949,5.767395 167.531547,6.04872 L163.558992,7.70133 L163.857887,8.193765 C164.051262,8.176095 164.332492,8.071005 164.66625,7.877565 L166.072867,8.000325 L165.896691,9.319065 C164.596059,9.899385 163.840223,10.76103 163.629184,11.851455 C161.678234,12.712635 160.711359,13.328295 160.711359,13.697505 L160.729023,13.926285 L161.027918,13.908615 L161.555051,13.62729 L162.170504,14.36571 L162.258359,15.385455 C162.293223,15.70212 159.006313,22.612485 152.432492,36.11655 C146.737227,49.12818 143.749211,56.249655 143.46798,57.533055 C141.517031,58.078035 140.391645,58.869465 140.057887,59.92455 C140.093215,60.25842 140.672875,60.4872 141.797797,60.575085 L141.850789,61.084725 L141.340855,61.9287 L141.428711,62.94891 C141.481703,63.47622 142.90552,63.88077 145.70016,64.162095 C145.682496,63.986325 145.770816,63.88077 145.963727,63.8631 C146.016719,64.495965 145.841008,65.72682 145.436594,67.555665 L145.735488,67.537995 C146.895273,65.9556 147.440535,64.865175 147.387543,64.26765 L147.63391,64.24998 C147.915141,64.23231 148.214035,64.548975 148.565457,65.234385 C148.214035,65.37528 146.983594,68.17086 144.874133,73.639725 L145.173027,74.131695 L145.471922,74.11449 C148.055523,67.573335 149.672715,63.950985 150.340695,63.26511 C153.733125,62.966115 159.604102,62.36859 167.935961,61.471605 L168.463094,61.155405 C168.480758,61.331175 168.586277,61.41906 168.779652,61.40139 L169.324449,61.348845 L169.852047,61.03218 C169.869246,61.20795 169.974766,61.295835 170.168141,61.278165 L176.478395,60.733185 C178.148578,60.592755 178.939277,60.08265 178.869086,59.221005 C178.851422,58.99269 179.835961,58.72857 181.822238,58.447245 C182.015613,58.429575 182.296844,58.482585 182.683594,58.60581 C182.66593,58.447245 183.667668,58.289145 185.671609,58.113375 C185.724602,57.05829 186.058359,56.49564 186.656148,56.443095 L186.603156,55.93299 C186.040695,55.985535 185.408043,56.12643 184.669871,56.372415 C183.351574,56.3022 182.507883,56.196645 182.155996,56.07342 C181.804574,56.26686 181.541008,56.372415 181.347633,56.390085 L176.953,56.53098 L176.425867,56.812305 C176.408203,56.65374 176.302684,56.583525 176.109309,56.601195 L175.863406,56.618865 L175.300945,56.90019 C175.283281,56.741625 174.82634,56.618865 173.911992,56.49564 L173.349996,56.82951 L172.259938,56.917395 L172.242273,56.63607 C177.902211,56.020875 180.697316,55.247115 180.62666,54.332925 C180.996211,54.297585 181.189586,54.473355 181.224449,54.84303 L182.876969,54.42081 L182.823977,53.910705 L169.271922,54.279915 C169.289121,54.45615 169.201266,54.56124 169.008355,54.57891 L167.355836,54.43848 C166.933758,54.473355 166.582336,54.59658 166.301105,54.80769 L165.686117,54.57891 C163.98107,54.719805 162.715301,54.930915 161.871609,55.19457 C160.711359,55.106685 159.428391,55.12389 158.004574,55.247115 L154.963566,55.51077 L153.557414,55.35267 C153.487223,54.45615 155.227133,50.04237 158.812938,42.12993 C159.850469,39.45711 160.799215,37.78683 161.713563,37.153965 C161.906938,37.136295 162.188168,37.20651 162.574918,37.36461 L164.736906,36.62619 L165.844164,36.80196 C167.707258,36.64386 169.869246,36.11655 172.347793,35.201895 C172.963246,35.14935 173.420188,35.18469 173.753945,35.32512 L175.406465,34.93824 L180.32823,34.516485 C182.419563,34.340715 184.68707,33.883155 187.147953,33.127065 L187.095426,32.617425 C186.181543,32.70531 185.706938,32.54721 185.671609,32.177535 C185.619082,31.492125 184.951102,31.2108 183.667668,31.31589 L183.615141,30.80625 L184.968766,30.41937 L188.519242,30.120375 L188.46625,29.610735 C188.325867,29.62794 187.605359,29.610735 186.269398,29.557725 L186.216406,29.012745 L187.587695,28.88952 C187.956781,28.854645 188.114828,28.67841 188.079965,28.32687 C186.23407,28.37988 185.302523,28.291995 185.284859,28.045545 C172.417984,28.67841 165.967348,28.801635 165.93202,28.397085 C165.738645,28.414755 165.475078,28.53798 165.123656,28.74909 L164.789434,28.221315 C168.199527,20.97708 170.203469,17.319855 170.783594,17.266845 C170.800793,17.54817 170.66041,18.005265 170.343852,18.620925 L170.361516,18.84924 L170.906313,18.796695 C172.259938,15.561225 173.402523,13.890945 174.351734,13.82073 C178.39448,13.468725 173.789273,13.20507 182.437227,11.851455 C182.789113,12.009555 183.035016,12.07977 183.210727,12.0621 C186.603156,11.37669 191.331547,10.655475 197.395898,9.917055 L197.36057,9.40695 L194.126188,9.705945 L194.091324,9.196305 C194.478074,9.160965 194.794168,9.03774 195.058199,8.827095 L195.075398,9.10842 C195.251574,9.09075 195.497477,8.967525 195.814035,8.756415 C196.376496,8.70387 196.798109,8.756415 197.097004,8.91498 C198.221926,8.615985 199.135809,8.440215 199.803789,8.369535 L201.825395,8.176095 C202.317664,7.859895 202.545902,7.57857 202.528703,7.314915 L202.511039,7.086135 C202.001105,7.13868 201.42098,7.103805 200.735801,6.98058 C200.718137,6.699255 200.85852,6.505815 201.192742,6.41793 L204.954258,6.06639 L206.676969,5.6265 C206.694168,5.81994 206.782488,5.89062 206.922871,5.89062 C207.098582,5.87295 207.344949,5.749725 207.661043,5.538615 C207.748898,5.556285 207.854418,5.556285 207.942273,5.573955 C207.714035,6.04872 207.450004,6.734595 207.186438,7.631115 L206.694168,7.666455 C206.659305,7.33212 206.571449,7.03359 206.412938,6.76947 L206.167035,6.78714 C201.596691,19.517445 199.557887,25.443405 195.33943,35.219565 C194.56593,37.716615 193.915613,39.10557 193.353152,39.404565 C193.370816,39.68589 193.546527,39.82632 193.845422,39.791445 C193.950477,41.0223 193.669246,42.235485 192.984066,43.431 C191.032652,49.057965 189.73202,52.13487 189.064039,52.69752 L189.503316,55.35267 C189.52098,55.633995 189.380598,55.792095 189.081703,55.827435 L188.624762,55.862775 C188.554105,55.12389 188.290539,54.77235 187.815934,54.82536 L187.570031,54.84303 C186.972242,55.77489 186.515301,56.84718 186.216406,58.095705 L186.673348,58.060365 C187.288801,57.65628 187.570031,57.181515 187.517039,56.63607 L188.431387,56.548185 L188.95852,56.741625 C188.536906,57.40983 188.343531,57.937605 188.378395,58.34169 L188.624762,58.76391 L188.026973,60.170535 L188.044637,60.399315 C188.57177,60.346305 189.151895,60.522075 189.767348,60.891285 C190.188961,60.85641 190.645902,60.66297 191.155836,60.328635 C191.682969,60.27609 193.651582,60.25842 197.044477,60.25842 L198.749059,59.6781 C200.823656,59.66043 201.157414,59.71344 202.950316,59.55534 L203.688488,59.48466 L204.075238,59.221005 L204.092902,59.449785 C205.97366,59.29122 206.096844,59.414445 207.573188,59.590215 L207.590852,59.818995 L206.553785,59.90688 L206.588648,60.346305 C206.905207,60.31143 207.186438,60.22308 207.415141,60.030105 C207.678707,60.012435 207.836754,60.152865 207.854418,60.46953 C207.432805,60.50487 206.958199,60.60996 206.430602,60.786195 L205.97366,60.62763 C205.253152,60.82107 205.411199,60.87408 204.91893,60.908955 L204.198422,60.768525 C204.216086,60.891285 204.14543,60.97917 204.022711,60.97917 C204.03991,61.26096 204.198422,61.40139 204.461988,61.38372 L205.20016,61.313505 L209.049531,60.97917 L210.508676,60.66297 C210.52634,60.786195 210.578867,60.85641 210.702051,60.83874 L211.404895,60.575085 L212.723656,60.46953 C213.743059,60.381645 213.725395,60.31143 215.93991,59.959425 C215.922711,59.818995 215.975238,59.765985 216.080758,59.74878 L216.098422,59.941755 C219.701891,59.32656 219.930129,59.29122 220.510254,59.09778 L220.562781,59.203335 C221.459465,58.99269 220.949531,59.045235 221.195898,58.869465 C221.213563,59.027565 221.26609,59.09778 221.353945,59.09778 L221.986598,59.045235 L221.951734,58.57047 L220.668301,58.5528 L220.651102,58.517925 C220.598109,58.53513 220.562781,58.53513 220.510254,58.5528 L220.334543,58.5528 L220.334543,58.58814 C219.473188,58.76391 219.455523,58.640685 218.893063,58.693695 L215.676344,58.869465 L215.65868,58.640685 L217.451582,58.3947 L218.101898,58.34169 L218.471449,58.078035 L218.488648,58.306815 C221.020188,58.095705 221.916406,58.72857 233.623031,56.231985 C234.255684,56.178975 234.203156,55.651665 234.60757,54.56124 C234.393083,54.5759267 234.179023,54.5270839 233.992117,54.42081 C233.025707,54.79002 232.515773,54.61425 230.65268,54.913245 C230.494168,54.930915 230.371449,54.79002 230.318457,54.508695 L230.300793,54.315255 L232.093695,54.3678 C232.427918,54.332925 233.078234,54.279915 234.045109,53.734935 C234.045109,53.8935 233.693223,53.981385 233.904262,53.963715 L233.904262,53.963715 Z M147.35268,55.35267 L146.526188,55.422885 C146.491324,55.089015 146.930602,53.82282 147.844484,51.660105 L148.389746,51.60756 C148.40741,52.1172 148.073188,53.365725 147.35268,55.35267 L147.35268,55.35267 Z M148.354418,51.343905 L148.336754,51.115125 C148.31909,50.8338 148.495266,50.64036 148.882016,50.552475 L148.899215,50.78079 C148.916879,51.115125 148.741168,51.308565 148.354418,51.343905 L148.354418,51.343905 Z M159.340535,59.836665 L159.358199,60.06498 L157.98691,60.188205 L157.969246,59.959425 L159.340535,59.836665 L159.340535,59.836665 Z M157.688016,59.69577 C157.70568,59.977095 157.284066,60.29376 156.369719,60.60996 L154.682336,60.4872 L154.137539,60.539745 L154.085012,60.030105 L157.688016,59.69577 L157.688016,59.69577 Z M168.797316,8.54577 L167.970824,8.615985 L167.953625,8.33466 C167.935961,8.053335 168.094008,7.859895 168.44543,7.77201 L168.744324,7.75434 L169.306785,7.982655 C169.324449,8.31699 169.166402,8.51043 168.797316,8.54577 L168.797316,8.54577 Z M181.365297,6.08406 L181.628863,6.06639 L181.663727,6.57603 L180.907891,6.64671 C180.890691,6.365385 181.031074,6.171945 181.365297,6.08406 L181.365297,6.08406 Z M178.201105,7.19169 L176.953,7.050795 L176.935336,6.82248 C178.570191,6.681585 179.114988,6.505815 180.117191,6.22449 C180.134855,6.41793 180.310566,6.488145 180.62666,6.45327 L180.661988,6.96291 L180.169719,7.01592 C179.782969,7.050795 179.449211,6.99825 179.16798,6.84015 C178.869086,7.03359 178.552527,7.15635 178.201105,7.19169 L178.201105,7.19169 Z M179.76577,11.7459 L179.748105,11.51712 L181.769246,11.32368 L181.78691,11.55246 L179.76577,11.7459 L179.76577,11.7459 Z M181.927758,9.98727 L181.910094,9.705945 L182.894168,9.61806 L182.911832,9.899385 L181.927758,9.98727 L181.927758,9.98727 Z M182.155996,6.541155 L181.89243,6.558825 L182.121133,6.01338 L184.370977,5.802735 L184.388641,6.08406 C183.808516,6.136605 183.05268,6.294705 182.155996,6.541155 L182.155996,6.541155 Z M183.298582,11.393895 L183.263254,10.884255 L184.247793,10.79637 C184.582016,10.76103 184.757727,10.91913 184.775391,11.271135 L183.298582,11.393895 L183.298582,11.393895 Z M189.257414,3.270345 L187.991645,3.62235 L187.763406,3.639555 C187.165617,3.692565 186.392117,3.674895 185.478234,3.58701 C187.11309,3.481455 188.677289,3.35823 189.257414,3.270345 L189.257414,3.270345 Z M187.903789,8.89731 L187.921453,9.125625 L186.181543,9.28419 L186.163879,9.05541 L187.903789,8.89731 L187.903789,8.89731 Z M190.751422,10.250925 C190.733758,10.04028 190.4,9.899385 189.714355,9.82917 L187.974445,10.321605 L186.638484,10.37415 C186.33959,10.16304 186.181543,10.02261 186.163879,9.917055 L187.710879,10.00494 L191.191164,9.44229 L192.966402,9.512505 L192.984066,9.79383 C192.105047,9.881715 191.366875,10.04028 190.751422,10.250925 L190.751422,10.250925 Z M208.663246,5.6265 C208.87382,5.64417 209.014668,5.64417 209.067195,5.64417 C209.682648,5.046645 210.368293,4.57188 211.158992,4.237545 C210.52634,7.01592 209.541801,9.07308 208.188641,10.40949 L207.204102,9.8115 C208.030129,7.719 208.522398,6.330045 208.663246,5.6265 L208.663246,5.6265 Z M205.639902,10.81404 L205.885805,10.79637 C205.551582,11.429235 205.253152,11.763105 205.006785,11.780775 L204.954258,11.11257 C205.112305,11.11257 205.341008,11.007015 205.639902,10.81404 L205.639902,10.81404 Z M203.688488,15.47334 C204.163094,13.57428 204.620035,12.50199 205.042113,12.220665 L205.059777,12.44898 C204.81341,14.20761 204.42666,15.13947 203.917191,15.209685 L204.005047,16.317315 C203.582969,16.915305 203.389594,17.3724 203.407258,17.72394 L203.161355,17.74161 L203.020508,16.21176 C203.301738,16.176885 203.530441,15.930435 203.688488,15.47334 L203.688488,15.47334 Z M202.932652,18.005265 C202.950316,18.269385 202.774605,18.88458 202.423184,19.83411 L202.176816,19.85178 L202.124289,19.183575 C202.458047,18.409815 202.739277,18.022935 202.932652,18.005265 L202.932652,18.005265 Z M188.747945,59.185665 L188.730281,58.99269 L189.187223,58.95735 L189.23975,59.625555 C188.993848,59.643225 188.818137,59.50233 188.747945,59.185665 L188.747945,59.185665 Z M209.014668,59.71344 C208.997004,59.55534 208.926813,59.48466 208.768766,59.50233 L207.62618,59.607885 L207.608516,59.379105 L207.714035,59.379105 L210.42082,59.15079 L210.438484,59.379105 C209.64732,59.414445 209.172715,59.53767 209.014668,59.71344 L209.014668,59.71344 Z M207.661043,59.15079 C207.766563,59.203335 207.714035,59.256345 207.661043,59.29122 C207.608516,59.274015 207.538324,59.221005 207.661043,59.15079 L207.661043,59.15079 Z M207.801891,55.985535 L206.290219,56.10876 L206.272555,55.87998 L207.643379,55.75722 L208.838957,55.458225 C208.856621,55.598655 208.926813,55.651665 209.084859,55.633995 C210.508676,55.38801 210.368293,55.317795 211.053473,55.264785 C211.282176,55.247115 211.423023,55.38801 211.440223,55.669335 L207.801891,55.985535 L207.801891,55.985535 Z M213.092742,55.52844 C212.249051,55.440555 212.196059,55.37034 211.598734,55.422885 L211.58107,55.229445 L212.93423,55.106685 L212.951895,55.300125 C212.811512,55.317795 213.32098,55.35267 213.092742,55.52844 L213.092742,55.52844 Z M213.198262,55.282455 L213.180598,55.089015 L213.91877,55.0188 L213.936434,55.21224 L213.198262,55.282455 L213.198262,55.282455 Z M214.832652,55.14156 L214.815453,54.94812 C214.938172,54.930915 215.113883,54.84303 215.342586,54.666795 C215.711672,54.63192 215.905047,54.877905 215.940375,55.15923 L214.832652,55.14156 L214.832652,55.14156 Z M216.924449,54.877905 L216.906785,54.64959 L217.803469,54.57891 L217.821133,54.80769 L216.924449,54.877905 L216.924449,54.877905 Z M218.172555,54.77235 C218.154891,54.508695 218.26041,54.350595 218.489113,54.315255 L218.787543,54.702135 C218.770344,54.57891 218.822871,54.508695 218.928391,54.491025 L219.157094,54.913245 L218.172555,54.77235 L218.172555,54.77235 Z M204.90173,60.50487 L204.866402,60.06498 L204.725555,60.08265 L204.760883,60.522075 L204.90173,60.50487 L204.90173,60.50487 Z M235.785484,52.50408 C235.925867,52.416195 235.996059,52.32831 235.662301,52.275765 C235.503789,52.451535 235.838012,52.50408 235.48659,52.52175 L235.503789,52.67985 C235.539117,52.644975 235.626973,52.591965 235.697164,52.53942 L235.503789,52.69752 L235.503789,52.71519 L235.134703,53.189955 L235.872875,52.9263 L235.961195,52.9263 L235.925867,52.48641 L235.785484,52.50408 L235.785484,52.50408 Z M237.068453,53.50662 L236.927605,53.52429 L236.962934,53.963715 L238,53.87583 C237.982336,53.594505 237.296691,53.50662 237.068453,53.50662 L237.068453,53.50662 Z M235.468926,52.73286 L235.48659,52.71519 L235.48659,52.69752 C235.48659,52.69752 235.468926,52.71519 235.468926,52.73286 L235.468926,52.73286 Z" id="Shape" fill="#000000"></path>
                    <path d="M167.988488,20.18565 L168.006152,20.466975 L168.586277,20.41443 C168.568613,20.23866 168.638805,19.957335 168.761988,19.60533 L168.709461,19.09569 C168.463094,19.11336 168.217191,19.48257 167.988488,20.18565 L167.988488,20.18565 Z M162.43407,6.82248 L162.381543,6.312375 L161.555051,6.38259 L161.608043,6.892695 L162.43407,6.82248 L162.43407,6.82248 Z M146.315613,37.01307 C146.280285,36.538305 144.803941,34.692255 141.886117,31.439115 C141.833125,30.84159 142.835328,29.944605 144.891797,28.76676 L150.762773,23.6499 C152.08107,21.979155 152.854105,19.27146 153.082809,15.50868 L153.012617,14.647035 C152.783914,12.04443 150.903156,9.952395 147.335016,8.35233 C145.225555,6.928035 141.428711,6.136605 135.944949,5.99571 C131.409934,6.38259 125.485965,8.000325 118.191637,10.866585 C116.187695,12.30855 113.902523,13.75005 111.336121,15.192015 L111.371449,15.631905 C111.529496,15.614235 111.775398,15.52635 112.057094,15.33291 C112.355523,15.29757 112.531699,15.438465 112.548898,15.71979 L112.988641,15.49101 L113.199215,15.47334 L113.216879,15.66678 C113.234543,15.89556 111.65268,17.14362 108.453625,19.377015 L108.699527,19.83411 L108.488488,19.85178 L107.961355,19.65834 C107.97902,19.81644 107.750316,19.921995 107.311039,19.957335 L107.328703,20.150775 L107.838172,20.78364 C107.680125,20.80131 107.434223,20.731095 107.1,20.60787 C106.361828,20.678085 105.640855,21.064965 104.920348,21.803385 L105.219242,20.502315 C106.291637,15.87789 107.029809,11.780775 107.416559,8.229105 L107.363566,8.000325 C106.625395,7.52556 105.904887,6.857355 105.236906,6.01338 C105.25457,5.4684 105.25457,5.151735 105.236906,5.08152 L105.183914,4.88808 L104.97334,4.94109 C102.65284,8.422545 98.1880156,14.36571 91.561668,22.770585 C86.5167187,28.74909 83.9149883,32.07198 83.7569414,32.740185 C81.7004727,34.868025 80.7159336,36.151425 80.8214531,36.591315 C80.2766562,36.942855 80.0479531,37.294395 80.1362734,37.681275 C79.9777617,37.716615 79.8722422,37.663605 79.8373789,37.505505 C78.9583594,38.9298 77.6577266,39.84399 75.9173516,40.24854 L74.0891211,40.670295 C73.8432188,40.723305 73.7200352,40.899075 73.7376992,41.19807 L73.7906914,41.426385 L74.4758711,41.268285 L74.5288633,41.461725 L72.9818633,42.059715 L70.23975,42.69258 L68.7987344,42.780465 C68.5876953,42.991575 69.9408555,42.762795 69.4137227,42.88602 L67.6208203,43.30824 C66.5312266,43.554225 65.9334375,43.46634 65.827918,43.026915 L65.6168789,43.07946 C65.652207,43.2729 65.6698711,43.41333 65.634543,43.536555 L65.5290234,43.09713 L64.087543,43.431 C63.9824883,42.762795 62.0310742,40.336425 58.2518945,36.151425 C58.1817031,35.34279 59.5176641,34.16448 62.2421133,32.635095 L69.9408555,25.86516 C71.6635664,23.6499 72.6829688,20.097765 73.0171914,15.209685 L72.9116719,14.066715 C72.6127773,10.6206 70.1170313,7.842225 65.4235039,5.69718 C62.6465273,3.81579 57.6545703,2.81325 50.4476328,2.65515 C44.4711367,3.16479 36.666875,5.29263 27.0692461,9.002865 C24.4326523,10.91913 21.4269727,12.81819 18.052207,14.69958 L18.1047344,15.29757 C18.3334375,15.2799 18.632332,15.15714 19.001418,14.94603 C19.388168,14.91069 19.599207,15.08646 19.6340703,15.438465 L20.2318594,15.10413 L20.5307539,15.08646 L20.5479531,15.367785 C20.5656172,15.64911 18.4738203,17.284515 14.2376992,20.273535 L14.5719219,20.80131 L14.2730273,20.81898 L13.6227109,20.5902 C13.640375,20.76597 13.3414805,20.889195 12.7260273,20.94174 L12.7613555,21.258405 L13.4641992,22.032165 C13.2359609,22.049835 12.9194023,21.979155 12.5154531,21.838725 C11.1441641,21.961485 9.80820313,22.946355 8.48990625,24.810075 L8.82412891,25.33785 C9.96671484,24.282765 10.6342305,23.755455 10.8276055,23.737785 L10.8982617,24.59943 C10.7048867,24.616635 10.4059922,24.73986 10.0015781,24.95097 L10.7225508,26.04093 C12.0837359,24.5694622 13.6250909,23.2756887 15.3100938,22.190265 C16.1361211,22.401375 16.5758633,22.66503 16.5930625,22.946355 L17.2261797,22.89381 C21.7611953,19.535115 26.2432188,17.108745 30.6903789,15.614235 L30.7433711,16.21176 C29.9168789,17.442615 29.354418,18.075945 29.0555234,18.11082 C29.0908516,18.53304 29.2316992,18.90225 29.4952656,19.218915 C29.565457,19.975005 27.5438516,25.074195 23.4485781,34.498815 C14.1498437,56.407755 6.34558203,72.619515 0,83.09922 C0.0176640625,83.31033 0.140847656,83.591655 0.369085937,83.943195 C1.93375,83.573985 2.91782422,83.18757 3.33990234,82.817895 L3.67366016,82.78302 L3.72665234,83.380545 L4.3063125,83.328 L4.90410156,82.99413 C4.92176562,83.1699 5.11514063,83.257785 5.51955469,83.222445 L5.57208203,83.820435 C5.62460937,84.400755 5.29085156,85.279605 4.58754297,86.49279 C3.95489062,87.214005 3.26924609,88.726185 2.54873828,91.029795 L2.56640234,91.310655 L3.14652734,91.25811 C5.67760156,88.42719 7.5936875,85.648815 8.91198437,82.94112 C16.2946328,80.778405 21.9192422,78.650565 25.8216055,76.55853 C29.741168,76.224195 32.7291836,75.18678 34.7684531,73.48116 L34.733125,73.16496 L33.2567813,73.604385 L32.9225586,73.639725 L32.8876953,73.32306 C35.7701914,72.883635 37.7564688,72.250305 38.8641914,71.371455 C44.4711367,67.04556 48.7072578,63.986325 51.5725547,62.17515 C57.4611953,57.84972 61.2929023,53.62938 63.0332773,49.53273 C63.3493711,49.46205 63.6659297,49.391835 64.0173516,49.30395 C64.8433789,49.269075 65.3007852,49.251405 65.4235039,49.216065 C65.3886406,49.057965 65.458832,48.97008 65.6168789,48.93474 C66.9351758,48.79431 66.3025234,49.022625 67.1462148,48.829185 L69.3611953,48.319545 L69.7302812,48.231195 L69.5545703,48.33675 C69.8004727,48.37209 70.0640391,48.35442 70.3629336,48.284205 L70.5209805,48.93474 L60.4492109,64.95306 L58.2170313,67.749105 L57.1269727,71.40633 L57.3380117,71.353785 L58.4276055,70.89669 L58.0761836,72.320985 L58.1817031,72.74274 L58.4805977,73.11195 C58.33975,73.14729 58.2872227,73.235175 58.3220859,73.393275 L58.3750781,73.622055 L58.8320195,73.5165 C59.5,72.93618 59.7812305,72.40887 59.6757109,71.934105 C60.3962188,72.056865 60.8708242,72.109875 61.1171914,72.03966 L61.1697188,72.267975 C60.7304414,72.37353 60.5017383,72.72507 60.466875,73.32306 L60.5194023,73.551375 L60.7657695,73.49883 C64.4217656,69.50727 73.3862773,55.845105 80.5755508,46.578585 C80.3468477,45.57651 84.0911641,44.18709 91.8252344,42.393585 L92.0711367,42.34104 C92.3523672,43.554225 91.755043,46.4907 90.2782344,51.150465 C89.3290234,53.963715 88.872082,55.51077 88.9422734,55.75722 C87.711832,59.50233 87.131707,61.524615 87.2023633,61.840815 L84.46025,70.82601 C82.6845469,75.43323 81.3313867,80.2683 80.3821758,85.36749 C80.5402227,85.332615 80.7865898,85.350285 81.1380117,85.43817 L81.5247617,85.103835 C81.559625,85.2624 81.6651445,85.314945 81.8236562,85.279605 L81.6651445,84.62907 L82.8607227,84.594195 C83.2121445,84.50631 83.5110391,84.06642 83.7569414,83.257785 C83.7044141,82.0446 83.9503164,81.394065 84.4951133,81.25317 C85.2332852,78.369705 85.6906914,76.92774 85.8487383,76.87473 C86.5343828,74.008935 87.0438516,72.37353 87.3780742,71.96898 C88.4151406,68.24154 89.1709766,66.32481 89.6632461,66.201585 L89.7687656,66.65868 L89.0129297,68.61075 C87.694168,74.46603 86.3586719,79.090455 85.0050469,82.484025 L85.3917969,84.171975 L85.6376992,84.11943 C88.9074102,77.08584 93.6181367,63.159555 99.7526797,42.34104 C99.9283906,40.512195 100.80741,39.0879 102.371609,38.085825 L102.020188,37.716615 L101.967195,37.523175 C102.670504,37.36461 103.162773,37.08375 103.444004,36.69687 C103.408676,36.538305 102.793687,36.30999 101.598109,35.993325 L104.656781,22.87614 C105.324762,22.27815 105.711512,21.96195 105.83423,21.96195 L105.887223,22.62969 C105.729176,22.64736 105.482809,22.735245 105.201578,22.928685 L105.781703,23.755455 C106.836434,22.612485 107.97902,21.627615 109.22666,20.80131 C109.859777,20.97708 110.175871,21.18819 110.211199,21.398835 L110.668141,21.36396 C114.148426,18.814365 117.55852,16.98552 120.916086,15.87789 L120.950949,16.317315 C120.335961,17.249175 119.913883,17.72394 119.685645,17.74161 C119.720508,18.058275 119.808363,18.3396 119.966875,18.585585 C120.019402,19.165905 118.50773,23.03424 115.414195,30.20826 C108.348105,46.82457 102.424137,59.11545 97.6078906,67.09857 C97.6255547,67.25667 97.7310742,67.46778 97.9244492,67.749105 C99.1023633,67.46778 99.8581992,67.168785 100.157094,66.88746 L100.367668,66.86979 L100.402996,67.309215 L100.895266,67.27434 L101.334543,67.04556 C101.352207,67.168785 101.510254,67.22133 101.809148,67.204125 L101.844477,67.67889 C101.87934,68.100645 101.633437,68.76885 101.088641,69.68304 C100.578707,70.228485 100.051574,71.371455 99.4891133,73.11195 L99.5063125,73.34073 L99.9637187,73.30539 C101.87934,71.160345 103.338484,69.050175 104.340223,66.975345 C109.947633,65.322735 114.219082,63.722205 117.17177,62.13981 C120.177914,61.876155 122.444957,61.102395 123.991957,59.801325 L123.974293,59.572545 L122.831707,59.90688 L122.585805,59.92455 L122.568141,59.69577 C124.747793,59.379105 126.277129,58.887135 127.103156,58.2366 C131.356941,54.96579 134.57366,52.627305 136.753312,51.255555 C143.538172,46.31493 146.702363,41.56728 146.315613,37.01307 L146.315613,37.01307 Z M145.155363,37.312065 L145.31341,39.0879 C145.102836,39.52779 144.874133,39.756105 144.663094,39.773775 L144.399527,36.749415 C144.891797,36.925185 145.137699,37.100955 145.155363,37.312065 L145.155363,37.312065 Z M12.0580469,22.999365 L11.7596172,23.01657 L11.706625,22.47159 L12.9194023,22.366035 L12.9370664,22.64736 C12.7436914,22.66503 12.4447969,22.770585 12.0580469,22.999365 L12.0580469,22.999365 Z M6.13454297,82.272915 C5.43169922,81.95625 4.79858203,81.83349 4.25378516,81.886035 L4.18359375,81.02439 C4.14826563,80.69052 4.34164063,80.46174 4.76371875,80.373855 C5.15000391,80.33898 5.37870703,80.620305 5.41403516,81.182955 C6.4334375,79.93443 6.99589844,79.301565 7.10141797,79.283895 L7.75173438,79.54755 C7.54069531,81.305715 6.99589844,82.2027 6.13454297,82.272915 L6.13454297,82.272915 Z M69.4313867,16.03599 C69.1324922,16.07133 68.5347031,15.13947 67.6738125,13.292955 L67.6208203,12.747975 C68.1832813,12.69543 68.7634063,13.60962 69.3783945,15.49101 L69.4313867,16.03599 L69.4313867,16.03599 Z M68.5876953,9.47763 L68.3413281,10.05795 L59.7459023,6.470475 C65.4764961,6.663915 68.4296484,7.666455 68.5876953,9.47763 L68.5876953,9.47763 Z M32.2899063,40.65309 L31.0771289,40.758645 L31.0246016,40.2132 L32.2373789,40.107645 L32.2899063,40.65309 L32.2899063,40.65309 Z M31.3053672,21.92661 L31.6042617,21.90894 L31.674918,22.770585 C31.3936875,22.788255 31.0246016,23.21001 30.5671953,24.01911 L30.514668,23.42112 C31.0594648,22.770585 31.3406953,22.27815 31.3053672,21.92661 L31.3053672,21.92661 Z M28.7566289,27.93999 L28.8621484,29.08296 L28.5637187,29.10063 L28.4581992,27.95766 L28.7566289,27.93999 L28.7566289,27.93999 Z M27.4211328,30.0855 L28.0012578,30.03249 C27.9482656,30.98202 27.6846992,31.492125 27.2100937,31.527 L26.9111992,31.54467 C27.2802852,30.911805 27.4559961,30.41937 27.4211328,30.0855 L27.4211328,30.0855 Z M26.4189297,33.07452 L26.7531523,33.03918 L26.7703516,33.320505 L26.2255547,34.23516 L25.6454297,34.287705 L25.6282305,34.00638 C26.2083555,33.953835 26.4719219,33.65484 26.4189297,33.07452 L26.4189297,33.07452 Z M25.4348555,35.76501 L25.2591445,37.20651 L24.96025,37.22418 L24.8370664,35.799885 L25.4348555,35.76501 L25.4348555,35.76501 Z M15.5736602,63.810555 C15.1869102,65.77983 14.7652969,66.781905 14.3255547,66.817245 L14.3083555,66.53592 C14.2028359,65.56872 14.6244492,64.65453 15.5736602,63.810555 L15.5736602,63.810555 Z M13.7630938,67.731435 L13.7807578,68.01276 C13.8160859,68.39964 13.640375,68.62842 13.253625,68.645625 L13.2359609,68.3643 C13.2006328,68.03043 13.3763438,67.81932 13.7630938,67.731435 L13.7630938,67.731435 Z M13.2359609,75.872655 L14.1498438,75.78477 L14.1851719,76.101435 C13.9564688,76.11864 13.6575742,76.241865 13.2884883,76.452975 L12.7083633,76.50552 C12.6735,76.206525 12.866875,75.97821 13.2359609,75.872655 L13.2359609,75.872655 Z M39.2504766,67.83699 C34.1181367,70.368915 31.094793,72.092205 30.1981094,72.988725 C24.6436914,74.923125 21.8839141,76.11864 21.9369062,76.593405 C16.9974766,78.545475 13.7454297,79.986975 12.1812305,80.88396 C11.8121445,80.918835 11.2850117,80.778405 10.5817031,80.46174 C10.4938477,79.459665 10.9507891,78.650565 11.9176641,78.00003 C12.7790195,77.929815 13.6050469,78.05304 14.3962109,78.38691 C15.3100937,77.912145 16.9096211,77.384835 19.1771289,76.822185 L19.1246016,76.224195 L17.2963711,76.382295 C17.5246094,76.066095 19.2826484,75.23979 22.5872227,73.90338 L23.5011055,73.815495 L23.5187695,74.09682 C21.9545703,74.23725 21.0932148,74.694345 20.8998398,75.521115 C20.9347031,75.890325 21.1457422,76.048425 21.5324922,76.013085 C22.7104062,75.274665 23.2900664,74.83524 23.2728672,74.712015 C25.5050469,74.29026 31.674918,71.05479 41.7820156,65.02374 L41.834543,65.56872 C41.852207,65.832375 40.9908516,66.570795 39.2504766,67.83699 L39.2504766,67.83699 Z M23.7474727,72.93618 C25.2238164,72.812955 26.4895859,72.21543 27.5438516,71.178015 C27.9659297,71.142675 28.1946328,71.300775 28.211832,71.669985 C27.4913242,71.740665 26.1028359,72.33819 24.0812305,73.49883 L23.7823359,73.5165 L23.7474727,72.93618 L23.7474727,72.93618 Z M48.76025,53.717265 L41.0085156,59.87154 C35.2430586,63.65199 32.1495234,65.55105 31.6921172,65.58639 C22.5170312,70.63257 16.8041016,73.252845 14.5895859,73.446285 L14.2553633,73.48116 C14.5365937,72.443745 18.614668,64.09188 26.5244492,48.37209 C30.0047344,48.073095 35.4889609,46.45536 42.9594648,43.50168 L44.7876953,43.343115 C48.566875,43.009245 51.3968437,43.747665 53.2599375,45.50583 L53.365457,46.6488 C51.9769687,50.6757 50.4299687,53.031855 48.76025,53.717265 L48.76025,53.717265 Z M33.6082031,45.18963 L34.8563086,45.084075 L34.8739727,45.3654 L33.6258672,45.470955 L33.6082031,45.18963 L33.6082031,45.18963 Z M51.1332773,42.217815 L52.0471602,42.12993 C52.8908516,42.53448 53.3301289,42.88602 53.365457,43.202685 L53.3831211,43.48401 C52.574293,43.554225 51.818457,43.132005 51.1332773,42.217815 L51.1332773,42.217815 Z M53.6113594,28.098555 C52.8029961,29.06529 50.5880156,30.718365 46.9673477,33.03918 C45.7717695,33.144735 41.3246094,34.868025 33.6258672,38.243925 C33.2409543,38.0680291 32.8169332,37.9952787 32.3954258,38.032815 L32.3428984,37.487835 C32.255043,36.380205 32.7468477,34.99125 33.8369062,33.3033 C34.4342305,30.138045 35.0850117,28.32687 35.8055195,27.887445 L42.221293,13.45152 C42.1511016,12.554535 43.5219258,11.86866 46.3342305,11.393895 L47.2485781,11.30601 L47.3187695,12.13278 C50.0785469,11.71056 51.800793,11.464575 52.4687734,11.411565 C57.5667148,10.97214 60.2205078,12.009555 60.4315469,14.488935 L61.0116719,14.435925 L60.8884883,12.976755 L61.5216055,12.923745 C63.0156133,13.75005 63.8239766,14.75259 63.9294961,15.930435 C63.9996875,16.739535 63.5604102,17.74161 62.6288633,18.93759 C62.2421133,18.972465 62.0134102,18.69114 61.9785469,18.12849 L61.3454297,18.1815 L61.2050469,19.939665 C58.6209805,23.808 56.7402227,25.794945 55.5804375,25.9005 C54.525707,27.35967 53.8753906,28.080885 53.6113594,28.098555 L53.6113594,28.098555 Z M57.5490508,38.20905 C57.0214531,37.857045 56.5998398,37.698945 56.2832813,37.716615 L56.2130898,36.85497 L56.7932148,36.80196 L58.0761836,37.558515 C58.1291758,37.9626 57.953,38.17371 57.5490508,38.20905 L57.5490508,38.20905 Z M61.627125,43.04412 C62.1895859,43.2729 62.5233438,43.518885 62.5935352,43.747665 L62.3123047,43.81788 L62.3299688,43.83555 C62.2774414,43.83555 62.2067852,43.85322 62.1542578,43.87089 L61.7321797,44.20476 L61.627125,43.04412 L61.627125,43.04412 Z M62.0134102,45.470955 L61.9608828,45.242175 L62.6990547,45.066405 L62.7520469,45.295185 L62.0134102,45.470955 L62.0134102,45.470955 Z M63.7891133,47.4579 C64.5449492,47.334675 64.9140352,47.28213 66.3201875,46.965465 L66.3727148,47.19378 L63.7012578,47.80944 C63.7361211,47.686215 63.7714492,47.563455 63.7891133,47.4579 L63.7891133,47.4579 Z M66.3903789,48.56553 C65.265457,48.671085 65.5113594,48.53019 63.718457,48.93474 L63.6659297,48.70596 L65.9157734,47.98521 L66.988168,47.739225 L67.0936875,48.16098 C66.601418,48.266535 66.9528398,48.266535 66.3903789,48.56553 L66.3903789,48.56553 Z M68.7634062,48.00288 C68.4998398,48.073095 68.2888008,47.950335 68.1656172,47.65134 L68.8512617,47.492775 C69.1501562,47.42256 69.3435312,47.545785 69.4137227,47.84478 L68.7634062,48.00288 L68.7634062,48.00288 Z M75.1968437,41.074845 L75.1438516,40.84653 L76.2515742,40.58241 L76.3570937,41.00463 L75.1968437,41.074845 L75.1968437,41.074845 Z M82.0695586,83.240115 C82.13975,82.92345 82.1574141,82.695135 82.1220859,82.53657 L82.3684531,82.484025 C82.6673477,82.41381 82.8430586,82.519365 82.91325,82.80069 L82.9662422,83.029005 L82.0695586,83.240115 L82.0695586,83.240115 Z M86.8858047,42.88602 L86.3935352,42.798135 C85.6028359,43.1148 84.9348555,43.343115 84.3895938,43.46634 L83.9326523,43.571895 C83.6690859,43.64211 83.4580469,43.536555 83.3525273,43.25523 L86.5692461,42.51681 L87.6239766,42.024375 L87.9758633,42.428925 C87.4659297,42.53448 87.0968438,42.69258 86.8858047,42.88602 L86.8858047,42.88602 Z M89.3643516,42.09459 L89.3113594,41.866275 C89.4698711,41.830935 89.6804453,41.708175 89.9091484,41.479395 L92.1943203,40.95162 L92.2468477,41.1804 C91.0340703,41.479395 90.0671953,41.77839 89.3643516,42.09459 L89.3643516,42.09459 Z M89.7157734,37.470165 C89.5577266,37.505505 89.3466875,37.645935 89.0831211,37.857045 C89.047793,37.698945 88.7316992,37.698945 88.1339102,37.839375 C88.0283906,37.39995 89.7157734,36.784755 93.2137227,35.975655 L93.7059922,35.8701 L93.8115117,36.29232 C91.3506289,37.01307 89.9793398,37.41762 89.7157734,37.470165 L89.7157734,37.470165 Z M95.8679805,30.82392 C95.6220781,33.6195 94.6375391,35.201895 92.8971641,35.606445 L92.8446367,35.37813 L91.2976367,35.975655 L90.612457,36.13422 C90.2605703,36.222105 89.9444766,36.204435 89.6632461,36.11655 L89.5223984,35.50089 C89.4698711,35.272575 91.7020508,32.177535 96.2370664,26.23437 L96.7641992,26.322255 C96.9575742,27.131355 96.6591445,28.625865 95.8679805,30.82392 L95.8679805,30.82392 Z M106.748578,21.50439 L106.537539,21.52206 L106.502211,21.082635 L107.416559,20.99475 L107.433758,21.223065 C107.275711,21.258405 107.047473,21.34629 106.748578,21.50439 L106.748578,21.50439 Z M102.26609,66.53592 C101.738957,66.28947 101.264352,66.183915 100.859937,66.219255 L100.80741,65.55105 C100.789746,65.322735 100.930129,65.16417 101.229023,65.076285 C101.527918,65.04141 101.703629,65.252055 101.738957,65.70915 C102.494793,64.742415 102.916406,64.24998 103.004262,64.24998 L103.478867,64.44342 C103.303156,65.77983 102.899207,66.48291 102.26609,66.53592 L102.26609,66.53592 Z M150.323031,16.2471 C150.094793,16.26477 149.655051,15.561225 148.969871,14.13693 L148.934543,13.697505 C149.37382,13.662165 149.831227,14.34804 150.288168,15.754665 L150.323031,16.2471 L150.323031,16.2471 Z M149.690379,11.218125 L149.47934,11.67522 L142.975711,8.949855 C147.317352,9.09075 149.567195,9.84684 149.690379,11.218125 L149.690379,11.218125 Z M122.111199,34.903365 L121.197316,34.99125 L121.161988,34.55136 L122.075871,34.463475 L122.111199,34.903365 L122.111199,34.903365 Z M121.355363,20.678085 L121.601266,20.660415 L121.654258,21.32862 C121.425555,21.34629 121.144324,21.662955 120.810566,22.27815 L120.775238,21.838725 C121.179652,21.32862 121.373027,20.94174 121.355363,20.678085 L121.355363,20.678085 Z M119.439277,25.249965 L119.509934,26.11161 L119.263566,26.12928 L119.193375,25.267635 L119.439277,25.249965 L119.439277,25.249965 Z M118.402211,26.884905 L118.859152,26.85003 C118.806625,27.58845 118.61325,27.97533 118.279492,28.010205 L118.033125,28.027875 C118.296691,27.535905 118.419875,27.149025 118.402211,26.884905 L118.402211,26.884905 Z M117.664039,29.13597 L117.875078,29.1183 L117.892742,29.346615 L117.488328,30.05016 L117.031387,30.0855 L117.013723,29.85672 C117.488328,29.82138 117.699367,29.575395 117.664039,29.13597 L117.664039,29.13597 Z M116.925867,31.17546 L116.76782,32.30076 L116.556781,32.31843 L116.468926,31.2108 L116.925867,31.17546 L116.925867,31.17546 Z M109.420035,52.50408 C109.121605,53.981385 108.805047,54.737475 108.470824,54.77235 L108.453625,54.57891 C108.400633,53.84049 108.717191,53.136945 109.420035,52.50408 L109.420035,52.50408 Z M108.031547,55.475895 L108.049211,55.669335 C108.084539,55.985535 107.943691,56.161305 107.627133,56.178975 L107.609934,55.95066 C107.59227,55.72188 107.732652,55.56378 108.031547,55.475895 L108.031547,55.475895 Z M107.644797,61.665045 L108.348105,61.6125 L108.365305,61.840815 C108.207258,61.858485 107.961355,61.94637 107.680125,62.104935 L107.223184,62.13981 C107.20552,61.893825 107.345902,61.735725 107.644797,61.665045 L107.644797,61.665045 Z M127.384387,55.56378 C123.517352,57.48051 121.214516,58.78158 120.494008,59.449785 C116.275551,60.926625 114.183754,61.840815 114.219082,62.210025 C110.474766,63.705 108.013883,64.77729 106.854098,65.463165 C106.572867,65.480835 106.168453,65.37528 105.640855,65.129295 C105.570664,64.373205 105.922086,63.757545 106.660723,63.30045 C107.328703,63.247905 107.961355,63.33579 108.54148,63.581775 C109.244324,63.230235 110.457102,62.843355 112.179813,62.403465 L112.144949,61.96404 L110.721133,62.087265 C110.896844,61.840815 112.250004,61.20795 114.763879,60.188205 L115.466723,60.135195 L115.484387,60.328635 C114.289273,60.43419 113.621293,60.786195 113.480445,61.41906 C113.498109,61.700385 113.67382,61.840815 113.972715,61.80594 C114.851734,61.22562 115.273348,60.891285 115.273348,60.786195 C116.961195,60.4872 121.636594,58.02549 129.318137,53.418735 L129.353,53.85816 C129.353,54.03393 128.702684,54.59658 127.384387,55.56378 L127.384387,55.56378 Z M115.60757,59.432115 C116.750156,59.32656 117.717031,58.887135 118.525395,58.113375 C118.824289,58.095705 119,58.21893 119.017664,58.500255 C118.490066,58.5528 117.453,58.99269 115.888801,59.836665 L115.642898,59.85387 L115.60757,59.432115 L115.60757,59.432115 Z M134.626652,44.82042 L128.77334,49.53273 C124.396371,52.398525 122.023344,53.84049 121.654258,53.87583 C114.693688,57.708825 110.369246,59.69577 108.664199,59.836665 L108.418297,59.85387 C108.629336,59.062905 111.740535,52.71519 117.751895,40.79352 C120.370824,40.565205 124.519555,39.31668 130.214355,37.06608 L131.638172,36.942855 C134.503469,36.69687 136.647793,37.25952 138.053945,38.613135 L138.124602,39.47478 C137.052207,42.49914 135.891957,44.274975 134.626652,44.82042 L134.626652,44.82042 Z M123.130602,38.34948 L124.044949,38.261595 L124.062148,38.490375 L123.148266,38.57826 L123.130602,38.34948 L123.130602,38.34948 Z M136.436754,36.08121 L137.140063,36.028665 C137.790379,36.344865 138.124602,36.62619 138.141801,36.85497 L138.159465,37.04841 C137.544477,37.100955 136.964352,36.784755 136.436754,36.08121 L136.436754,36.08121 Z M138.282648,25.372725 C137.667195,26.11161 135.997477,27.37734 133.273027,29.13597 C132.359145,29.223855 128.983914,30.524925 123.148266,33.05685 C122.867035,32.951295 122.550477,32.91642 122.216719,32.933625 L122.181391,32.4942 C122.111199,31.650225 122.480285,30.59514 123.289113,29.31174 C123.746055,26.884905 124.255523,25.53129 124.783121,25.214625 L129.687223,14.242485 C129.63423,13.59195 130.671297,13.06464 132.780758,12.66009 L133.484066,12.607545 L133.536594,13.275285 C135.610727,12.941415 136.911359,12.747975 137.438957,12.69543 C141.305992,12.361095 143.327133,13.134855 143.485645,15.033915 L143.942586,14.998575 L143.85473,13.94349 L144.311672,13.908615 C145.436594,14.52381 146.034383,15.26223 146.104574,16.141545 C146.157102,16.77441 145.841008,17.54817 145.173027,18.445155 C144.874133,18.48003 144.698422,18.269385 144.663094,17.811825 L144.206152,17.847165 L144.06577,19.165905 C142.114355,22.13772 140.690539,23.667105 139.79432,23.737785 C139.003156,24.810075 138.510887,25.35552 138.282648,25.372725 L138.282648,25.372725 Z M140.339117,32.68764 L140.28659,32.019435 L140.743531,31.98456 L141.727605,32.582085 C141.74527,32.86341 141.604887,33.021975 141.305992,33.05685 C140.883914,32.793195 140.56782,32.66997 140.339117,32.68764 L140.339117,32.68764 Z M58.5154609,75.39789 L58.0585195,75.503445 L57.6717695,75.837315 C57.7424258,76.11864 57.9181367,76.224195 58.2170312,76.15398 C58.5154609,76.083765 58.6386445,75.907995 58.5684531,75.62667 L58.5154609,75.39789 L58.5154609,75.39789 Z M56.7755508,71.934105 L56.8280781,72.16242 C57.1269727,72.092205 57.2501563,71.916435 57.1799648,71.63511 L57.1269727,71.40633 C56.8457422,71.476545 56.7225586,71.65278 56.7755508,71.934105 L56.7755508,71.934105 Z M69.2203477,48.54786 L69.5545703,48.33675 C69.4839141,48.33675 69.4313867,48.31908 69.3783945,48.301875 C69.2556758,48.33675 69.2026836,48.424635 69.2203477,48.54786 L69.2203477,48.54786 Z M69.1501562,42.48147 L69.6772891,42.35871 L69.5717695,41.90115 L69.0446367,42.024375 L69.1501562,42.48147 L69.1501562,42.48147 Z M193.370816,60.24075 L192.175238,60.10032 L191.964199,60.557415 L191.981863,60.786195 L199.100945,60.188205 L199.065617,59.74878 L193.370816,60.24075 L193.370816,60.24075 Z M199.874445,59.69577 L199.909309,60.135195 L199.9795,60.135195 L199.944637,59.69577 L199.874445,59.69577 L199.874445,59.69577 Z M229.738332,55.792095 L229.77366,56.231985 L230.54716,56.372415 L230.511832,55.93299 L229.738332,55.792095 L229.738332,55.792095 Z M228.648738,55.87998 C223.305359,57.07596 222.637379,56.86485 221.512457,56.952735 L221.54732,57.39216 L222.03959,57.357285 L222.303156,57.339615 L222.232965,57.28707 L222.81309,57.05829 C228.103941,56.47797 228.71893,56.68908 228.666402,56.09109 L228.648738,55.87998 L228.648738,55.87998 Z M196.569871,48.108435 L196.095266,47.950335 C195.708516,48.987285 195.515141,49.602945 195.532805,49.778715 L195.550004,49.972155 C195.919555,49.954485 196.253312,49.32162 196.569871,48.108435 L196.569871,48.108435 Z M190.136434,44.64465 L190.11877,44.41587 L189.872867,44.43354 L189.433125,44.714865 L189.679492,45.13662 C190.01325,45.101745 190.171297,44.94318 190.136434,44.64465 L190.136434,44.64465 Z M204.110566,59.09778 L204.075238,58.658355 L203.934855,58.676025 L203.969719,59.11545 L204.110566,59.09778 L204.110566,59.09778 Z M233.113563,52.55709 L233.44732,52.52175 C233.640695,52.50408 233.728551,52.34598 233.710887,52.064655 L233.517512,51.642435 C232.304734,51.74799 231.742273,51.801 230.758199,52.34598 L230.740535,52.1172 L229.281391,52.258095 C229.246527,51.818205 229.123344,51.58989 228.929969,51.60756 L228.174133,51.677775 C227.295113,51.74799 226.8735,51.713115 226.433758,52.046985 C226.416559,51.888885 226.363566,51.818205 226.275711,51.818205 L225.43202,51.888885 L224.93975,52.17021 C224.922086,52.011645 224.869559,51.94143 224.781703,51.94143 L224.482809,52.205085 L224.465145,51.97677 L223.287695,51.888885 L223.006465,51.906555 L223.041328,52.34598 L223.639117,52.50408 L224.201578,52.469205 C224.394953,52.591965 224.605992,52.627305 224.851895,52.609635 L225.344164,52.36365 L225.361828,52.55709 C222.602051,53.2425 222.619715,53.11974 220.721293,53.43594 C220.510254,53.29551 220.352207,53.225295 220.246688,53.2425 L220.211359,53.27784 C220.000785,53.26017 219.877602,53.11974 219.859938,52.89096 L220.844477,52.767735 C220.914668,52.767735 220.967195,52.838415 221.511992,52.94397 C222.303156,52.55709 222.338484,52.398525 222.760098,52.36365 L222.725234,51.92376 C220.017984,52.451535 221.108043,52.09953 217.715613,52.398525 L217.557102,52.416195 L217.522238,51.97677 C221.881543,51.448995 220.422398,51.74799 221.916406,51.326235 C221.93407,51.484335 221.987063,51.55455 222.074918,51.55455 C222.235089,51.390993 222.445357,51.285742 222.672242,51.255555 L222.971137,51.23835 C224.500473,51.115125 225.010406,51.41412 228.03375,50.570145 L228.050949,50.763585 L228.543219,50.517135 L229.00016,50.48226 C228.965297,50.04237 229.633277,49.972155 229.861516,49.954485 L229.826652,49.47972 C224.518137,50.552475 223.129184,50.25348 221.65284,50.6757 L221.635176,50.48226 C220.246688,50.728245 220.19416,50.62269 219.842273,50.64036 C219.736754,50.65803 219.578707,50.745915 219.402996,50.921685 C219.385332,50.763585 219.332805,50.692905 219.227285,50.692905 C219.174293,50.692905 219.157094,50.710575 219.13943,50.710575 L214.639277,51.448995 C214.622078,51.326235 214.569086,51.255555 214.463566,51.273225 C212.125867,51.76566 212.75852,51.853545 209.629656,52.13487 C209.489273,52.15254 209.295898,52.222755 209.049996,52.380855 C209.032332,52.258095 208.961676,52.18788 208.803629,52.205085 L206.887543,52.36365 L205.604574,52.67985 C205.58691,52.55709 205.516719,52.48641 205.358672,52.50408 C204.637699,52.69752 204.005047,52.820745 203.495113,52.85562 L203.46025,52.85562 C203.143691,52.89096 203.618297,52.767735 203.372395,52.662645 L202.985645,52.89096 C202.423184,52.94397 202.722078,52.85562 200.788328,52.87329 C197.395898,53.29551 197.764984,53.348055 197.395898,53.365725 L196.130129,53.27784 C196.147793,53.401065 196.077602,53.48895 195.936754,53.48895 C194.495738,53.29551 193.757566,53.06673 193.739902,52.803075 C193.933277,51.43179 194.267035,50.728245 194.741641,50.692905 L194.988008,50.6757 L194.776969,51.132795 L195.022871,51.115125 C195.479813,50.868675 195.690852,50.64036 195.673188,50.42925 L195.638324,49.954485 L195.180918,49.989825 L195.146055,49.549935 C195.110727,49.216065 195.163719,48.91707 195.286438,48.671085 L196.323504,47.00034 L196.358832,47.44023 L196.851102,47.40489 L196.815773,46.965465 L196.534543,46.560915 C196.903629,46.24425 197.184859,46.06848 197.413563,46.05081 L197.395898,45.822495 L196.727918,45.87504 L196.675391,45.206835 C198.011352,42.428925 198.644004,40.81119 198.608676,40.354095 L199.083281,40.547535 C199.382176,40.529865 199.522559,40.354095 199.505359,40.03743 L199.047953,40.07277 L199.030754,39.87933 C198.998177,39.5582554 199.059203,39.2346115 199.206465,38.94747 C199.926973,38.19138 200.261195,37.43529 200.190539,36.64386 C200.331387,36.62619 200.401578,36.69687 200.419242,36.85497 C201.034695,36.50343 201.509301,35.571105 201.860723,34.02405 C202.950316,32.054775 204.497316,28.11576 206.518457,22.225605 C210.385957,11.816115 210.227445,10.708485 210.772242,8.246775 L210.315301,8.28165 C210.350629,8.598315 210.280438,8.89731 210.13959,9.178635 C209.823031,9.05541 209.577129,8.985195 209.401418,9.002865 L209.383754,8.809425 C209.313563,7.91244 209.682648,6.84015 210.52634,5.573955 L210.737379,5.556285 L211.124129,7.068465 L211.58107,7.03359 C211.563406,6.928035 211.68659,6.330045 211.932492,5.222415 C211.914828,4.993635 211.739117,4.853205 211.387695,4.835535 L210.948418,5.11686 C210.91309,4.800195 210.930754,3.97389 210.983281,2.65515 L210.754578,2.67282 C210.368293,2.28594 210.174918,1.969275 210.157254,1.70562 L207.643379,1.951605 C207.62618,1.775835 207.538324,1.51218 207.362148,1.177845 C207.344949,0.94953 207.90741,0.72075 209.067195,0.492435 L209.577129,0.685875 L210.051734,0.40455 C210.069398,0.56265 210.157254,0.632865 210.332965,0.615195 L210.80757,0.33387 C210.825234,0.492435 210.91309,0.56265 211.088801,0.54498 L211.317504,0.52731 L211.282176,0.01767 C210.930754,0.052545 209.999207,0.052545 208.522398,0 L208.047793,0.316665 L208.030129,0.03534 C196.235648,1.002075 189.538645,1.54752 187.939117,1.70562 C187.728078,1.72329 186.902051,1.70562 185.443371,1.67028 C185.46057,1.86372 185.284859,1.969275 184.933438,2.004615 L184.423504,1.775835 L182.701258,2.215725 C182.296844,2.2506 181.611199,2.23293 180.661988,2.127375 C180.398422,2.338485 180.081863,2.46171 179.695113,2.49705 C179.484539,2.514255 182.208988,2.356155 184.740063,2.180385 C184.476496,2.391495 184.072082,2.514255 183.509621,2.567265 C183.122871,2.60214 182.789113,2.549595 182.507883,2.391495 C182.121133,2.567265 180.873027,2.84859 178.78123,3.270345 L178.271762,3.076905 L170.045422,4.3431 C169.728863,4.185 169.359777,4.13199 168.937699,4.16733 C168.498422,4.202205 167.76025,4.36077 166.740848,4.642095 L162.768293,6.294705 L163.066723,6.78714 C163.260098,6.76947 163.541328,6.663915 163.875551,6.470475 L165.281703,6.5937 L165.105992,7.91244 C163.805359,8.49276 163.049523,9.354405 162.838484,10.444365 C160.887535,11.30601 159.92066,11.92167 159.92066,12.29088 L159.938324,12.519195 L160.236754,12.50199 L160.764352,12.220665 L161.37934,12.959085 L161.467195,13.97883 C161.502523,14.295495 158.215613,21.205395 151.641328,34.709925 C145.946527,47.721555 142.958047,54.84303 142.676816,56.12643 C140.725867,56.67141 139.600945,57.46284 139.266723,58.517925 C139.302051,58.851795 139.882176,59.080575 141.007098,59.16846 L141.059625,59.6781 L140.550156,60.522075 L140.638012,61.542285 C140.690539,62.069595 142.114355,62.474145 144.909461,62.75547 C144.891797,62.5797 144.979652,62.474145 145.173027,62.456475 C145.225555,63.08934 145.049844,64.320195 144.64543,66.14904 L144.944324,66.13137 C146.104574,64.548975 146.649371,63.45855 146.596844,62.861025 L146.842746,62.843355 C147.123977,62.825685 147.422871,63.14235 147.774293,63.82776 C147.422871,63.968655 146.19243,66.764235 144.082969,72.232635 L144.381863,72.72507 L144.680758,72.7074 C147.264824,66.16671 148.882016,62.54436 149.549531,61.858485 C152.942426,61.55949 158.812938,60.961965 167.144797,60.06498 L167.672395,59.748315 C167.689594,59.92455 167.795113,60.012435 167.988488,59.994765 L168.53375,59.941755 L169.060883,59.625555 C169.078547,59.801325 169.184066,59.88921 169.377441,59.87154 L175.687695,59.32656 C177.357414,59.185665 178.148578,58.676025 178.077922,57.81438 C178.060723,57.5856 179.044797,57.321945 181.031074,57.04062 C181.224449,57.02295 181.50568,57.07596 181.89243,57.19872 C181.874766,57.04062 182.876969,56.88252 184.88091,56.70675 C184.933438,55.651665 185.267195,55.089015 185.864984,55.036005 L185.812457,54.526365 C185.249996,54.57891 184.616879,54.719805 183.878707,54.96579 C182.56041,54.895575 181.716719,54.79002 181.365297,54.666795 C181.01341,54.860235 180.749844,54.96579 180.556469,54.98346 L176.162301,55.12389 L175.634703,55.405215 C175.617039,55.247115 175.511984,55.1769 175.318609,55.19457 L175.072242,55.211775 L174.509781,55.493565 C174.492117,55.335 174.035176,55.211775 173.121293,55.089015 L172.558832,55.422885 L171.469238,55.51077 L171.451574,55.229445 C177.111512,54.61425 179.906152,53.84049 179.835961,52.9263 C180.205047,52.89096 180.398422,53.06673 180.433285,53.43594 L182.085805,53.014185 L182.033277,52.50408 L168.480758,52.87329 C168.498422,53.04906 168.410566,53.154615 168.217191,53.172285 L166.564672,53.031855 C166.143059,53.06673 165.791637,53.189955 165.510406,53.401065 L164.894953,53.172285 C163.189906,53.31318 161.924137,53.523825 161.080445,53.787945 C159.92066,53.70006 158.637227,53.717265 157.21341,53.84049 L154.172867,54.104145 L152.766715,53.946045 C152.696059,53.04906 154.436434,48.635745 158.022238,40.723305 C159.059305,38.050485 160.008516,36.380205 160.922398,35.74734 C161.115773,35.72967 161.397004,35.799885 161.783754,35.957985 L163.945742,35.219565 L165.053,35.395335 C166.916559,35.237235 169.078547,34.709925 171.557094,33.79527 C172.172082,33.742725 172.629023,33.778065 172.963246,33.918495 L174.615301,33.531615 L179.537066,33.109395 C181.628863,32.933625 183.896371,32.47653 186.357254,31.72044 L186.304262,31.2108 C185.390379,31.298685 184.915773,31.14012 184.88091,30.77091 C184.827918,30.0855 184.159938,29.80371 182.876969,29.909265 L182.823977,29.399625 L184.177602,29.012745 L187.728078,28.71375 L187.675551,28.20411 C187.534703,28.221315 186.814195,28.20411 185.478234,28.1511 L185.425707,27.60612 L186.796531,27.482895 C187.165617,27.44802 187.324129,27.271785 187.288801,26.920245 C185.443371,26.97279 184.511359,26.884905 184.49416,26.63892 C171.627285,27.271785 165.176184,27.39501 165.14132,26.99046 C164.947945,27.00813 164.683914,27.131355 164.332492,27.342465 L163.998734,26.81469 C167.408363,19.570455 169.412305,15.912765 169.99243,15.86022 C170.010094,16.141545 169.869246,16.59864 169.570352,17.2143 L169.588016,17.442615 L170.133277,17.39007 C171.486438,14.1546 172.629023,12.48432 173.578234,12.414105 C177.62098,12.0621 173.015773,11.798445 181.664191,10.444365 C182.015613,10.60293 182.261516,10.673145 182.437227,10.655475 C185.829656,9.9696 190.558047,9.24885 196.622398,8.51043 L196.58707,8.000325 L193.353152,8.29932 L193.317824,7.789215 C193.704574,7.75434 194.021133,7.631115 194.284699,7.420005 L194.302363,7.70133 C194.478074,7.684125 194.723977,7.5609 195.040535,7.34979 C195.602996,7.297245 196.024609,7.34979 196.323504,7.50789 C197.448426,7.20936 198.362773,7.033125 199.030754,6.96291 L201.051895,6.76947 C201.544164,6.45327 201.772867,6.171945 201.755203,5.907825 L201.737539,5.67951 C201.227605,5.732055 200.647945,5.69718 199.962301,5.573955 C199.944637,5.29263 200.08502,5.09919 200.419242,5.011305 L204.180758,4.659765 L205.903469,4.219875 C205.921133,4.413315 206.008988,4.48353 206.149371,4.48353 C206.325082,4.466325 206.571449,4.3431 206.887543,4.13199 C206.975863,4.14966 207.080918,4.14966 207.168773,4.16733 C206.940535,4.642095 206.676969,5.32797 206.412938,6.22449 L205.921133,6.25983 C205.885805,5.925495 205.797949,5.6265 205.639902,5.362845 L205.393535,5.380515 C200.823656,18.11082 198.784387,24.03678 194.56593,33.81294 C193.79243,36.30999 193.142113,37.698945 192.579652,37.99794 C192.597316,38.279265 192.773027,38.419695 193.071922,38.38482 C193.177441,39.615675 192.896211,40.82886 192.210566,42.024375 C190.259152,47.65134 188.95852,50.728245 188.290539,51.290895 L188.730281,53.946045 C188.74748,54.22737 188.607098,54.38547 188.308203,54.42081 L187.851262,54.45615 C187.78107,53.717265 187.517039,53.365725 187.042898,53.418735 L186.796531,53.43594 C186.198742,54.3678 185.741801,55.440555 185.443371,56.68908 L185.900313,56.65374 C186.515301,56.249655 186.796531,55.77489 186.744004,55.229445 L187.657887,55.14156 L188.18502,55.335 C187.763406,56.003205 187.570031,56.53098 187.605359,56.935065 L187.851262,57.357285 L187.253473,58.76391 L187.271137,58.99269 C187.798734,58.93968 188.378395,59.11545 188.993848,59.48466 C189.415461,59.449785 189.872867,59.256345 190.382336,58.92201 C190.909934,58.869465 192.878547,58.851795 196.270977,58.851795 L197.976023,58.271475 C200.050156,58.253805 200.383914,58.306815 202.176816,58.14825 L202.914988,58.078035 L203.301738,57.81438 L203.319402,58.04316 C205.20016,57.884595 205.323344,58.00782 206.799688,58.18359 L206.817352,58.41237 L205.780285,58.500255 L205.815613,58.93968 C206.131707,58.90434 206.412938,58.816455 206.641641,58.623015 C206.905207,58.60581 207.063254,58.74624 207.080918,59.062905 C206.659305,59.09778 206.184699,59.203335 205.657102,59.379105 L205.20016,59.221005 C204.479652,59.414445 204.637699,59.46699 204.14543,59.50233 L203.424922,59.3619 C203.442586,59.48466 203.372395,59.572545 203.249211,59.572545 C203.266875,59.85387 203.424922,59.994765 203.688488,59.977095 L204.42666,59.90688 L208.276496,59.572545 L209.735176,59.256345 C209.75284,59.379105 209.805367,59.449785 209.928551,59.432115 L210.631859,59.16846 L211.950156,59.062905 C212.969559,58.97502 212.951895,58.90434 215.166875,58.5528 C215.149211,58.41237 215.201738,58.35936 215.307258,58.34169 L215.324922,58.53513 C218.928391,57.919935 219.156629,57.884595 219.736754,57.691155 L219.789746,57.79671 C220.685965,57.5856 220.176496,57.63861 220.422398,57.46284 C220.440063,57.62094 220.49259,57.691155 220.580445,57.691155 L221.213563,57.63861 L221.178234,57.163845 L219.895266,57.146175 L219.877602,57.110835 C219.824609,57.128505 219.789746,57.128505 219.736754,57.146175 L219.561043,57.146175 L219.561043,57.181515 C218.699688,57.357285 218.682023,57.23406 218.119563,57.28707 L214.902844,57.46284 L214.885645,57.23406 L216.678547,56.988075 L217.328863,56.935065 L217.697949,56.67141 L217.715613,56.90019 C220.246688,56.68908 221.142906,57.321945 232.849531,54.82536 C233.482648,54.77235 233.429656,54.24504 233.83407,53.154615 C233.619727,53.169348 233.405803,53.1204992 233.219082,53.014185 C232.252207,53.383395 231.742273,53.207625 229.87918,53.50662 C229.721133,53.52429 229.597949,53.383395 229.544957,53.10207 L229.527293,52.90863 L231.320195,52.961175 C231.654418,52.9263 232.304734,52.87329 233.271609,52.32831 C233.271609,52.48641 232.902523,52.574295 233.113098,52.55709 L233.113563,52.55709 L233.113563,52.55709 Z M146.561516,53.946045 L145.735488,54.01626 C145.70016,53.68239 146.139902,52.416195 147.053785,50.25348 L147.598582,50.200935 C147.616246,50.710575 147.282023,51.9591 146.561516,53.946045 L146.561516,53.946045 Z M147.563719,49.936815 L147.546055,49.7085 C147.528391,49.427175 147.704102,49.233735 148.090852,49.14585 L148.108516,49.374165 C148.12618,49.7085 147.950004,49.90194 147.563719,49.936815 L147.563719,49.936815 Z M158.549371,58.429575 L158.567035,58.658355 L157.196211,58.78158 L157.178547,58.5528 L158.549371,58.429575 L158.549371,58.429575 Z M156.897316,58.289145 C156.91498,58.57047 156.492902,58.887135 155.57902,59.203335 L153.891172,59.080575 L153.346375,59.13312 L153.293848,58.623015 L156.897316,58.289145 L156.897316,58.289145 Z M168.006152,7.13868 L167.180125,7.20936 L167.162461,6.928035 C167.144797,6.64671 167.303309,6.45327 167.65473,6.365385 L167.953625,6.347715 L168.516086,6.57603 C168.533285,6.910365 168.375238,7.103805 168.006152,7.13868 L168.006152,7.13868 Z M180.574133,4.67697 L180.837699,4.659765 L180.873027,5.169405 L180.117191,5.23962 C180.099527,4.958295 180.23991,4.76532 180.574133,4.67697 L180.574133,4.67697 Z M177.409941,5.785065 L176.162301,5.64417 L176.144637,5.415855 C177.779492,5.27496 178.324289,5.09919 179.326027,4.817865 C179.343691,5.011305 179.519402,5.08152 179.835961,5.046645 L179.870824,5.556285 L179.37902,5.609295 C178.99227,5.64417 178.658047,5.591625 178.376816,5.43306 C178.077922,5.6265 177.761828,5.749725 177.409941,5.785065 L177.409941,5.785065 Z M178.974605,10.339275 L178.956941,10.110495 L180.978547,9.917055 L180.996211,10.145835 L178.974605,10.339275 L178.974605,10.339275 Z M181.136594,8.580645 L181.11893,8.29932 L182.103469,8.211435 L182.121133,8.49276 L181.136594,8.580645 L181.136594,8.580645 Z M181.365297,5.13453 L181.101266,5.151735 L181.329969,4.606755 L183.579812,4.395645 L183.597477,4.67697 C183.017352,4.72998 182.261516,4.88808 181.365297,5.13453 L181.365297,5.13453 Z M182.507883,9.98727 L182.472555,9.47763 L183.457094,9.389745 C183.790852,9.354405 183.966562,9.512505 183.984227,9.86451 L182.507883,9.98727 L182.507883,9.98727 Z M188.46625,1.86372 L187.200945,2.215725 L186.972242,2.23293 C186.374918,2.28594 185.601418,2.26827 184.68707,2.180385 C186.321926,2.07483 187.88659,1.951605 188.46625,1.86372 L188.46625,1.86372 Z M187.11309,7.490685 L187.130754,7.719 L185.390379,7.877565 L185.372715,7.648785 L187.11309,7.490685 L187.11309,7.490685 Z M189.960723,8.8443 C189.943059,8.633655 189.608836,8.49276 188.923656,8.422545 L187.183281,8.91498 L185.84732,8.967525 C185.548426,8.756415 185.390379,8.615985 185.372715,8.51043 L186.919715,8.598315 L190.4,8.035665 L192.175238,8.10588 L192.192902,8.387205 C191.313883,8.47509 190.575711,8.633655 189.960723,8.8443 L189.960723,8.8443 Z M207.872082,4.219875 C208.083121,4.237545 208.223504,4.237545 208.276496,4.237545 C208.891484,3.639555 209.577129,3.16479 210.368293,2.83092 C209.735176,5.609295 208.751102,7.666455 207.397477,9.002865 L206.412937,8.404875 C207.23943,6.312375 207.731699,4.92342 207.872082,4.219875 L207.872082,4.219875 Z M204.848738,9.40695 L205.094641,9.389745 C204.760883,10.02261 204.461988,10.35648 204.216086,10.37415 L204.163094,9.705945 C204.321605,9.705945 204.549844,9.60039 204.848738,9.40695 L204.848738,9.40695 Z M202.897789,14.066715 C203.372395,12.167655 203.829336,11.095365 204.250949,10.81404 L204.268613,11.042355 C204.022711,12.80052 203.635961,13.732845 203.126027,13.80306 L203.213883,14.91069 C202.79227,15.50868 202.598895,15.965775 202.616094,16.317315 L202.370191,16.334985 L202.229809,14.805135 C202.511039,14.77026 202.739277,14.52381 202.897789,14.066715 L202.897789,14.066715 Z M202.141953,16.59864 C202.159152,16.862295 201.983441,17.477955 201.63202,18.427485 L201.386117,18.445155 L201.333125,17.77695 C201.667348,17.00319 201.948578,16.61631 202.141488,16.59864 L202.141953,16.59864 L202.141953,16.59864 Z M187.956781,57.77904 L187.939117,57.5856 L188.396059,57.550725 L188.449051,58.21893 C188.202684,58.2366 188.026973,58.095705 187.956781,57.77904 L187.956781,57.77904 Z M208.223504,58.306815 C208.20584,58.14825 208.135648,58.078035 207.977602,58.095705 L206.835016,58.20126 L206.817352,57.97248 L206.922871,57.97248 L209.629656,57.744165 L209.64732,57.97248 C208.856621,58.00782 208.382016,58.131045 208.223504,58.306815 L208.223504,58.306815 Z M206.870344,57.744165 C206.975863,57.79671 206.922871,57.84972 206.870344,57.884595 C206.817352,57.866925 206.74716,57.81438 206.870344,57.744165 L206.870344,57.744165 Z M207.010727,54.57891 L205.499055,54.702135 L205.481391,54.473355 L206.85268,54.350595 L208.047793,54.0516 C208.065457,54.19203 208.135648,54.24504 208.29416,54.22737 C209.717977,53.981385 209.577129,53.910705 210.262773,53.85816 C210.491012,53.84049 210.631859,53.981385 210.649523,54.26271 L207.010727,54.57891 L207.010727,54.57891 Z M212.301578,54.121815 C211.457887,54.03393 211.405359,53.963715 210.80757,54.01626 L210.789906,53.82282 L212.143531,53.70006 L212.161195,53.8935 C212.020348,53.910705 212.530281,53.946045 212.301578,54.121815 L212.301578,54.121815 Z M212.407098,53.87583 L212.389434,53.68239 L213.127605,53.61171 L213.14527,53.80515 L212.407098,53.87583 L212.407098,53.87583 Z M214.041953,53.734935 L214.024289,53.541495 C214.147473,53.52429 214.323184,53.43594 214.551422,53.26017 C214.920508,53.225295 215.113883,53.47128 215.149211,53.752605 L214.041953,53.734935 L214.041953,53.734935 Z M216.13375,53.47128 L216.116086,53.2425 L217.012305,53.172285 L217.029969,53.401065 L216.13375,53.47128 L216.13375,53.47128 Z M217.381391,53.365725 C217.364191,53.10207 217.469246,52.94397 217.697949,52.90863 L217.996844,53.29551 C217.97918,53.172285 218.031707,53.10207 218.137227,53.0844 L218.36593,53.50662 L217.381391,53.365725 L217.381391,53.365725 Z M234.677762,51.326235 L234.695426,51.308565 L234.695426,51.290895 C234.695426,51.290895 234.677762,51.308565 234.677762,51.326235 L234.677762,51.326235 Z M234.99432,51.097455 C235.134703,51.00957 235.205359,50.921685 234.871137,50.86914 C234.71309,51.04491 235.046848,51.097455 234.695426,51.115125 L234.71309,51.273225 C234.747953,51.23835 234.836273,51.18534 234.906465,51.132795 L234.71309,51.290895 L234.71309,51.308565 L234.344004,51.78333 L235.082176,51.519675 L235.170031,51.519675 L235.134703,51.079785 L234.99432,51.097455 L234.99432,51.097455 Z M236.277289,52.099995 L236.136906,52.1172 L236.17177,52.55709 L237.208836,52.469205 C237.191637,52.18788 236.505992,52.099995 236.277289,52.099995 L236.277289,52.099995 Z" id="Shape" fill="#F9DC3E"></path>
                </g>
            </g>
        </g>
    </g>
</svg>