<?xml version="1.0" encoding="UTF-8"?>
<svg width="199px" height="136px" viewBox="0 0 199 136" version="1.1" xmlns="http://www.w3.org/2000/svg" xmlns:xlink="http://www.w3.org/1999/xlink">
    <!-- Generator: Sketch 39.1 (31720) - http://www.bohemiancoding.com/sketch -->
    <title>0c2ffb7cd91efbbfe9c66f8a60db1279</title>
    <desc>Created with Sketch.</desc>
    <defs>
        <linearGradient x1="45.1007417%" y1="26.5012416%" x2="69.7797998%" y2="122.390777%" id="linearGradient-1">
            <stop stop-color="#EAEFF3" offset="0%"></stop>
            <stop stop-color="#FFFFFF" offset="100%"></stop>
        </linearGradient>
    </defs>
    <g id="Page-1" stroke="none" stroke-width="1" fill="none" fill-rule="evenodd">
        <g id="Artboard" transform="translate(-923.000000, -3303.000000)">
            <g id="service-1" transform="translate(885.000000, 3303.000000)">
                <g id="0c2ffb7cd91efbbfe9c66f8a60db1279" transform="translate(38.000000, 0.000000)">
                    <g id="Created-with-Sketch.">
                        <g id="Group-27">
                            <g id="Group-16" transform="translate(0.000000, 0.316827)">
                                <path d="M26.912083,49.4459326 L12.9603675,57.4078805 C8.55322761,59.9229417 8.54108569,64.0271804 12.9295457,66.5728065 L128.242272,133.462581 C132.632389,136.009169 139.768602,136.042696 144.185759,133.53502 L189.589099,107.758967 C194.004327,105.252387 194.395928,100.605778 190.47303,97.3880765 L175.821839,85.3706478" id="Path-14" fill="#ECF3F8"></path>
                                <path d="M0,34.7666714 L4.11200204e-14,38.2703549 C6.27899125e-14,40.1167655 1.29686369,42.3681286 2.88356473,43.2913157 L129.329726,116.861229 C133.317853,119.181633 139.768344,119.152642 143.741188,116.79417 L195.955188,85.7974187 C197.545297,84.8534528 198.593212,82.6087593 198.296272,80.7868223 L197.68412,77.0308366" id="Path-13" fill="#C4CDD6"></path>
                                <path d="M67.1549565,1.33536209 C64.3552629,-0.275123017 59.8150984,-0.277303312 57.0053201,1.33559842 L3.10453772,32.2763549 C0.298741986,33.8869706 0.294080486,36.5018218 3.09876407,38.1194636 L132.061422,112.500542 C134.864029,114.116987 139.402072,114.124717 142.213939,112.508314 L195.540311,81.8536407 C198.741582,80.0133894 198.740451,77.0281006 195.541568,75.1879869 L67.1549565,1.33536209 L67.1549565,1.33536209 Z" id="Path-12" fill="#082C7A"></path>
                                <polygon id="Path-11" fill="url(#linearGradient-1)" points="75.64919 9.27111237 17.0350195 42.6662081 120.068932 102.231461 178.836434 68.3357307"></polygon>
                                <ellipse id="Oval-3" fill="#06215D" cx="159.122568" cy="90.3933451" rx="6.58171206" ry="3.86296349"></ellipse>
                                <rect id="Rectangle-9" fill="#07225D" transform="translate(37.739017, 21.904828) rotate(-32.000000) translate(-37.739017, -21.904828) " x="31.1573044" y="21.1322349" width="13.1634242" height="1.54518539" rx="0.772592696"></rect>
                                <ellipse id="Oval-4" fill="#399CB6" cx="29.4241245" cy="27.0407444" rx="0.774319066" ry="0.772592697"></ellipse>
                            </g>
                            <polygon id="Path-11" fill="#04C9E3" opacity="0.720557369" points="82.5021974 16.7073171 30.1008403 46.5626972 66.0267506 67.9982771 118.565187 37.6953277"></polygon>
                            <path d="M31.9633844,40.1083967 C30.3676237,39.1796926 27.7884694,39.1838885 26.1915851,40.1243035 L26.2911652,40.0656602 C24.6992491,41.0031493 24.6955456,42.530917 26.2789299,43.4756603 L26.1474815,43.3972302 C27.7326402,44.3430322 30.3080562,44.3368408 31.8859847,43.3916968 L31.8360049,43.4216337 C33.420134,42.4727758 33.4126151,40.9518229 31.814944,40.022007 L31.9633844,40.1083967 L31.9633844,40.1083967 Z" id="Path-11" fill="#07225D" opacity="0.148204291"></path>
                            <path d="M77.1800836,14.2499104 C75.5483993,13.3002996 72.9111833,13.3045899 71.2783502,14.2661753 L71.380172,14.2062118 C69.7524189,15.1648056 69.748632,16.7269662 71.3676613,17.6929774 L71.2332538,17.6127818 C72.8540973,18.5798755 75.4874907,18.5735447 77.1009414,17.6071239 L77.0498365,17.6377346 C78.6696273,16.6675161 78.6619392,15.1123237 77.0283014,14.161576 L77.1800836,14.2499104 L77.1800836,14.2499104 Z" id="Path-11" fill="#07225D" opacity="0.148204291"></path>
                            <polygon id="Path-11" fill="#39D3D7" opacity="0.720557369" points="121.800517 40.097561 69.3991597 69.9529411 105.325069 91.3885207 157.863506 61.0855716"></polygon>
                            <polygon id="Path-11" stroke="#061D4E" stroke-width="0.5" fill="#061C4D" points="166.714401 61.7217966 107.927337 95.4252716 120.211731 102.609603 178.841831 68.6622906"></polygon>
                        </g>
                    </g>
                </g>
            </g>
        </g>
    </g>
</svg>