<?xml version="1.0" encoding="UTF-8"?>
<svg width="227px" height="230px" viewBox="0 0 227 230" version="1.1" xmlns="http://www.w3.org/2000/svg" xmlns:xlink="http://www.w3.org/1999/xlink">
    <!-- Generator: Sketch 39.1 (31720) - http://www.bohemiancoding.com/sketch -->
    <title>docker</title>
    <desc>Created with Sketch.</desc>
    <defs></defs>
    <g id="Page-1" stroke="none" stroke-width="1" fill="none" fill-rule="evenodd">
        <g id="docker" transform="translate(99.872831, 100.013820) rotate(-34.000000) translate(-99.872831, -100.013820) translate(-10.127169, 7.513820)">
            <g id="Group" transform="translate(0.000000, 0.000000)">
                <path d="M33.1383272,149.300534 L33.1383272,135.259844 C33.1383272,133.414869 34.2916511,131.932882 36.201844,131.932882 L36.7304508,131.932882 C38.6397855,131.932882 39.7879607,133.416585 39.7879607,135.259844 L39.7879607,164.819778 C39.7879607,172.028053 36.2267297,177.76378 30.0207483,181.417689 C27.1779009,183.101962 23.9328529,183.986975 20.6285379,183.979201 L19.3095952,183.979201 C12.0996041,183.979201 6.37160005,180.415395 2.71168433,174.213705 C1.02503284,171.371279 0.140124403,168.124934 0.15103052,164.819778 L0.15103052,163.502551 C0.15103052,156.291702 3.71397778,150.559408 9.91481037,146.898634 C12.7571303,145.210895 16.0039768,144.325634 19.3095952,144.337122 L20.6285379,144.337122 C25.5078534,144.337122 29.6474627,146.228436 33.1383272,149.300534 L33.1383272,149.300534 Z M6.7998059,164.159877 C6.7998059,169.366998 9.32356021,173.281778 13.8862265,175.77893 C15.7312016,176.788088 17.7340723,177.330425 19.8390601,177.330425 C24.9500702,177.330425 28.7412795,174.919086 31.3559954,170.588114 C32.5719627,168.57323 33.1383272,166.368699 33.1383272,164.025151 C33.1383272,159.511398 31.0015886,155.988783 27.3639842,153.372351 C25.1585953,151.78653 22.6760312,150.991046 19.9686375,150.991046 C14.3976708,150.991046 10.388497,153.805706 7.98230622,158.805159 C7.17051718,160.495671 6.7998059,162.290017 6.7998059,164.159877 L6.7998059,164.159877 Z M62.8561563,144.337122 L63.7777857,144.337122 C71.4820585,144.337122 77.3413562,148.074269 81.0544758,154.799418 C82.5390372,157.489649 83.3336637,160.426163 83.3336637,163.502551 L83.3336637,164.819778 C83.3336637,172.028053 79.7792977,177.771503 73.5638769,181.418547 C70.6865739,183.106485 67.5080679,183.979201 64.1733827,183.979201 L62.8561563,183.979201 C55.6461653,183.979201 49.9164449,180.415395 46.2582454,174.213705 C44.5707722,171.371503 43.6849757,168.125164 43.6950172,164.819778 L43.6950172,163.502551 C43.6950172,156.290844 47.2725527,150.577428 53.457939,146.90035 C56.3335257,145.191817 59.5146061,144.337122 62.8561563,144.337122 L62.8561563,144.337122 Z M50.3446508,164.159877 C50.3446508,169.214251 52.8246405,172.93252 57.0938271,175.547235 C59.098414,176.774358 61.3063772,177.330425 63.6482084,177.330425 C68.6425131,177.330425 72.3341796,174.79809 74.9034146,170.582965 C76.1288214,168.57323 76.683172,166.365266 76.683172,164.025151 C76.683172,159.325185 74.4194305,155.734777 70.5492734,153.132933 C68.4288392,151.705866 66.0681292,150.991046 63.5143405,150.991046 C57.9433738,150.991046 53.9342,153.805706 51.5288673,158.805159 C50.715362,160.495671 50.3446508,162.290017 50.3446508,164.159877 L50.3446508,164.159877 Z M110.976539,151.522227 C109.97253,151.051973 108.093229,150.895794 107.008556,150.854604 C101.453035,150.64522 97.4335641,153.773955 95.0754284,158.674724 C94.261065,160.365236 93.8894956,162.154432 93.8894956,164.025151 C93.8894956,169.720547 96.8800715,173.708267 101.963622,176.139344 C103.82061,177.026648 106.21822,177.194841 108.247693,177.194841 C110.032599,177.194841 112.555495,176.101586 114.139599,175.349008 L114.4142,175.218572 L115.643897,175.218572 L115.779482,175.246032 C117.291503,175.560965 118.432813,176.519494 118.432813,178.146505 L118.432813,178.804689 C118.432813,182.853337 111.034034,183.780115 108.210793,183.977484 C98.2479275,184.666561 90.7968025,179.195137 87.9563989,169.692228 C87.4629754,168.042048 87.2407202,166.403024 87.2407202,164.683335 L87.2407202,163.367825 C87.2407202,156.156976 90.8191138,150.445276 97.003642,146.771631 C99.8792287,145.063956 103.059451,144.205828 106.400143,144.205828 L107.718228,144.205828 C111.262296,144.205828 114.526615,145.212412 117.452831,147.210992 L117.693107,147.377469 L117.844996,147.628042 C118.160787,148.1515 118.432813,148.757339 118.432813,149.38034 L118.432813,150.038524 C118.432813,151.735901 117.162784,152.648949 115.630167,152.944145 L115.503164,152.966456 L115.110142,152.966456 C114.118146,152.966456 111.862127,151.939277 110.976539,151.522227 L110.976539,151.522227 Z M132.544727,156.024824 C135.127693,153.438427 137.719239,150.857178 140.34082,148.313687 C141.071087,147.604015 143.836833,144.600567 144.925797,144.600567 L146.116879,144.600567 L146.252463,144.628885 C147.769634,144.943818 148.905795,145.904063 148.905795,147.534506 L148.905795,148.191832 C148.905795,149.303966 147.603157,150.596307 146.884904,151.357467 C145.357436,152.976754 143.749304,154.542837 142.185795,156.128658 L134.152001,164.284306 C137.611115,167.751143 141.066796,171.220554 144.497592,174.713993 C145.449147,175.678243 146.393401,176.649672 147.330272,177.628196 C147.660651,177.975737 148.148068,178.408234 148.425243,178.889644 C148.723014,179.341019 148.905795,179.849889 148.905795,180.393084 L148.905795,181.079586 L148.867179,181.23834 C148.493894,182.75551 147.531074,183.979201 145.850001,183.979201 L145.320536,183.979201 C144.220416,183.979201 142.977847,182.734915 142.224411,182.023527 C140.671199,180.559561 139.17205,179.020079 137.649731,177.524362 L132.544727,172.512895 L132.544727,180.522661 C132.544727,182.367636 131.389687,183.850481 129.482069,183.850481 L128.958611,183.850481 C127.048418,183.850481 125.895094,182.367636 125.895094,180.522661 L125.895094,135.388563 C125.895094,133.543588 127.049276,132.067608 128.958611,132.067608 L129.482069,132.067608 C131.389687,132.067608 132.544727,133.543588 132.544727,135.388563 L132.544727,156.024824 L132.544727,156.024824 Z M215.420151,144.600567 L216.080909,144.600567 C218.075199,144.600567 219.406155,145.944395 219.406155,147.927529 C219.406155,150.680404 216.774277,151.384927 214.497663,151.384927 C211.511378,151.384927 208.659819,153.193002 206.60117,155.220759 C204.034509,157.751378 202.91122,160.992527 202.91122,164.555474 L202.91122,180.653097 C202.91122,182.498072 201.758754,183.979201 199.847703,183.979201 L199.322528,183.979201 C197.411477,183.979201 196.25987,182.49893 196.25987,180.653097 L196.25987,163.631271 C196.25987,157.09491 199.441808,151.75907 204.746755,148.016774 C207.914106,145.781351 211.54227,144.601425 215.420151,144.601425 L215.420151,144.600567 Z M168.159612,176.502332 C170.579533,177.347588 173.338414,177.226592 175.820978,176.794095 C177.091008,176.254333 180.338164,174.837564 181.532678,175.045231 L181.718892,175.076981 L181.890517,175.161078 C182.619926,175.514627 183.315868,176.014915 183.688295,176.757196 C184.558437,178.496621 184.140529,180.245486 182.431138,181.233191 L181.862199,181.561854 C175.554959,185.202033 168.846114,184.697454 162.558611,181.297551 C159.552588,179.672256 157.252806,177.260059 155.556287,174.319254 L155.159831,173.631894 C151.110326,166.619272 151.656953,159.242804 156.22391,152.574292 C157.800291,150.26936 159.860656,148.488745 162.269422,147.096003 L163.180753,146.569971 C169.120715,143.140891 175.487166,143.376018 181.587598,146.385473 C184.868221,148.003902 187.525843,150.4161 189.357089,153.588599 L189.68661,154.160112 C191.016708,156.465044 189.293587,158.473063 187.514688,159.846068 C185.450032,161.438754 183.365639,163.355812 181.386796,165.063486 C176.974302,168.872716 172.568673,172.690527 168.159612,176.502332 L168.159612,176.502332 Z M162.44877,172.491442 C167.383006,168.260871 172.318958,164.026009 177.240322,159.777418 C178.922253,158.327182 180.76637,156.822025 182.43457,155.297132 C181.095891,153.610052 178.859609,152.394085 176.959714,151.668967 C173.123882,150.207575 169.342112,150.698424 165.824646,152.728755 C161.220789,155.387235 159.259967,159.620381 159.431592,164.888428 C159.500243,166.963381 160.058026,168.96282 161.159004,170.727989 C161.546878,171.350132 161.980232,171.934517 162.44877,172.491442 L162.44877,172.491442 Z M126.563576,39.2439076 L146.185529,39.2439076 L146.185529,59.3026485 L156.106347,59.3026485 C160.68875,59.3026485 165.40073,58.4865688 169.739425,57.0165956 C171.871873,56.2931937 174.264334,55.2874678 176.367606,54.021729 C173.597569,50.4055778 172.183374,45.839479 171.76804,41.3385979 C171.201675,35.2158549 172.43738,27.2472788 176.580421,22.4554923 L178.643361,20.0698966 L181.101039,22.0461652 C187.289,27.0173005 192.493546,33.9647044 193.410885,41.8843673 C200.86201,39.6927085 209.610624,40.2110178 216.177878,44.0013689 L218.872399,45.5562968 L217.454772,48.3246176 C211.90011,59.1644899 200.287064,62.5232027 188.934031,61.92852 C171.945672,104.241951 134.959499,124.27409 90.1145907,124.27409 C66.945136,124.27409 45.6893066,115.613005 33.5845537,95.0574078 L33.3863261,94.7227379 L31.6228732,91.1340468 C27.5313191,82.0859456 26.1720444,72.1737096 27.0936739,62.2691968 L27.3708492,59.3026485 L44.1506832,59.3026485 L44.1506832,39.2439076 L63.7717788,39.2439076 L63.7717788,19.6219538 L103.016545,19.6219538 L103.016545,0 L126.563576,0 L126.563576,39.2439076 L126.563576,39.2439076 Z" id="Shape" fill="#364548"></path>
                <path d="M190.135411,46.6649981 C191.450921,36.4395454 183.798994,28.4083259 179.053546,24.5948053 C173.584697,30.917492 172.73515,47.4879428 181.314713,54.4645231 C176.526359,58.7174052 166.437349,62.572116 156.106347,62.572116 L30.3519857,62.572116 C29.347976,73.3562099 31.2410063,83.2873247 35.565113,91.7870821 L36.9956123,94.4043724 C37.9013773,95.9405822 38.8911569,97.4256813 39.9604444,98.8529077 C45.1306653,99.1850032 49.8975661,99.2991342 54.2585723,99.2030239 L54.2602886,99.2030239 C62.8304125,99.0142357 69.8232972,98.0016448 75.1230954,96.1652509 C75.901979,95.9229723 76.7325736,96.3425514 76.9997463,97.1132507 C77.2669189,97.88395 76.8742365,98.7275935 76.1125169,99.0193845 C75.4071358,99.2648091 74.6725782,99.4930711 73.9139931,99.7101775 L73.9114187,99.7101775 C69.7383425,100.902117 65.2632052,101.703609 59.4897204,102.059732 C59.8329715,102.065739 59.1327391,102.11122 59.1310229,102.11122 C58.9345116,102.124091 58.6873707,102.15241 58.4900013,102.162707 C56.2176785,102.290568 53.7651488,102.31717 51.2576989,102.31717 C48.515122,102.31717 45.8145933,102.265683 42.794841,102.11122 L42.7176095,102.162707 C53.1953518,113.939655 69.5787307,121.002906 90.1154489,121.002906 C133.577913,121.002906 170.44309,101.736218 186.768116,58.4822781 C198.349411,59.6707854 209.480189,56.7171089 214.543144,46.8331912 C206.478457,42.1795633 196.107123,43.6632665 190.135411,46.6649981" id="Shape" fill="#22A0C8"></path>
                <path d="M190.135411,46.6649981 C191.450921,36.4395454 183.798994,28.4083259 179.053546,24.5948053 C173.584697,30.917492 172.73515,47.4879428 181.314713,54.4645231 C176.526359,58.7174052 166.437349,62.572116 156.106347,62.572116 L37.7988201,62.572116 C37.2856596,79.0876465 43.4144094,91.6240378 54.2577142,99.2030239 L54.2602886,99.2030239 C62.8304125,99.0142357 69.8232972,98.0016448 75.1230954,96.1652509 C75.901979,95.9229723 76.7325736,96.3425514 76.9997463,97.1132507 C77.2669189,97.88395 76.8742365,98.7275935 76.1125169,99.0193845 C75.4071358,99.2648091 74.6725782,99.4930711 73.9139931,99.7101775 L73.9114187,99.7101775 C69.7383425,100.902117 64.8787639,101.806584 59.105279,102.162707 C59.1035628,102.162707 58.9654042,102.029697 58.9636879,102.029697 C73.7552394,109.617265 95.2024314,109.589805 119.792088,100.14439 C147.363739,89.5516588 173.020907,69.3719219 190.922314,46.2908543 C190.652862,46.4127085 190.390275,46.537137 190.135411,46.6649981" id="Shape" fill="#37B1D9"></path>
                <path d="M30.5879709,75.6748717 C31.3688673,81.4517891 33.0593794,86.8605695 35.565113,91.7870821 L36.9956123,94.4043724 C37.9012236,95.9406786 38.8910088,97.4257861 39.9604444,98.8529077 C45.1315234,99.1850032 49.8984242,99.2991342 54.2602886,99.2030239 C62.8304125,99.0142357 69.8232972,98.0016448 75.1230954,96.1652509 C75.901979,95.9229723 76.7325736,96.3425514 76.9997463,97.1132507 C77.2669189,97.88395 76.8742365,98.7275935 76.1125169,99.0193845 C75.4071358,99.2648091 74.6725782,99.4930711 73.9139931,99.7101775 L73.9114187,99.7101775 C69.7383425,100.902117 64.9045077,101.755096 59.1310229,102.112078 C58.9327953,102.124091 58.5869697,102.126666 58.3870259,102.137821 C56.1164194,102.264824 53.6887754,102.342914 51.1804674,102.342914 C48.4387486,102.342914 45.6343864,102.290568 42.6163504,102.136963 C53.0940927,113.913911 69.5787307,121.002906 90.1154489,121.002906 C127.323877,121.002906 159.695896,106.879837 178.484607,75.6748717 L30.5879709,75.6748717" id="Shape" fill="#1B81A5"></path>
                <path d="M38.9306909,75.6748717 C41.1549585,85.8179441 46.5002375,93.7805134 54.2602886,99.2030239 C62.8304125,99.0142357 69.8232972,98.0016448 75.1230954,96.1652509 C75.901979,95.9229723 76.7325736,96.3425514 76.9997463,97.1132507 C77.2669189,97.88395 76.8742365,98.7275935 76.1125169,99.0193845 C75.4071358,99.2648091 74.6725782,99.4930711 73.9139931,99.7101775 L73.9114187,99.7101775 C69.7383425,100.902117 64.8023905,101.755096 59.0280475,102.112078 C73.8187409,109.697929 95.2041476,109.588947 119.792088,100.14439 C134.666878,94.4292581 148.983026,85.9217776 161.826628,75.6748717 L38.9306909,75.6748717" id="Shape" fill="#1D91B4"></path>
                <path d="M47.4201507,42.5142332 L64.4265305,42.5142332 L64.4265305,59.520613 L47.4201507,59.520613 L47.4201507,42.5142332 L47.4201507,42.5142332 Z M48.8369199,43.9318606 L50.1790321,43.9318606 L50.1790321,58.1038437 L48.8369199,58.1038437 L48.8369199,43.9318606 L48.8369199,43.9318606 Z M51.3598161,43.9318606 L52.7559903,43.9318606 L52.7559903,58.1038437 L51.3606743,58.1038437 L51.3606743,43.9318606 L51.3598161,43.9318606 Z M53.9359162,43.9318606 L55.3320904,43.9318606 L55.3320904,58.1038437 L53.9359162,58.1038437 L53.9359162,43.9318606 L53.9359162,43.9318606 Z M56.5137326,43.9318606 L57.9090487,43.9318606 L57.9090487,58.1038437 L56.5137326,58.1038437 L56.5137326,43.9318606 L56.5137326,43.9318606 Z M59.0906909,43.9318606 L60.4860069,43.9318606 L60.4860069,58.1038437 L59.0906909,58.1038437 L59.0906909,43.9318606 L59.0906909,43.9318606 Z M61.666791,43.9318606 L63.0097612,43.9318606 L63.0097612,58.1038437 L61.666791,58.1038437 L61.666791,43.9318606 L61.666791,43.9318606 Z M67.0421045,22.8922794 L84.0493424,22.8922794 L84.0493424,39.8978011 L67.0412463,39.8978011 L67.0412463,22.8922794 L67.0421045,22.8922794 Z M68.4597318,24.3099068 L69.8009858,24.3099068 L69.8009858,38.4810318 L68.4597318,38.4810318 L68.4597318,24.3099068 L68.4597318,24.3099068 Z M70.982628,24.3099068 L72.3779441,24.3099068 L72.3779441,38.4810318 L70.9834862,38.4810318 L70.9834862,24.3099068 L70.982628,24.3099068 Z M73.5587281,24.3099068 L74.9540442,24.3099068 L74.9540442,38.4810318 L73.5587281,38.4810318 L73.5587281,24.3099068 L73.5587281,24.3099068 Z M76.1356864,24.3099068 L77.5310024,24.3099068 L77.5310024,38.4810318 L76.1356864,38.4810318 L76.1356864,24.3099068 L76.1356864,24.3099068 Z M78.7126446,24.3099068 L80.1088188,24.3099068 L80.1088188,38.4810318 L78.7126446,38.4810318 L78.7126446,24.3099068 L78.7126446,24.3099068 Z M81.2887447,24.3099068 L82.6325731,24.3099068 L82.6325731,38.4810318 L81.2887447,38.4810318 L81.2887447,24.3099068 L81.2887447,24.3099068 Z" id="Shape" fill="#23A3C2"></path>
                <path d="M67.0421045,42.5142332 L84.0493424,42.5142332 L84.0493424,59.520613 L67.0412463,59.520613 L67.0412463,42.5142332 L67.0421045,42.5142332 Z M68.4597318,43.9318606 L69.8009858,43.9318606 L69.8009858,58.1038437 L68.4597318,58.1038437 L68.4597318,43.9318606 L68.4597318,43.9318606 Z M70.982628,43.9318606 L72.3779441,43.9318606 L72.3779441,58.1038437 L70.9834862,58.1038437 L70.9834862,43.9318606 L70.982628,43.9318606 Z M73.5587281,43.9318606 L74.9540442,43.9318606 L74.9540442,58.1038437 L73.5587281,58.1038437 L73.5587281,43.9318606 L73.5587281,43.9318606 Z M76.1356864,43.9318606 L77.5310024,43.9318606 L77.5310024,58.1038437 L76.1356864,58.1038437 L76.1356864,43.9318606 L76.1356864,43.9318606 Z M78.7126446,43.9318606 L80.1088188,43.9318606 L80.1088188,58.1038437 L78.7126446,58.1038437 L78.7126446,43.9318606 L78.7126446,43.9318606 Z M81.2887447,43.9318606 L82.6325731,43.9318606 L82.6325731,58.1038437 L81.2887447,58.1038437 L81.2887447,43.9318606 L81.2887447,43.9318606 Z" id="Shape" fill="#34BBDE"></path>
                <path d="M86.6649164,42.5142332 L103.671296,42.5142332 L103.671296,59.520613 L86.6649164,59.520613 L86.6649164,42.5142332 L86.6649164,42.5142332 Z M88.0816856,43.9318606 L89.4229396,43.9318606 L89.4229396,58.1038437 L88.0816856,58.1038437 L88.0816856,43.9318606 L88.0816856,43.9318606 Z M90.6045818,43.9318606 L91.9998979,43.9318606 L91.9998979,58.1038437 L90.6045818,58.1038437 L90.6045818,43.9318606 L90.6045818,43.9318606 Z M93.18154,43.9318606 L94.5768561,43.9318606 L94.5768561,58.1038437 L93.18154,58.1038437 L93.18154,43.9318606 L93.18154,43.9318606 Z M95.7584983,43.9318606 L97.1538143,43.9318606 L97.1538143,58.1038437 L95.7584983,58.1038437 L95.7584983,43.9318606 L95.7584983,43.9318606 Z M98.3345984,43.9318606 L99.7316307,43.9318606 L99.7316307,58.1038437 L98.3345984,58.1038437 L98.3345984,43.9318606 L98.3345984,43.9318606 Z M100.911557,43.9318606 L102.253669,43.9318606 L102.253669,58.1038437 L100.911557,58.1038437 L100.911557,43.9318606 L100.911557,43.9318606 Z" id="Shape" fill="#23A3C2"></path>
                <path d="M86.6649164,22.8922794 L103.671296,22.8922794 L103.671296,39.8978011 L86.6649164,39.8978011 L86.6649164,22.8922794 L86.6649164,22.8922794 Z M88.0816856,24.3099068 L89.4229396,24.3099068 L89.4229396,38.4810318 L88.0816856,38.4810318 L88.0816856,24.3099068 L88.0816856,24.3099068 Z M90.6045818,24.3099068 L91.9998979,24.3099068 L91.9998979,38.4810318 L90.6045818,38.4810318 L90.6045818,24.3099068 L90.6045818,24.3099068 Z M93.18154,24.3099068 L94.5768561,24.3099068 L94.5768561,38.4810318 L93.18154,38.4810318 L93.18154,24.3099068 L93.18154,24.3099068 Z M95.7584983,24.3099068 L97.1538143,24.3099068 L97.1538143,38.4810318 L95.7584983,38.4810318 L95.7584983,24.3099068 L95.7584983,24.3099068 Z M98.3345984,24.3099068 L99.7316307,24.3099068 L99.7316307,38.4810318 L98.3345984,38.4810318 L98.3345984,24.3099068 L98.3345984,24.3099068 Z M100.911557,24.3099068 L102.253669,24.3099068 L102.253669,38.4810318 L100.911557,38.4810318 L100.911557,24.3099068 L100.911557,24.3099068 Z M106.28687,42.5142332 L123.29325,42.5142332 L123.29325,59.520613 L106.28687,59.520613 L106.28687,42.5142332 L106.28687,42.5142332 Z M107.704498,43.9318606 L109.045752,43.9318606 L109.045752,58.1038437 L107.704498,58.1038437 L107.704498,43.9318606 L107.704498,43.9318606 Z M110.227394,43.9318606 L111.62271,43.9318606 L111.62271,58.1038437 L110.227394,58.1038437 L110.227394,43.9318606 L110.227394,43.9318606 Z M112.803494,43.9318606 L114.19881,43.9318606 L114.19881,58.1038437 L112.803494,58.1038437 L112.803494,43.9318606 L112.803494,43.9318606 Z M115.380452,43.9318606 L116.776626,43.9318606 L116.776626,58.1038437 L115.380452,58.1038437 L115.380452,43.9318606 L115.380452,43.9318606 Z M117.95741,43.9318606 L119.353584,43.9318606 L119.353584,58.1038437 L117.95741,58.1038437 L117.95741,43.9318606 L117.95741,43.9318606 Z M120.534369,43.9318606 L121.876481,43.9318606 L121.876481,58.1038437 L120.534369,58.1038437 L120.534369,43.9318606 L120.534369,43.9318606 Z" id="Shape" fill="#34BBDE"></path>
                <path d="M106.28687,22.8922794 L123.29325,22.8922794 L123.29325,39.8978011 L106.28687,39.8978011 L106.28687,22.8922794 L106.28687,22.8922794 Z M107.704498,24.3099068 L109.045752,24.3099068 L109.045752,38.4810318 L107.704498,38.4810318 L107.704498,24.3099068 L107.704498,24.3099068 Z M110.227394,24.3099068 L111.62271,24.3099068 L111.62271,38.4810318 L110.227394,38.4810318 L110.227394,24.3099068 L110.227394,24.3099068 Z M112.803494,24.3099068 L114.19881,24.3099068 L114.19881,38.4810318 L112.803494,38.4810318 L112.803494,24.3099068 L112.803494,24.3099068 Z M115.380452,24.3099068 L116.776626,24.3099068 L116.776626,38.4810318 L115.380452,38.4810318 L115.380452,24.3099068 L115.380452,24.3099068 Z M117.95741,24.3099068 L119.353584,24.3099068 L119.353584,38.4810318 L117.95741,38.4810318 L117.95741,24.3099068 L117.95741,24.3099068 Z M120.534369,24.3099068 L121.876481,24.3099068 L121.876481,38.4810318 L120.534369,38.4810318 L120.534369,24.3099068 L120.534369,24.3099068 Z" id="Shape" fill="#23A3C2"></path>
                <path d="M106.28687,3.2694675 L123.29325,3.2694675 L123.29325,20.2775635 L106.28687,20.2775635 L106.28687,3.2694675 L106.28687,3.2694675 Z M107.704498,4.68623675 L109.045752,4.68623675 L109.045752,18.859078 L107.704498,18.859078 L107.704498,4.68537862 L107.704498,4.68623675 Z M110.227394,4.68623675 L111.62271,4.68623675 L111.62271,18.859078 L110.227394,18.859078 L110.227394,4.68537862 L110.227394,4.68623675 Z M112.803494,4.68623675 L114.19881,4.68623675 L114.19881,18.859078 L112.803494,18.859078 L112.803494,4.68537862 L112.803494,4.68623675 Z M115.380452,4.68623675 L116.776626,4.68623675 L116.776626,18.859078 L115.380452,18.859078 L115.380452,4.68537862 L115.380452,4.68623675 Z M117.95741,4.68623675 L119.353584,4.68623675 L119.353584,18.859078 L117.95741,18.859078 L117.95741,4.68537862 L117.95741,4.68623675 Z M120.534369,4.68623675 L121.876481,4.68623675 L121.876481,18.859078 L120.534369,18.859078 L120.534369,4.68537862 L120.534369,4.68623675 Z" id="Shape" fill="#34BBDE"></path>
                <path d="M125.908824,42.5142332 L142.915204,42.5142332 L142.915204,59.520613 L125.908824,59.520613 L125.908824,42.5142332 L125.908824,42.5142332 Z M127.324735,43.9318606 L128.667705,43.9318606 L128.667705,58.1038437 L127.325593,58.1038437 L127.325593,43.9318606 L127.324735,43.9318606 Z M129.847631,43.9318606 L131.243805,43.9318606 L131.243805,58.1038437 L129.848489,58.1038437 L129.848489,43.9318606 L129.847631,43.9318606 Z M132.425448,43.9318606 L133.821622,43.9318606 L133.821622,58.1038437 L132.425448,58.1038437 L132.425448,43.9318606 L132.425448,43.9318606 Z M135.001548,43.9318606 L136.397722,43.9318606 L136.397722,58.1038437 L135.001548,58.1038437 L135.001548,43.9318606 L135.001548,43.9318606 Z M137.579364,43.9318606 L138.97468,43.9318606 L138.97468,58.1038437 L137.579364,58.1038437 L137.579364,43.9318606 L137.579364,43.9318606 Z M140.155464,43.9318606 L141.497576,43.9318606 L141.497576,58.1038437 L140.155464,58.1038437 L140.155464,43.9318606 L140.155464,43.9318606 Z" id="Shape" fill="#23A3C2"></path>
                <path d="M82.9844056,87.0931222 C84.6757537,87.0705594 86.2483374,87.9600658 87.1004136,89.4212754 C87.9524899,90.8824851 87.9521595,92.6892061 87.0995487,94.150104 C86.246938,95.6110018 84.6740291,96.4999329 82.9826893,96.4767514 C80.4162199,96.4415753 78.3542822,94.3508007 78.3547517,91.7840902 C78.3552211,89.2173798 80.4179234,87.1273595 82.9844056,87.0931222" id="Shape" fill="#D3ECEC"></path>
                <path d="M82.9844056,88.4240787 C83.4134696,88.4240787 83.8227966,88.5047427 84.2003729,88.6514826 C83.6647257,88.9624384 83.4040088,89.5938494 83.5642204,90.1921333 C83.724432,90.7904172 84.2657975,91.2070424 84.885159,91.2087039 C85.4043264,91.2087039 85.8548436,90.921231 86.0882544,90.4955996 C86.6556631,91.8624573 86.2618001,93.4396194 85.1183976,94.379238 C83.9749951,95.3188567 82.3514031,95.3995871 81.1204291,94.5780302 C79.8894552,93.7564734 79.3410784,92.2261625 79.7700942,90.8097593 C80.1991099,89.3933561 81.5044554,88.4245211 82.9844056,88.4240787 M0,77.3705325 L218.245108,77.3705325 C213.493653,76.1657209 203.210706,74.536994 204.906367,68.3087013 C196.265019,78.3076082 175.427097,75.3238973 170.167631,70.3939523 C164.311766,78.8877027 130.218343,75.6585672 127.84047,69.0415426 C120.498327,77.6580054 97.748497,77.6580054 90.4063542,69.0415426 C88.0267654,75.6585672 53.9342,78.8877027 48.0774767,70.3930941 C42.8188686,75.3238973 21.9818056,78.3076082 13.3404572,68.3095595 C15.036118,74.536994 4.75317073,76.1657209 0,77.3713906" id="Shape" fill="#364548"></path>
                <path d="M95.4555791,120.901647 C83.8365266,115.388175 77.4597778,107.892428 73.9114187,99.7110356 C69.5950351,100.942449 64.4076517,101.730211 58.3793028,102.068313 C56.1086962,102.195316 53.719668,102.260534 51.2139344,102.260534 C48.3237594,102.260534 45.2782633,102.174721 42.0808786,102.00567 C52.7362534,112.655038 65.8441578,120.853592 90.1154489,121.002906 C91.90722,121.002906 93.6852612,120.968581 95.4555791,120.901647" id="Shape" fill="#BDD9D7"></path>
                <path d="M78.2269442,107.260845 C76.6196706,105.078626 75.0604521,102.336049 73.9139931,99.7093194 C69.5976095,100.942449 64.4085098,101.730211 58.3793028,102.069171 C62.5206283,104.316608 68.4425693,106.399285 78.2278023,107.260845" id="Shape" fill="#D3ECEC"></path>
            </g>
        </g>
    </g>
</svg>