<?xml version="1.0" encoding="UTF-8" standalone="no"?>
<svg width="92px" height="149px" viewBox="0 0 92 149" version="1.1" xmlns="http://www.w3.org/2000/svg" xmlns:xlink="http://www.w3.org/1999/xlink">
    <!-- Generator: Sketch 39.1 (31720) - http://www.bohemiancoding.com/sketch -->
    <title>Group 3</title>
    <desc>Created with Sketch.</desc>
    <defs></defs>
    <g id="Page-1" stroke="none" stroke-width="1" fill="none" fill-rule="evenodd">
        <g id="Artboard" transform="translate(-425.000000, -573.000000)">
            <g id="Group-3" transform="translate(425.000000, 573.000000)">
                <g id="graphql" fill="#E535AB">
                    <path d="M54.6186459,11.7888507 L75.7915331,24.0022188 C76.4028035,23.3560518 77.1042803,22.8014709 77.8742412,22.3556493 C82.2651829,19.8335799 87.8660856,21.3310139 90.4166693,25.7181701 C92.9411206,30.1053264 91.4422724,35.7005868 87.0509728,38.2487639 C86.2867454,38.6884476 85.4632052,39.0160594 84.6056342,39.2215417 L84.6056342,63.6572188 C85.4538381,63.8630463 86.2684064,64.1884217 87.0248405,64.623559 C91.4422724,67.1717361 92.9411206,72.7673542 90.390537,77.1545104 C87.8660856,81.541309 82.2390506,83.0387431 77.847751,80.5170313 C76.9970311,80.0294199 76.2306543,79.4078395 75.578179,78.6762639 L54.5341634,90.8145278 C54.8423551,91.746808 54.9988698,92.7224414 54.9977432,93.70425 C54.9977432,98.7480313 50.8960467,102.872681 45.8210117,102.872681 C40.7459767,102.872681 36.6442802,98.7741389 36.6442802,93.70425 C36.6442802,92.803 36.7738677,91.9325069 37.0155019,91.1102951 L15.8483424,78.9005035 C15.2437753,79.5338557 14.5521684,80.0781418 13.7942724,80.5170313 C9.37684047,83.0387431 3.77593774,81.541309 1.25148638,77.1545104 C-1.272607,72.7673542 0.226241245,67.1717361 4.61718288,64.623559 C5.3736184,64.1883411 6.18818117,63.8628475 7.03638911,63.6568611 L7.03638911,39.2215417 C6.17881818,39.0160594 5.35527798,38.6884476 4.59105058,38.2487639 C0.199750973,35.7270521 -1.29909728,30.1053264 1.22535409,25.7181701 C3.74980545,21.3310139 9.37648249,19.8335799 13.7677821,22.3556493 C14.5335269,22.7990912 15.231549,23.3501167 15.8404669,23.9918472 L37.0194397,11.7752604 C36.7697799,10.928692 36.6434304,10.0506203 36.6442802,9.16807292 C36.6442802,4.09854167 40.7459767,0 45.8210117,0 C50.8960467,0 54.9977432,4.09818403 54.9977432,9.16807292 C54.9977432,10.0793368 54.8652918,10.9587708 54.6186459,11.7888507 L54.6186459,11.7888507 Z M52.4127938,15.5519271 L73.6361556,27.7939063 C72.9533499,30.1784787 73.2681561,32.7377858 74.5085447,34.8862431 C75.8004825,37.1315 77.9050272,38.6199931 80.2408249,39.2000833 L80.2408249,63.6661597 C80.1216187,63.6951285 80.0031284,63.7269583 79.8853541,63.7605764 L52.1661479,15.7969097 C52.2499144,15.7167986 52.332249,15.6352569 52.4127938,15.5522847 L52.4127938,15.5519271 Z M39.4816031,15.8022743 L11.7627549,63.7652257 C11.6429006,63.730604 11.5223571,63.6984099 11.4011984,63.6686632 L11.4011984,39.2000833 C13.7369961,38.6199931 15.8415409,37.1315 17.1334786,34.8862431 C18.3763905,32.7335669 18.6899979,30.1685953 18.0022879,27.780316 L39.2195642,15.5419132 C39.3051206,15.63025 39.3924669,15.7171562 39.4816031,15.8019167 L39.4816031,15.8022743 Z M48.3851984,17.9749306 L76.0976031,65.9271528 C75.4628117,66.5322993 74.9186947,67.2257461 74.4820545,67.9860799 C74.0465062,68.7418002 73.7208235,69.5555999 73.5148016,70.4030035 L18.1279377,70.4030035 C17.9216442,69.555577 17.5957223,68.7417819 17.1599689,67.9860799 C16.7218068,67.2309883 16.1787241,66.5417578 15.5469261,65.9389549 L43.2647004,17.9770764 C44.0956929,18.2161292 44.9562562,18.3370073 45.8210117,18.3361458 C46.7112996,18.3361458 47.5715175,18.2102569 48.3851984,17.9749306 L48.3851984,17.9749306 Z M52.6075331,87.5278264 L73.6930739,75.3652431 C73.629868,75.1666892 73.5733949,74.9660585 73.523751,74.7636944 L18.1161245,74.7636944 C18.0867704,74.8827882 18.0549105,75.000809 18.0209027,75.1184722 L39.2095409,87.3407812 C40.9385488,85.5445991 43.3266552,84.5315578 45.8210117,84.5361771 C48.4044503,84.5316665 50.8694433,85.6182902 52.6075331,87.5278264 L52.6075331,87.5278264 Z" id="Shape"></path>
                </g>
                <ellipse id="Oval-2" fill="#E8EFF4" cx="46.5" cy="141.5" rx="27.5" ry="7.5"></ellipse>
            </g>
        </g>
    </g>
</svg>