<?xml version="1.0" encoding="UTF-8" standalone="no"?>
<svg width="91px" height="152px" viewBox="0 0 91 152" version="1.1" xmlns="http://www.w3.org/2000/svg" xmlns:xlink="http://www.w3.org/1999/xlink">
    <!-- Generator: Sketch 39.1 (31720) - http://www.bohemiancoding.com/sketch -->
    <title>Group 2</title>
    <desc>Created with Sketch.</desc>
    <defs></defs>
    <g id="Page-1" stroke="none" stroke-width="1" fill="none" fill-rule="evenodd">
        <g id="Artboard" transform="translate(-595.000000, -480.000000)">
            <g id="Group-2" transform="translate(595.000000, 480.000000)">
                <g id="nodejs-icon" fill="#8CC84B">
                    <g id="Group">
                        <path d="M41.4135312,1.26950355 C43.8883047,-0.143617021 47.1116953,-0.15 49.5843359,1.26950355 C62.0239648,8.28156028 74.4675039,15.2826241 86.905,22.2989362 C89.2443398,23.6134752 90.8091133,26.2106383 90.7852969,28.8996454 L90.7852969,71.0868794 C90.8027148,73.887234 89.0833125,76.5464539 86.615293,77.8312057 C74.216543,84.8046099 61.8241914,91.7865248 49.4275742,98.7599291 C46.9016133,100.200709 43.6135273,100.089716 41.1664805,98.5308511 C37.4493437,96.3812057 33.7258086,94.2421986 30.0083164,92.0946809 C29.2486797,91.6429078 28.3923555,91.2833333 27.8559531,90.5485816 C28.3301484,89.9109929 29.1779414,89.8315603 29.8668398,89.5531915 C31.4184609,89.0609929 32.8435352,88.270922 34.2689648,87.5042553 C34.6294102,87.258156 35.0694805,87.3524823 35.4149961,87.572695 C38.5935977,89.3907801 41.7441172,91.2617021 44.9333828,93.0624113 C45.61375,93.4542553 46.3026484,92.9340426 46.8841953,92.6106383 C59.0511797,85.7507092 71.2330937,78.9166667 83.3979453,72.0546099 C83.8486797,71.8382979 84.0978633,71.3609929 84.06125,70.8684397 C84.0697812,56.951773 84.0633828,43.0326241 84.0655156,29.1159574 C84.1170586,28.5570922 83.7928711,28.0432624 83.2863281,27.814539 C70.9305898,20.8730496 58.58125,13.920922 46.2276445,6.97765957 C45.7895409,6.6771961 45.21134,6.67635076 44.7723555,6.97553191 C32.41875,13.920922 20.071543,20.8794326 7.7179375,27.8205674 C7.21317187,28.0496454 6.87441016,28.5549645 6.93448437,29.1159574 C6.93661719,43.0326241 6.93448437,56.951773 6.93448437,70.8705674 C6.89061125,71.3627871 7.15870378,71.8301787 7.60632031,72.041844 C10.9029375,73.9067376 14.2038203,75.7585106 17.5025703,77.6170213 C19.3609609,78.6148936 21.6427148,79.2078014 23.6902148,78.4432624 C25.4970625,77.7968085 26.7635977,75.9574468 26.7291172,74.043617 C26.7461797,60.208156 26.7205859,46.3705674 26.7419141,32.537234 C26.6967695,31.9230496 27.2808047,31.4156028 27.8794141,31.4734043 C29.4633828,31.462766 31.0494844,31.4521277 32.6334531,31.4776596 C33.294625,31.462766 33.749625,32.1241135 33.6678672,32.7429078 C33.6614687,46.6659574 33.6849297,60.5893617 33.6572031,74.5124113 C33.6614687,78.2230496 32.1333086,82.2606383 28.6927266,84.0762411 C24.4541172,86.2666667 19.2152187,85.8021277 15.0277969,83.701773 C11.4027266,81.8968085 7.94330469,79.7666667 4.38257422,77.8329787 C1.90815625,76.5553191 0.197285156,73.885461 0.214703125,71.087234 L0.214703125,28.8996454 C0.188753906,26.1549645 1.81573437,23.5106383 4.22794531,22.2152482 C16.6245625,15.2361702 29.0190469,8.25177305 41.4135312,1.26950355 L41.4135312,1.26950355 Z" id="Shape"></path>
                        <path d="M52.2283125,30.4929078 C57.6349922,30.1457447 63.4230898,30.287234 68.2883906,32.9443262 C72.055293,34.9804965 74.1436719,39.2539007 74.2101445,43.4287234 C74.1049258,43.991844 73.5148477,44.3024823 72.975957,44.2638298 C71.4072734,44.2617021 69.8382344,44.2851064 68.2695508,44.2531915 C67.6041133,44.2787234 67.2173633,43.6666667 67.1338281,43.0797872 C66.6830938,41.0822695 65.5910938,39.1039007 63.7063984,38.1404255 C60.8132383,36.6953901 57.4586797,36.7680851 54.3038945,36.798227 C52.0008125,36.9202128 49.5242617,37.1191489 47.5730938,38.4702128 C46.0751484,39.493617 45.6201484,41.5595745 46.1547734,43.2234043 C46.6588281,44.4180851 48.0412461,44.8035461 49.1723477,45.1588652 C55.6880898,46.8588652 62.5927148,46.6897163 68.984043,48.9269504 C71.6301523,49.8390071 74.2186758,51.6120567 75.1244102,54.3758865 C76.3091875,58.0801418 75.7898477,62.5078014 73.1480039,65.4815603 C71.0055938,67.9287234 67.8852891,69.2606383 64.7731602,69.9840426 C60.6330156,70.9049645 56.3364648,70.9283688 52.1319805,70.5195035 C48.178457,70.0698582 44.0642617,69.0336879 41.012207,66.3464539 C38.4023555,64.0858156 37.1276445,60.5634752 37.2541914,57.1638298 C37.2844063,56.5897163 37.8574219,56.1893617 38.4087539,56.2365248 C39.988457,56.2237589 41.5681602,56.2195035 43.1478633,56.2386525 C43.7788203,56.193617 44.2466172,56.7375887 44.2789648,57.3308511 C44.5704492,59.2340426 45.2874297,61.2315603 46.9510234,62.3599291 C50.1616172,64.4262411 54.1901445,64.2847518 57.8664023,64.3425532 C60.9120586,64.2078014 64.330957,64.1670213 66.8163945,62.1588652 C68.1277188,61.0134752 68.5162461,59.0971631 68.1618438,57.4485816 C67.7779375,56.0567376 66.3183828,55.408156 65.065,54.9840426 C58.632793,52.9542553 51.6510313,53.6907801 45.2810313,51.3953901 C42.6949961,50.4836879 40.1942734,48.7599291 39.2007383,46.1095745 C37.8144102,42.3585106 38.4496328,37.7187943 41.3683867,34.8453901 C44.2142695,31.987234 48.3224219,30.8865248 52.2283125,30.4925532 L52.2283125,30.4929078 Z" id="Shape"></path>
                    </g>
                </g>
                <ellipse id="Oval-2" fill="#E8EFF4" cx="45.5" cy="144.5" rx="27.5" ry="7.5"></ellipse>
            </g>
        </g>
    </g>
</svg>