<?xml version="1.0" encoding="UTF-8" standalone="no"?>
<svg width="283px" height="63px" viewBox="0 0 283 63" version="1.1" xmlns="http://www.w3.org/2000/svg" xmlns:xlink="http://www.w3.org/1999/xlink">
    <!-- Generator: Sketch 39.1 (31720) - http://www.bohemiancoding.com/sketch -->
    <title>kotlin-2</title>
    <desc>Created with Sketch.</desc>
    <defs>
        <linearGradient x1="-16.835945%" y1="91.9396677%" x2="76.2190511%" y2="-1.11603514%" id="linearGradient-1">
            <stop stop-color="#C757BC" offset="10.8%"></stop>
            <stop stop-color="#CD5CA9" offset="17.3%"></stop>
            <stop stop-color="#E8744F" offset="49.2%"></stop>
            <stop stop-color="#F88316" offset="71.6%"></stop>
            <stop stop-color="#FF8900" offset="82.3%"></stop>
        </linearGradient>
        <linearGradient x1="31.9147883%" y1="135.923273%" x2="77.2714743%" y2="45.6112698%" id="linearGradient-2">
            <stop stop-color="#00AFFF" offset="29.6%"></stop>
            <stop stop-color="#5282FF" offset="69.4%"></stop>
            <stop stop-color="#945DFF" offset="100%"></stop>
        </linearGradient>
        <linearGradient x1="-169.9%" y1="4077.81509%" x2="4331.9%" y2="7.13935991%" id="linearGradient-3">
            <stop stop-color="#00AFFF" offset="29.6%"></stop>
            <stop stop-color="#5282FF" offset="69.4%"></stop>
            <stop stop-color="#945DFF" offset="100%"></stop>
        </linearGradient>
    </defs>
    <g id="Page-1" stroke="none" stroke-width="1" fill="none" fill-rule="evenodd">
        <g id="Artboard" transform="translate(-901.000000, -1001.000000)">
            <g id="kotlin-2" transform="translate(901.000000, 1001.000000)">
                <g id="logo_Kotlin">
                    <g id="Group" transform="translate(78.468709, 0.000000)" fill="#000400">
                        <polygon id="Shape" points="0.0243378884 2.5473 13.0879093 2.5473 13.0879093 28.5285 37.1790619 2.5473 52.9571471 2.5473 28.7812315 27.7641 54.0599052 61.9815 38.366583 61.9815 19.9591666 36.67986 13.0879093 43.81146 13.0879093 61.98108 0.0243378884 61.98108"></polygon>
                        <path d="M47.1173127,39.48084 L47.1173127,39.312 C47.1173127,26.23614 57.6363159,15.62274 71.8026454,15.62274 C85.884212,15.62274 96.3184522,26.06646 96.3184522,39.1419 L96.3184522,39.312 C96.3184522,52.38744 85.799449,63 71.6331194,63 C57.5515529,63 47.1173127,52.5567 47.1173127,39.48084 L47.1173127,39.48084 Z M83.5939327,39.48084 L83.5939327,39.312 C83.5939327,32.60376 78.7586657,26.7456 71.6331194,26.7456 C64.2528646,26.7456 59.8418321,32.43366 59.8418321,39.1419 L59.8418321,39.312 C59.8418321,46.0194 64.6770992,51.87756 71.8026454,51.87756 C79.1829003,51.87756 83.5939327,46.18908 83.5939327,39.48084 L83.5939327,39.48084 Z" id="Shape"></path>
                        <path d="M99.8776585,49.07574 L99.8776585,27.50958 L94.448631,27.50958 L94.448631,16.4724 L99.8776585,16.4724 L99.8776585,4.83966 L112.771704,4.83966 L112.771704,16.47198 L123.460233,16.47198 L123.460233,27.50958 L112.771704,27.50958 L112.771704,46.95348 C112.771704,49.92456 114.043988,51.36852 116.928447,51.36852 C119.15151,51.379277 121.340769,50.8238407 123.290288,49.75446 L123.290288,60.11334 C120.575774,61.72656 117.437445,62.74548 113.111176,62.74548 C105.222343,62.74548 99.8776585,59.60388 99.8776585,49.07574 L99.8776585,49.07574 Z M127.161271,0 L140.055316,0 L140.055316,61.98108 L127.161271,61.98108 L127.161271,0 Z M144.716022,0 L158.288171,0 L158.288171,11.46222 L144.716022,11.46222 L144.716022,0 L144.716022,0 Z M145.055913,16.47198 L157.949539,16.47198 L157.949539,61.98108 L145.055493,61.98108 L145.055913,16.47198 Z M162.854462,16.47198 L175.748508,16.47198 L175.748508,22.92444 C178.71773,19.1037 182.535002,15.62274 189.066368,15.62274 C198.822085,15.62274 204.505402,22.07562 204.505402,32.51934 L204.505402,61.98108 L191.611356,61.98108 L191.611356,36.5946 C191.611356,30.4815 188.726897,27.3399 183.806867,27.3399 C178.886417,27.3399 175.748508,30.4815 175.748508,36.5946 L175.748508,61.98108 L162.854043,61.98108 L162.854462,16.47198 Z" id="Shape"></path>
                    </g>
                    <polygon id="Shape" fill="url(#linearGradient-1)" points="29.807619 2.51748 0 33.89232 0 61.94034 29.7643983 32.0964 59.3689218 2.51748"></polygon>
                    <polygon id="Shape" fill="url(#linearGradient-2)" points="0 61.94034 29.7643983 32.0964 59.3689218 61.94034"></polygon>
                    <polygon id="Shape" fill="url(#linearGradient-3)" points="0 2.51748 29.807619 2.51748 0 33.89232"></polygon>
                </g>
            </g>
        </g>
    </g>
</svg>