<?xml version="1.0" encoding="UTF-8"?>
<svg width="711px" height="613px" viewBox="0 0 711 613" version="1.1" xmlns="http://www.w3.org/2000/svg" xmlns:xlink="http://www.w3.org/1999/xlink">
    <!-- Generator: Sketch 39.1 (31720) - http://www.bohemiancoding.com/sketch -->
    <title>paper-plane</title>
    <desc>Created with Sketch.</desc>
    <defs>
        <filter x="-50%" y="-50%" width="200%" height="200%" filterUnits="objectBoundingBox" id="filter-1">
            <feOffset dx="15" dy="12" in="SourceAlpha" result="shadowOffsetOuter1"></feOffset>
            <feGaussianBlur stdDeviation="2" in="shadowOffsetOuter1" result="shadowBlurOuter1"></feGaussianBlur>
            <feColorMatrix values="0 0 0 0 0   0 0 0 0 0   0 0 0 0 0  0 0 0 0.218665082 0" type="matrix" in="shadowBlurOuter1" result="shadowMatrixOuter1"></feColorMatrix>
            <feMerge>
                <feMergeNode in="shadowMatrixOuter1"></feMergeNode>
                <feMergeNode in="SourceGraphic"></feMergeNode>
            </feMerge>
        </filter>
    </defs>
    <g id="Page-1" stroke="none" stroke-width="1" fill="none" fill-rule="evenodd">
        <g id="paper-plane" filter="url(#filter-1)">
            <g id="Capa_1">
                <g id="Group">
                    <path d="M202.19375,550.54777 L301.491695,441.997808 L280.220805,386.253331 C280.220805,386.253331 216.247297,395.299614 214.444312,400.727112 C212.64268,406.15461 207.23643,478.520799 206.334937,491.185866 C205.434797,503.848219 202.19375,550.54777 202.19375,550.54777" id="Shape" fill="#5C546A"></path>
                    <path d="M677.426102,0.674366642 L7.05110156,250.33928 C2.95451562,251.865764 0.177054687,255.71386 0.008109375,260.096565 C-0.160835938,264.47927 2.30982031,268.534968 6.28071094,270.373533 L126.876578,326.244198 C136.253719,330.595695 143.064242,339.262053 145.091586,349.427757 L184.023344,544.876035 C184.920781,549.360505 188.521344,552.805609 193.030156,553.484047 C197.464633,554.125848 201.973445,551.920927 204.149461,547.892367 L265.614469,433.300242 C267.282297,430.188929 270.239516,428.137334 273.723844,427.681424 C277.240609,427.225515 280.587078,428.429062 282.994211,431.00441 L435.432891,593.606826 C437.502133,595.80632 440.35393,597.020723 443.309797,597.020723 C448.864719,596.183531 451.894922,593.728945 453.299195,590.325904 L691.174195,15.0111029 C692.820398,11.0259624 691.955398,6.4356559 688.977906,3.3243426 C685.978789,0.207601803 681.438891,-0.810054095 677.426102,0.674366642 Z" id="Shape" fill="#082C7A"></path>
                    <path d="M684.158234,0.495259204 L136.814617,333.716506 C140.885523,338.092427 143.894102,343.429014 145.091586,349.4264 L184.023344,544.874678 C184.920781,549.359148 188.521344,552.804252 193.030156,553.48269 C197.464633,554.124491 201.973445,551.91957 204.149461,547.89101 L265.614469,433.298885 C266.046969,432.492902 266.770055,431.982717 267.362039,431.328703 C267.409344,431.089893 267.455297,430.85244 267.455297,430.85244 L688.894109,3.2605695 C687.557414,1.89826747 685.911211,1.0013734 684.158234,0.495259204 L684.158234,0.495259204 Z" id="Shape" fill="#6CDCE0"></path>
                </g>
            </g>
        </g>
    </g>
</svg>