<?xml version="1.0" encoding="UTF-8" standalone="no"?>
<svg width="114px" height="134px" viewBox="0 0 114 134" version="1.1" xmlns="http://www.w3.org/2000/svg" xmlns:xlink="http://www.w3.org/1999/xlink">
    <!-- Generator: Sketch 39.1 (31720) - http://www.bohemiancoding.com/sketch -->
    <title>Group 5</title>
    <desc>Created with Sketch.</desc>
    <defs></defs>
    <g id="Page-1" stroke="none" stroke-width="1" fill="none" fill-rule="evenodd">
        <g id="Artboard" transform="translate(-106.000000, -732.000000)">
            <g id="Group-5" transform="translate(106.000000, 732.000000)">
                <g id="react">
                    <g id="Group">
                        <path d="M0.335560012,50.9867795 C0.335560012,59.5245658 8.68584186,67.4944992 21.8501193,71.9871121 C19.2212691,85.2001305 21.3792671,95.8502579 28.5862417,99.9998486 C35.9939293,104.265409 47.0300263,101.312841 57.5049282,92.1707675 C67.7154764,100.943604 78.0346144,104.396042 85.2353584,100.234454 C92.6363703,95.9568969 94.8869366,84.5847345 92.185545,70.9589342 C105.897221,66.4329967 113.567037,59.636981 113.567037,50.9867795 C113.567037,42.6471642 105.201624,35.4325904 92.2144726,30.9688589 C95.1228077,16.7800935 92.6586223,6.38856572 85.153026,2.06746392 C77.9171239,-2.09856697 67.4778252,1.53249153 57.1172985,10.5346018 C46.3384345,0.97974596 36.002385,-1.93727546 28.5047994,2.39582323 C21.2755729,6.57385101 19.2128134,17.4177059 21.8501193,30.8751054 C9.12999158,35.3028463 0.335560012,42.6809332 0.335560012,50.9867795 L0.335560012,50.9867795 Z" id="Shape" fill="#FFFFFF"></path>
                        <path d="M89.4641266,35.4014873 C88.3937919,35.0349279 87.3143761,34.6953527 86.2269071,34.3830847 C86.4072485,33.6514548 86.5740186,32.9165566 86.7271318,32.1787674 C89.177521,20.3027357 87.5753777,10.7354386 82.1040583,7.586033 C76.8583742,4.56548287 68.2788968,7.71488848 59.6139718,15.2431587 C58.7601554,15.9866739 57.9252911,16.7516086 57.1101779,17.5372305 C56.5643188,17.0148385 56.0088138,16.5025871 55.4439489,16.00074 C46.3629117,7.95038297 37.2605126,4.55837361 31.7949787,7.71711013 C26.55419,10.7461025 25.0018912,19.7406592 27.2079535,30.9955187 C27.4274413,32.1100781 27.6752601,33.2188893 27.9511699,34.3208786 C26.6632247,34.6861173 25.4193385,35.0753497 24.2293021,35.4894645 C13.5830599,39.1951703 6.78374173,45.0034421 6.78374173,51.0276578 C6.78374173,57.2500444 14.0823945,63.4910928 25.1718964,67.2750006 C26.0710912,67.5804016 26.9777705,67.8633791 27.8910896,68.1236694 C27.5943824,69.3108906 27.3309643,70.5061584 27.1011439,71.7080733 C24.9978858,82.767428 26.6405277,91.5487066 31.8675202,94.5590371 C37.2662981,97.6671201 46.3273085,94.4723929 55.1506676,86.7721673 C55.848045,86.1634363 56.5480926,85.5178259 57.2490303,84.8411125 C58.13191,85.6915851 59.0383631,86.5173214 59.9673334,87.3173593 C68.5138778,94.6598999 76.9545028,97.6249089 82.1770449,94.6065804 C87.5709273,91.4891665 89.323494,82.0556125 87.0475605,70.5781441 C86.8739949,69.7014825 86.6715018,68.8061591 86.4445315,67.8943955 C87.0809385,67.7068886 87.7053293,67.513161 88.3145888,67.3114356 C99.8428999,63.4982021 107.343156,57.333134 107.343156,51.0276578 C107.343156,44.9816699 100.324878,39.1342972 89.4641266,35.4014873 L89.4641266,35.4014873 Z" id="Shape" fill="#53C1DE"></path>
                        <path d="M86.9634479,63.2404911 C86.4138238,63.4222218 85.8495133,63.5977318 85.2745219,63.7679099 C84.0017081,59.7453974 82.2838544,55.4678399 80.1823765,51.0489856 C82.1881709,46.7345488 83.8392685,42.5120881 85.0764792,38.5153466 C86.1049662,38.8130472 87.1036355,39.1262993 88.0658115,39.4573246 C97.3715938,42.6551621 103.047632,47.3841581 103.047632,51.0276578 C103.047632,54.9088737 96.9172082,59.9475672 86.963893,63.2404911 L86.9634479,63.2404911 Z M82.8334786,71.4112614 C83.8397136,76.4863899 83.9834614,81.0749779 83.3167918,84.6620478 C82.7177682,87.8852121 81.5134905,90.0339882 80.0243873,90.894654 C76.8552589,92.7261791 70.0777477,90.345463 62.769304,84.0662023 C61.9312941,83.3463889 61.0870536,82.5776994 60.2405879,81.7645769 C63.0741563,78.6702681 65.9059446,75.0729786 68.6696418,71.0784588 C73.5312566,70.6479038 78.1240674,69.9436419 82.2891949,68.9825578 C82.4939132,69.8090102 82.6763795,70.6190224 82.8334786,71.4112614 L82.8334786,71.4112614 Z M41.066493,90.5782915 C37.970351,91.6700085 35.5043855,91.7011115 34.0139472,90.8431118 C30.8417035,89.0169186 29.5234956,81.9654137 31.3219014,72.507866 C31.5357608,71.3901826 31.7806269,70.2786359 32.0562171,69.174508 C36.1750605,70.08405 40.7344933,70.7385469 45.6076791,71.1331113 C48.3896229,75.0418756 51.3032985,78.6347218 54.2396712,81.7810171 C53.6156138,82.3837334 52.9767881,82.9710184 52.3237748,83.5423381 C48.4221108,86.9476774 44.5124362,89.3630511 41.066938,90.5782915 L41.066493,90.5782915 Z M26.5613106,63.2164974 C21.6578621,61.5431535 17.6084449,59.3686062 14.8327316,56.9958881 C12.3387286,54.8631078 11.0792659,52.745879 11.0792659,51.0276578 C11.0792659,47.3721612 16.5385692,42.7089259 25.6436385,39.5395255 C26.7864559,39.1434581 27.9406418,38.7808783 29.1047131,38.4522519 C30.3632857,42.5387478 32.0139383,46.8114177 34.0059365,51.1320752 C31.988126,55.5171604 30.3138863,59.8578127 29.0437427,63.9922962 C28.2100235,63.7540434 27.3822962,63.4953657 26.5613106,63.2164974 L26.5613106,63.2164974 Z M31.4238155,30.1717323 C29.5337315,20.5284549 30.7887437,13.254341 33.9471912,11.4290365 C37.3116921,9.48465182 44.7505325,12.2572662 52.5912437,19.2079084 C53.0923585,19.6522377 53.5956986,20.1174504 54.0999287,20.5986589 C51.1786874,23.7307357 48.2917142,27.2964778 45.5338025,31.1825813 C40.8043645,31.6202456 36.2769746,32.3231744 32.1149623,33.2647081 C31.8585853,32.2395293 31.6281299,31.2080617 31.4238155,30.1712879 L31.4238155,30.1717323 Z M74.8005101,40.8654039 C73.8174515,39.1700347 72.7979255,37.4960062 71.7426416,35.8444836 C74.9513786,36.2488232 78.0252685,36.7864616 80.9117967,37.4445132 C80.0453042,40.2175719 78.9651926,43.1172645 77.6932688,46.0898271 C76.7639443,44.3293012 75.7994992,42.5874796 74.8005101,40.8654039 L74.8005101,40.8654039 Z M57.111513,23.663642 C59.0928302,25.8066419 61.0772627,28.1997991 63.0292073,30.7960148 C59.0696929,30.60921 55.1035723,30.6083204 51.1439743,30.7933489 C53.097699,28.2211269 55.099043,25.8315243 57.111513,23.663642 L57.111513,23.663642 Z M39.3090308,40.8947297 C38.3225493,42.6031098 37.376137,44.3342435 36.4705669,46.0867167 C35.21956,43.1243737 34.1492393,40.2117956 33.2751811,37.3991916 C36.1443527,36.7580245 39.2040014,36.2341603 42.3918215,35.8364857 C41.324711,37.4982434 40.2968308,39.1847896 39.3090308,40.8947297 L39.3090308,40.8947297 Z M42.4834997,66.5249728 C39.1902051,66.1579569 36.0842724,65.6607525 33.2159908,65.0373586 C34.1038452,62.1749896 35.1977531,59.1997611 36.4754623,56.173879 C37.3848501,57.9276512 38.3354212,59.6598292 39.3263873,61.3689764 C40.3375673,63.1124478 41.3902372,64.8316017 42.4834997,66.5249728 L42.4834997,66.5249728 Z M57.2303386,78.6947062 C55.1942815,76.5010528 53.1635649,74.0750152 51.1800225,71.4654696 C53.1052647,71.5410055 55.0683353,71.5792179 57.0634487,71.5792179 C59.1133021,71.5792179 61.1395683,71.5334519 63.1337916,71.4445861 C61.1756165,74.1016749 59.1983047,76.5312672 57.2303386,78.6947062 L57.2303386,78.6947062 Z M77.7342125,56.0196968 C79.0782327,59.0784592 80.211304,62.0376919 81.1111745,64.8516289 C78.1952737,65.5159011 75.0475072,66.0508735 71.7306255,66.4481039 C72.793537,64.7657463 73.822821,63.0624435 74.8178667,61.3392063 C75.8293912,59.5878585 76.8017472,57.8142494 77.7342125,56.0196968 L77.7342125,56.0196968 Z M71.0964438,59.1966508 C69.5731616,61.8386129 67.9642342,64.4304219 66.2722123,66.9679691 C63.2886655,67.1808028 60.2054297,67.2905521 57.0634487,67.2905521 C53.9343739,67.2905521 50.8903016,67.193244 47.9588244,67.0035154 C46.2229183,64.4718765 44.5835547,61.8755818 43.0442498,59.2202002 C41.5121399,56.578907 40.0810475,53.8804767 38.7540661,51.1307422 C40.0776723,48.380184 41.5044402,45.6803081 43.0313437,43.0368409 L43.0313437,43.0377295 C44.5577681,40.3936994 46.1842258,37.8085059 47.9071998,35.2877391 C50.8978673,35.0620198 53.9641915,34.9438282 57.0638938,34.9438282 C60.1773922,34.9438282 63.2477218,35.0629085 66.2374992,35.290405 C67.9430457,37.8072929 69.5591007,40.3834876 71.0826476,43.0141801 C72.6148016,45.6517661 74.0606105,48.3384166 75.4177803,51.0698691 C74.0745711,53.8291508 72.6333605,56.539796 71.0968889,59.1966508 L71.0964438,59.1966508 Z M79.9585214,11.3015141 C83.3256926,13.2405668 84.6354447,21.0594283 82.5197255,31.3132141 C82.3810514,31.9811862 82.2303067,32.6466037 82.0675651,33.309141 C77.8957619,32.3480569 73.3652567,31.6326868 68.6220225,31.1883576 C65.8587704,27.2600428 62.9958293,23.6880801 60.1217622,20.5964373 C60.8748867,19.8715354 61.6459336,19.1654265 62.4341891,18.4787642 C69.8583431,12.0279923 76.7969587,9.48109718 79.9585214,11.3015141 L79.9585214,11.3015141 Z" id="Shape" fill="#FFFFFF"></path>
                        <path d="M57.0634487,42.0624269 C62.0229723,42.0624269 66.0430168,46.0764972 66.0430168,51.0276578 C66.0430168,55.9792628 62.0229723,59.9933331 57.0634487,59.9933331 C52.1043702,59.9933331 48.0838806,55.9792628 48.0838806,51.0276578 C48.0838806,46.0764972 52.1043702,42.0624269 57.0634487,42.0624269" id="Shape" fill="#53C1DE"></path>
                    </g>
                </g>
                <ellipse id="Oval-2" fill="#E8EFF4" cx="56.5" cy="126.5" rx="27.5" ry="7.5"></ellipse>
            </g>
        </g>
    </g>
</svg>