<?xml version="1.0" encoding="UTF-8" standalone="no"?>
<svg width="176px" height="152px" viewBox="0 0 176 152" version="1.1" xmlns="http://www.w3.org/2000/svg" xmlns:xlink="http://www.w3.org/1999/xlink">
    <!-- Generator: Sketch 39.1 (31720) - http://www.bohemiancoding.com/sketch -->
    <title>redis</title>
    <desc>Created with Sketch.</desc>
    <defs></defs>
    <g id="Page-1" stroke="none" stroke-width="1" fill="none" fill-rule="evenodd">
        <g id="Artboard" transform="translate(-410.000000, -783.000000)">
            <g id="redis" transform="translate(499.000000, 860.500000) rotate(-32.000000) translate(-499.000000, -860.500000) translate(417.000000, 790.000000)">
                <g transform="translate(0.201905, 0.858639)" id="Group" fill="#EAEAEA">
                    <g>
                        <path d="M156.419716,107.514067 C147.73164,112.045818 102.725598,130.564205 93.1440396,135.563069 C83.5624814,140.562569 78.2397468,140.514203 70.6702714,136.893129 C63.1014318,133.272055 15.2069955,113.911721 6.57933237,109.784716 C2.26772658,107.722804 0,105.981634 0,104.337195 L0,87.8699016 C0,87.8699016 62.3529421,74.2861026 72.419079,70.6720293 C82.48458,67.057956 85.9771078,66.9274955 94.5430857,70.0674564 C103.110335,73.20869 154.331958,82.4567466 162.798095,85.5597967 L162.794279,101.794171 C162.795551,103.422063 160.841974,105.20778 156.419716,107.514067" id="Shape"></path>
                        <path d="M156.416537,91.1441413 C147.729096,95.6739835 102.724326,114.193007 93.1427677,119.191234 C83.5618455,124.19137 78.2391109,124.142368 70.6702714,120.521294 C63.1007959,116.902766 15.2082673,97.5392501 6.58124016,93.4147899 C-2.04578699,89.2877842 -2.22639113,86.4475643 6.24801281,83.1268679 C14.7224168,79.8048988 62.3523062,61.1045037 72.4197149,57.4904304 C82.4852159,53.8776299 85.9771078,53.7458966 94.5430857,56.8871302 C103.1097,60.0270911 147.846107,77.8467189 156.310972,80.9491326 C164.779017,84.0553647 165.103977,86.6130263 156.416537,91.1441413" id="Shape"></path>
                        <path d="M156.419716,80.8689472 C147.73164,85.4013349 102.725598,103.919085 93.1440396,108.919858 C83.5624814,113.917449 78.2397468,113.869083 70.6702714,110.248009 C63.1007959,106.628845 15.2069955,87.2666015 6.57933237,83.1395958 C2.26772658,81.0776839 -1.13686838e-13,79.3390595 -1.13686838e-13,77.6939847 L-1.13686838e-13,61.2247819 C-1.13686838e-13,61.2247819 62.3529421,47.6416192 72.419079,44.0275459 C82.48458,40.4134726 85.9771078,40.2823758 94.5430857,43.422973 C103.110971,46.5635703 154.332594,55.8097176 162.798095,58.9134041 L162.794279,75.1496873 C162.795551,76.7769431 160.841974,78.5626606 156.419716,80.8689472" id="Shape"></path>
                        <path d="M156.416537,64.4990215 C147.729096,69.0301365 102.724326,87.547887 93.1427677,92.5480233 C83.5618455,97.5462504 78.2391109,97.4972482 70.6702714,93.8761745 C63.1007959,90.2576465 15.2082673,70.8947667 6.58124016,66.7696702 C-2.04578699,62.6439373 -2.22639113,59.8030809 6.24801281,56.4811118 C14.7224168,53.1610518 62.3529421,34.4593839 72.4197149,30.845947 C82.4852159,27.2325101 85.9771078,27.1014132 94.5430857,30.2420105 C103.1097,33.3819713 147.846107,51.2003264 156.310972,54.3040129 C164.779017,57.4096085 165.103977,59.9679066 156.416537,64.4990215" id="Shape"></path>
                        <path d="M156.419716,53.2361462 C147.73164,57.7672611 102.725598,76.2862844 93.1440396,81.2870571 C83.5624814,86.2852842 78.2397468,86.2362819 70.6702714,82.6152083 C63.1007959,78.9960439 15.2069955,59.6331641 6.57933237,55.5080676 C2.26772658,53.4442465 0,51.7049857 0,50.0618201 L0,33.5919809 C0,33.5919809 62.3529421,20.0094546 72.419079,16.3960177 C82.48458,12.781308 85.9771078,12.6514839 94.5430857,15.7914448 C103.110971,18.932042 154.332594,28.1781894 162.798095,31.2818759 L162.794279,47.5175227 C162.795551,49.1435057 160.841974,50.9292232 156.419716,53.2361462" id="Shape"></path>
                        <path d="M156.416537,36.8662205 C147.729096,41.3973355 102.724326,59.9163588 93.1427677,64.9145859 C83.5618455,69.912813 78.2391109,69.8638108 70.6702714,66.2446463 C63.1014318,62.6235727 15.2082673,43.2619657 6.58187609,39.1362328 C-2.04578699,35.0111363 -2.2257552,32.1696435 6.24801281,28.8483108 C14.7224168,25.5276144 62.3529421,6.82849208 72.4197149,3.21378239 C82.4852159,-0.400290915 85.9771078,-0.530114996 94.5430857,2.61048225 C103.1097,5.75107949 147.846107,23.5694346 156.310972,26.673121 C164.779017,29.7761711 165.103977,32.3351056 156.416537,36.8662205" id="Shape"></path>
                        <path d="M101.292847,20.8463108 L87.2960268,22.3004678 L84.1627994,29.8455379 L79.102068,21.4260644 L62.9399056,19.9725439 L74.9996832,15.6202552 L71.3812412,8.93940618 L82.6721793,13.3585161 L93.3163766,9.87108488 L90.4394291,16.779126 L101.292847,20.8463108 M83.3271873,57.4503376 L57.2050883,46.6081177 L94.6359315,40.858311 L83.3271873,57.4503376 M47.1109705,25.0401377 C58.1602553,25.0401377 67.1173301,28.5148411 67.1173301,32.8003085 C67.1173301,37.0870488 58.1602553,40.5611157 47.1109705,40.5611157 C36.0616858,40.5611157 27.1046109,37.0864124 27.1046109,32.8003085 C27.1046109,28.5148411 36.0616858,25.0401377 47.1109705,25.0401377" id="Shape"></path>
                        <polyline id="Shape" points="117.83466 22.9088591 139.987919 31.669439 117.853738 40.4217457 117.83466 22.9082227"></polyline>
                        <polyline id="Shape" points="93.3259156 32.6106635 117.83466 22.9088591 117.853738 40.4217457 115.450558 41.3623339 93.3259156 32.6106635"></polyline>
                    </g>
                </g>
                <g transform="translate(6.201905, 5.858639)" id="Group">
                    <g>
                        <path d="M144.123047,99.0620318 C136.117969,103.237527 94.65,120.300123 85.8216797,124.906009 C76.9933594,129.512482 72.0890625,129.467918 65.1146484,126.131509 C58.1408203,122.7951 14.0115234,104.956745 6.06210937,101.154177 C2.08945312,99.2543591 -3.41060513e-13,97.6500682 -3.41060513e-13,96.1349045 L-3.41060513e-13,80.9621591 C-3.41060513e-13,80.9621591 57.4511719,68.4462273 66.7259766,65.1162682 C76.0001953,61.7863091 79.2181641,61.6661045 87.1107422,64.5592227 C95.0044922,67.4535136 142.199414,75.97455 150,78.8336591 L149.996484,93.7917955 C149.997656,95.2917136 148.197656,96.93705 144.123047,99.0620318" id="Shape" fill="#912626"></path>
                        <path d="M144.120117,83.979 C136.115625,88.1527364 94.6488281,105.215918 85.8205078,109.821218 C76.9927734,114.428277 72.0884766,114.383127 65.1146484,111.046718 C58.1402344,107.712655 14.0126953,89.8713682 6.06386719,86.0711455 C-1.88496094,82.2685773 -2.05136719,79.6516364 5.75683594,76.5919909 C13.5650391,73.5311727 57.4505859,56.3008773 66.7265625,52.9709182 C76.0007812,49.6421318 79.2181641,49.5207545 87.1107422,52.4150455 C95.0039062,55.3081636 136.223437,71.7269318 144.022852,74.5854545 C151.825195,77.4474955 152.124609,79.8040909 144.120117,83.979" id="Shape" fill="#C6302B"></path>
                        <path d="M144.123047,74.5115727 C136.117969,78.6876545 94.65,95.7496636 85.8216797,100.357309 C76.9933594,104.962023 72.0890625,104.917459 65.1146484,101.58105 C58.1402344,98.2464 14.0115234,80.4062864 6.06210937,76.6037182 C2.08945312,74.7039 0,73.1019545 0,71.5862045 L0,56.4117 C0,56.4117 57.4511719,43.8963545 66.7259766,40.5663955 C76.0001953,37.2364364 79.2181641,37.1156455 87.1107422,40.00935 C95.0050781,42.9030545 142.2,51.4223318 150,54.2820273 L149.996484,69.2419227 C149.997656,70.7412545 148.197656,72.3865909 144.123047,74.5115727" id="Shape" fill="#912626"></path>
                        <path d="M144.120117,59.4285409 C136.115625,63.60345 94.6488281,80.6654591 85.8205078,85.2725182 C76.9927734,89.8778182 72.0884766,89.8326682 65.1146484,86.4962591 C58.1402344,83.1621955 14.0126953,65.3214955 6.06386719,61.5206864 C-1.88496094,57.7192909 -2.05136719,55.1017636 5.75683594,52.0409455 C13.5650391,48.9818864 57.4511719,31.7504182 66.7265625,28.4210455 C76.0007812,25.0916727 79.2181641,24.9708818 87.1107422,27.8645864 C95.0039062,30.7577045 136.223437,47.1753 144.022852,50.0349955 C151.825195,52.89645 152.124609,55.2536318 144.120117,59.4285409" id="Shape" fill="#C6302B"></path>
                        <path d="M144.123047,49.0510773 C136.117969,53.2259864 94.65,70.2891682 85.8216797,74.8968136 C76.9933594,79.5021136 72.0890625,79.4569636 65.1146484,76.1205545 C58.1402344,72.7859045 14.0115234,54.9452045 6.06210937,51.1443955 C2.08945312,49.2428182 0,47.6402864 0,46.1262955 L0,30.9512045 C0,30.9512045 57.4511719,18.4364455 66.7259766,15.1070727 C76.0001953,11.7765273 79.2181641,11.6569091 87.1107422,14.5500273 C95.0050781,17.4437318 142.2,25.9630091 150,28.8227045 L149.996484,43.7820136 C149.997656,45.2801727 148.197656,46.9255091 144.123047,49.0510773" id="Shape" fill="#912626"></path>
                        <path d="M144.120117,33.9680455 C136.115625,38.1429545 94.6488281,55.2061364 85.8205078,59.8114364 C76.9927734,64.4167364 72.0884766,64.3715864 65.1146484,61.0369364 C58.1408203,57.7005273 14.0126953,39.861 6.06445313,36.0596045 C-1.88496094,32.2587955 -2.05078125,29.6406818 5.75683594,26.58045 C13.5650391,23.5208045 57.4511719,6.29168182 66.7265625,2.96113636 C76.0007813,-0.368822727 79.2181641,-0.488440909 87.1107422,2.40526364 C95.0039063,5.29896818 136.223438,21.7165636 144.022852,24.5762591 C151.825195,27.4353682 152.124609,29.7931364 144.120117,33.9680455" id="Shape" fill="#C6302B"></path>
                        <path d="M93.3298828,19.2075136 L80.4333984,20.5473545 L77.5464844,27.4992818 L72.8835937,19.7416909 L57.9919922,18.4024364 L69.1037109,14.3922955 L65.7697266,8.23665 L76.1730469,12.3083591 L85.9804687,9.09508636 L83.3296875,15.4600636 L93.3298828,19.2075136 M76.7765625,52.9339773 L52.7080078,42.9441 L87.1962891,37.6463045 L76.7765625,52.9339773 M43.4074219,23.07165 C53.5880859,23.07165 61.8410156,26.2731955 61.8410156,30.2217682 C61.8410156,34.1715136 53.5880859,37.3724727 43.4074219,37.3724727 C33.2267578,37.3724727 24.9738281,34.1709273 24.9738281,30.2217682 C24.9738281,26.2731955 33.2267578,23.07165 43.4074219,23.07165" id="Shape" fill="#FFFFFF"></path>
                        <polyline id="Shape" fill="#621B1C" points="108.571289 21.1079182 128.983008 29.1798 108.588867 37.2440591 108.571289 21.1073318"></polyline>
                        <polyline id="Shape" fill="#9A2928" points="85.9892578 30.0470318 108.571289 21.1079182 108.588867 37.2440591 106.374609 38.1107045 85.9892578 30.0470318"></polyline>
                    </g>
                </g>
            </g>
        </g>
    </g>
</svg>