<?xml version="1.0" encoding="UTF-8" standalone="no"?>
<svg width="90px" height="130px" viewBox="0 0 90 130" version="1.1" xmlns="http://www.w3.org/2000/svg" xmlns:xlink="http://www.w3.org/1999/xlink">
    <!-- Generator: Sketch 39.1 (31720) - http://www.bohemiancoding.com/sketch -->
    <title>Group 4</title>
    <desc>Created with Sketch.</desc>
    <defs></defs>
    <g id="Page-1" stroke="none" stroke-width="1" fill="none" fill-rule="evenodd">
        <g id="Artboard" transform="translate(-271.000000, -653.000000)">
            <g id="Group-4" transform="translate(271.000000, 653.000000)">
                <g id="redux" fill="#764ABC">
                    <path d="M62.1232152,59.1282992 C65.4317883,58.7876025 67.941849,55.9505533 67.8276758,52.5456762 C67.7138527,49.1411475 64.8612722,46.4173156 61.4385258,46.4173156 L61.2105295,46.4173156 C57.6732596,46.5308811 54.9352025,49.4814959 55.0493758,52.9995902 C55.1635491,54.7020287 55.8478882,56.1773361 56.8747472,57.1987295 C52.9956579,64.8027459 47.0628508,70.363627 38.16364,75.0166803 C32.1166596,78.1944262 25.8416829,79.3293852 19.5667062,78.535123 C14.4324114,77.8540779 10.4391489,75.5845082 7.92873796,71.8389344 C4.27799524,66.2780533 3.93582566,60.2629098 7.0164025,54.2481148 C9.18429366,49.9354098 12.6066899,46.7576639 14.774581,45.168791 C14.3182382,43.6934836 13.6335488,41.1967828 13.2913792,39.381127 C-3.25218696,51.2975 -1.54063865,67.4130123 3.47948282,75.0166803 C7.24439881,80.6914754 14.8887543,84.2095697 23.3316222,84.2095697 C25.6133364,84.2095697 27.8950506,83.9824385 30.177115,83.4153074 C44.7811366,80.5779098 55.8482384,71.9525 62.1232152,59.1282992 L62.1232152,59.1282992 Z M82.203701,45.0555738 C73.5324866,34.9548566 60.7541866,29.3939754 46.1501651,29.3939754 L44.3247937,29.3939754 C43.2979348,27.3511885 41.1300436,25.9890984 38.7341561,25.9890984 L38.5058096,25.9890984 C34.9692402,26.1026639 32.2311831,29.0532787 32.3450062,32.5717213 C32.4591794,35.97625 35.3114097,38.700082 38.7341561,38.700082 L38.9621525,38.700082 C41.4722132,38.5865164 43.6401043,36.9976434 44.55279,34.841291 L46.6065079,34.841291 C55.2777223,34.841291 63.4922437,37.3379918 70.9086028,42.2181762 C76.6130635,45.9634016 80.7204993,50.8435861 83.0022135,56.7448156 C84.9417581,61.5114344 84.8275848,66.1644877 82.7738669,70.1368443 C79.579467,76.1516393 74.217176,79.4429508 67.1433366,79.4429508 C62.579558,79.4429508 58.2441259,78.0808607 55.9620615,77.0594672 C54.7072062,78.1944262 52.4251418,80.010082 50.8277667,81.1453893 C55.7340652,83.414959 60.7541866,84.6634836 65.5459616,84.6634836 C76.4988902,84.6634836 84.5995885,78.6483402 87.6801653,72.6335451 C90.9887385,66.0509221 90.760392,54.7020287 82.203701,45.0555738 L82.203701,45.0555738 Z M24.2443078,61.0571721 C24.3584811,64.4620492 27.2107114,67.1855328 30.6334578,67.1855328 L30.8618044,67.1855328 C34.398724,67.0723156 37.1367811,64.1213525 37.0226078,60.6032582 C36.9087848,57.1983811 34.0562042,54.4748975 30.6334578,54.4748975 L30.4054615,54.4748975 C30.177115,54.4748975 29.8345952,54.4748975 29.6069491,54.5881148 C24.9289972,46.8708811 22.9894526,38.4729508 23.674142,29.393627 C24.1301346,22.5842213 26.412199,16.6826434 30.4054615,11.802459 C33.7140347,7.60331967 40.1031847,5.56053279 44.438967,5.44731557 C56.5325776,5.22018443 61.6665221,20.2007377 62.0090419,26.2158811 C63.4922437,26.5562295 66.0023044,27.3508402 67.7138527,27.9183197 C66.344474,9.5332377 54.9352025,0 43.9826241,0 C33.7140347,0 24.2443078,7.37688525 20.4790416,18.2718648 C15.2309239,32.7985041 18.6536703,46.7576639 25.0428203,57.766209 C24.4726544,58.5604713 24.1301346,59.8089959 24.2443078,61.0575205 L24.2443078,61.0571721 Z" id="Shape"></path>
                </g>
                <ellipse id="Oval-2" fill="#E8EFF4" cx="45.5" cy="122.5" rx="27.5" ry="7.5"></ellipse>
            </g>
        </g>
    </g>
</svg>