<?xml version="1.0" encoding="UTF-8" standalone="no"?>
<svg width="135px" height="213px" viewBox="0 0 135 213" version="1.1" xmlns="http://www.w3.org/2000/svg" xmlns:xlink="http://www.w3.org/1999/xlink">
    <!-- Generator: Sketch 39.1 (31720) - http://www.bohemiancoding.com/sketch -->
    <title>tablet</title>
    <desc>Created with Sketch.</desc>
    <defs></defs>
    <g id="Page-1" stroke="none" stroke-width="1" fill="none" fill-rule="evenodd">
        <g id="Artboard" transform="translate(-952.000000, -722.000000)">
            <g id="tablet" transform="translate(952.000000, 722.000000)">
                <g id="Layer_1">
                    <path d="M135,203.871429 C135,208.942857 130.95,213 125.8875,213 L9.1125,213 C4.05,213 0,208.942857 0,203.871429 L0,14.2 C0,9.12857143 4.05,5.07142857 9.1125,5.07142857 L125.8875,5.07142857 C130.95,5.07142857 135,9.12857143 135,14.2 L135,203.871429 L135,203.871429 Z" id="Shape" fill="#00233F"></path>
                    <path d="M135,198.8 C135,203.871429 130.95,207.928571 125.8875,207.928571 L9.1125,207.928571 C4.05,207.928571 0,203.871429 0,198.8 L0,9.12857143 C0,4.05714286 4.05,0 9.1125,0 L125.8875,0 C130.95,0 135,4.05714286 135,9.12857143 L135,198.8 L135,198.8 Z" id="Shape" fill="#0C466D"></path>
                    <g id="Group" fill="#00233F">
                        <path d="M0,9.12857143 C0,4.05714286 4.05,0 9.1125,0 L125.8875,0 C130.95,0 135,4.05714286 135,9.12857143 L135,198.8 C135,203.871429 130.95,207.928571 125.8875,207.928571" id="Shape"></path>
                        <path d="M125.8875,179.190476 C125.8875,183.585714 122.5125,186.966667 118.125,186.966667 L16.875,186.966667 C12.4875,186.966667 9.1125,183.585714 9.1125,179.190476 L9.1125,22.3142857 C9.1125,17.9190476 12.4875,14.5380952 16.875,14.5380952 L118.125,14.5380952 C122.5125,14.5380952 125.8875,17.9190476 125.8875,22.3142857 L125.8875,179.190476 L125.8875,179.190476 Z" id="Shape"></path>
                    </g>
                    <path d="M125.8875,173.780952 C125.8875,178.17619 122.5125,181.557143 118.125,181.557143 L16.875,181.557143 C12.4875,181.557143 9.1125,178.17619 9.1125,173.780952 L9.1125,16.5666667 C9.1125,12.1714286 12.4875,8.79047619 16.875,8.79047619 L118.125,8.79047619 C122.5125,8.79047619 125.8875,12.1714286 125.8875,16.5666667 L125.8875,173.780952 L125.8875,173.780952 Z" id="Shape" fill="#35DBDB"></path>
                    <path d="M9.1125,16.5666667 C9.1125,12.1714286 12.4875,8.79047619 16.875,8.79047619 L118.125,8.79047619 C122.5125,8.79047619 125.8875,12.1714286 125.8875,16.5666667 L125.8875,173.780952 C125.8875,178.17619 122.5125,181.557143 118.125,181.557143" id="Shape" fill="#1FC5C9"></path>
                    <path d="M118.125,8.79047619 C122.5125,8.79047619 125.8875,12.1714286 125.8875,16.5666667 L125.8875,173.780952 C125.8875,178.17619 122.5125,181.557143 118.125,181.557143" id="Shape" fill="#12AAB2"></path>
                    <path d="M16.875,181.557143 C12.4875,181.557143 9.1125,178.17619 9.1125,173.780952 L9.1125,16.5666667 C9.1125,12.1714286 12.4875,8.79047619 16.875,8.79047619" id="Shape" fill="#57F2EE"></path>
                    <path d="M88.0875,199.47619 C88.0875,201.842857 86.4,203.533333 84.0375,203.533333 L50.9625,203.533333 C48.6,203.533333 46.9125,201.842857 46.9125,199.47619 L46.9125,194.404762 C46.9125,192.038095 48.6,190.347619 50.9625,190.347619 L84.0375,190.347619 C86.4,190.347619 88.0875,192.038095 88.0875,194.404762 L88.0875,199.47619 L88.0875,199.47619 Z" id="Shape" fill="#03355B"></path>
                    <g id="Group" transform="translate(20.671875, 189.755952)" fill="#71A7BF">
                        <path d="M63.365625,14.1154762 L30.290625,14.1154762 C27.928125,14.1154762 25.903125,12.0869048 25.903125,9.7202381 L25.903125,4.64880952 C25.903125,2.28214286 27.928125,0.253571429 30.290625,0.253571429 L63.365625,0.253571429 C65.728125,0.253571429 67.753125,2.28214286 67.753125,4.64880952 L67.753125,9.7202381 C67.753125,12.0869048 65.728125,14.1154762 63.365625,14.1154762 L63.365625,14.1154762 Z M30.290625,0.929761905 C28.265625,0.929761905 26.578125,2.6202381 26.578125,4.64880952 L26.578125,9.7202381 C26.578125,11.7488095 28.265625,13.4392857 30.290625,13.4392857 L63.365625,13.4392857 C65.390625,13.4392857 67.078125,11.7488095 67.078125,9.7202381 L67.078125,4.64880952 C67.078125,2.6202381 65.390625,0.929761905 63.365625,0.929761905 L30.290625,0.929761905 L30.290625,0.929761905 Z" id="Shape"></path>
                        <path d="M12.740625,3.29642857 C12.740625,3.63452381 12.403125,3.97261905 12.065625,3.97261905 L0.928125,3.97261905 C0.590625,3.97261905 0.253125,3.63452381 0.253125,3.29642857 L0.253125,3.29642857 C0.253125,2.95833333 0.590625,2.6202381 0.928125,2.6202381 L12.065625,2.6202381 C12.403125,2.95833333 12.740625,3.29642857 12.740625,3.29642857 L12.740625,3.29642857 L12.740625,3.29642857 Z" id="Shape"></path>
                        <path d="M12.740625,7.01547619 C12.740625,7.35357143 12.403125,7.69166667 12.065625,7.69166667 L0.928125,7.69166667 C0.590625,7.69166667 0.253125,7.35357143 0.253125,7.01547619 L0.253125,7.01547619 C0.253125,6.67738095 0.590625,6.33928571 0.928125,6.33928571 L12.065625,6.33928571 C12.403125,6.33928571 12.740625,6.67738095 12.740625,7.01547619 L12.740625,7.01547619 L12.740625,7.01547619 Z" id="Shape"></path>
                        <path d="M12.740625,10.7345238 C12.740625,11.072619 12.403125,11.4107143 12.065625,11.4107143 L0.928125,11.4107143 C0.590625,11.4107143 0.253125,11.072619 0.253125,10.7345238 L0.253125,10.7345238 C0.253125,10.3964286 0.590625,10.0583333 0.928125,10.0583333 L12.065625,10.0583333 C12.403125,10.0583333 12.740625,10.3964286 12.740625,10.7345238 L12.740625,10.7345238 L12.740625,10.7345238 Z" id="Shape"></path>
                        <path d="M89.353125,3.29642857 C89.353125,3.63452381 89.015625,3.97261905 88.678125,3.97261905 L77.540625,3.97261905 C77.203125,3.97261905 76.865625,3.63452381 76.865625,3.29642857 L76.865625,3.29642857 C76.865625,2.95833333 77.203125,2.6202381 77.540625,2.6202381 L88.678125,2.6202381 C89.015625,2.95833333 89.353125,3.29642857 89.353125,3.29642857 L89.353125,3.29642857 L89.353125,3.29642857 Z" id="Shape"></path>
                        <path d="M88.678125,13.1011905 C88.340625,13.1011905 88.003125,12.7630952 88.003125,12.7630952 L88.003125,3.63452381 C88.003125,3.29642857 88.340625,3.29642857 88.678125,3.29642857 L88.678125,3.29642857 C89.015625,3.29642857 89.353125,3.63452381 89.353125,3.63452381 L89.353125,12.7630952 C89.353125,13.1011905 89.015625,13.1011905 88.678125,13.1011905 L88.678125,13.1011905 L88.678125,13.1011905 Z" id="Shape"></path>
                    </g>
                    <g id="Group" transform="translate(18.140625, 1.690476)" fill="#1FC5C9">
                        <path d="M7.846875,2.7047619 C7.846875,3.04285714 7.509375,3.71904762 6.834375,3.71904762 L1.096875,3.71904762 C0.759375,3.71904762 0.084375,3.38095238 0.084375,2.7047619 L0.084375,2.7047619 C0.084375,2.36666667 0.421875,1.69047619 1.096875,1.69047619 L6.834375,1.69047619 C7.509375,2.02857143 7.846875,2.36666667 7.846875,2.7047619 L7.846875,2.7047619 L7.846875,2.7047619 Z" id="Shape"></path>
                        <ellipse id="Oval" cx="96.946875" cy="2.7047619" rx="2.3625" ry="2.36666667"></ellipse>
                    </g>
                </g>
            </g>
        </g>
    </g>
</svg>