<?xml version="1.0" encoding="UTF-8" standalone="no"?>
<svg width="222px" height="202px" viewBox="0 0 222 202" version="1.1" xmlns="http://www.w3.org/2000/svg" xmlns:xlink="http://www.w3.org/1999/xlink">
    <!-- Generator: Sketch 39.1 (31720) - http://www.bohemiancoding.com/sketch -->
    <title>virtual-reality</title>
    <desc>Created with Sketch.</desc>
    <defs></defs>
    <g id="Page-1" stroke="none" stroke-width="1" fill="none" fill-rule="evenodd">
        <g id="Artboard" transform="translate(-194.000000, -890.000000)">
            <g id="virtual-reality" transform="translate(190.000000, 879.000000)">
                <rect id="Rectangle-7" fill="#F3F3F3" transform="translate(114.866207, 115.875921) rotate(-32.000000) translate(-114.866207, -115.875921) " x="15.5055509" y="59.4400233" width="198.721311" height="112.871795" rx="10"></rect>
                <g transform="translate(104.701029, 97.788281) rotate(-32.000000) translate(-104.701029, -97.788281) translate(20.201029, 36.288281)" id="Layer_1">
                    <g transform="translate(0.000000, 0.000000)">
                        <path d="M146.49086,0.225648301 L22.2515927,0.225648301 C16.1323717,0.225648301 11.1257963,4.9096652 11.1257963,10.6351358 L11.1257963,21.2888915 L157.616657,21.2888915 L157.616657,10.6351358 C157.616657,4.9096652 152.610081,0.225648301 146.49086,0.225648301 L146.49086,0.225648301 Z" id="Shape" fill="#E6E6E6"></path>
                        <polygon id="Shape" fill="#E6E6E6" points="69.7875281 86.0802508 62.3701108 115.752845 106.372342 115.752845 98.9549248 86.0802508"></polygon>
                        <path d="M4.97379915e-13,14.1861773 L4.97379915e-13,122.855243 L62.4798594,122.855243 L72.5866095,97.4122138 C74.2865579,93.1324703 79.5897508,89.6312923 84.3712264,89.6312923 C89.152702,89.6312923 94.4555654,93.1324703 96.1558434,97.4122138 L106.262594,122.855243 L168.742453,122.855243 L168.742453,14.1861773 L4.97379915e-13,14.1861773 L4.97379915e-13,14.1861773 Z" id="Shape" fill="#E6E6E6"></path>
                        <g id="Group" transform="translate(24.388558, 47.023212)" fill="#A0DDDF">
                            <ellipse id="Oval" cx="22.3402484" cy="21.4990758" rx="22.2515927" ry="21.3075115"></ellipse>
                            <ellipse id="Oval" cx="97.6250892" cy="21.4990758" rx="22.2515927" ry="21.3075115"></ellipse>
                        </g>
                        <path d="M54.5957637,60.9875285 L44.1063769,66.0098601 L38.8615187,76.0542076 C43.2066369,80.2149729 50.2509751,80.2149729 54.5957637,76.0542076 C58.9408819,71.8934423 58.9408819,65.1479782 54.5957637,60.9875285 L54.5957637,60.9875285 Z" id="Shape" fill="#E6E6E6"></path>
                        <path d="M38.8615187,60.9875285 C34.5164006,65.1482938 34.5164006,71.8937579 38.8615187,76.0542076 L54.5957637,60.9875285 C50.2506456,56.8267632 43.2066369,56.8267632 38.8615187,60.9875285 L38.8615187,60.9875285 Z" id="Shape" fill="#E6E6E6"></path>
                        <path d="M129.880934,60.9875285 L119.391547,66.0098601 L114.146689,76.0542076 C118.491807,80.2149729 125.536146,80.2149729 129.880934,76.0542076 C134.225393,71.8934423 134.226052,65.1479782 129.880934,60.9875285 L129.880934,60.9875285 Z" id="Shape" fill="#E6E6E6"></path>
                        <path d="M114.146689,60.9875285 C109.801571,65.1482938 109.801571,71.8937579 114.146689,76.0542076 L129.880934,60.9875285 C125.535816,56.8267632 118.491807,56.8267632 114.146689,60.9875285 L114.146689,60.9875285 Z" id="Shape" fill="#E6E6E6"></path>
                    </g>
                </g>
                <g transform="translate(104.924739, 97.521297) rotate(-32.000000) translate(-104.924739, -97.521297) translate(24.924739, 39.021297)" id="Layer_1">
                    <g transform="translate(-0.000000, 0.000000)">
                        <path d="M138.673543,0.213606838 L21.0641619,0.213606838 C15.2714862,0.213606838 10.5320809,4.64766654 10.5320809,10.0676039 L10.5320809,20.1528342 L149.205624,20.1528342 L149.205624,10.0676039 C149.205624,4.64766654 144.466219,0.213606838 138.673543,0.213606838 L138.673543,0.213606838 Z" id="Shape" fill="#EA4820"></path>
                        <polygon id="Shape" fill="#D92622" points="66.0633965 81.4866767 59.0418012 109.575826 100.695904 109.575826 93.6743084 81.4866767"></polygon>
                        <path d="M5.68434189e-14,13.4291482 L5.68434189e-14,116.299214 L59.1456931,116.299214 L68.7131081,92.2139224 C70.3223407,88.1625625 75.3425348,84.8482209 79.8688525,84.8482209 C84.3951701,84.8482209 89.4150523,88.1625625 91.0245968,92.2139224 L100.592012,116.299214 L159.737705,116.299214 L159.737705,13.4291482 L5.68434189e-14,13.4291482 L5.68434189e-14,13.4291482 Z" id="Shape" fill="#F76720"></path>
                        <g id="Group" transform="translate(23.087090, 44.513872)" fill="#A0DDDF">
                            <ellipse id="Oval" cx="21.1480866" cy="20.3518022" rx="21.0641619" ry="20.1704605"></ellipse>
                            <ellipse id="Oval" cx="92.415438" cy="20.3518022" rx="21.0641619" ry="20.1704605"></ellipse>
                        </g>
                        <path d="M51.6823233,57.7329988 L41.7526906,62.4873194 L36.7877182,71.9956618 C40.9009641,75.9343926 47.5693893,75.9343926 51.6823233,71.9956618 C55.7955692,68.056931 55.7955692,61.6714309 51.6823233,57.7329988 L51.6823233,57.7329988 Z" id="Shape" fill="#D0EEEF"></path>
                        <path d="M36.7877182,57.7329988 C32.6744723,61.6717297 32.6744723,68.0572297 36.7877182,71.9956618 L51.6823233,57.7329988 C47.5690774,53.794268 40.9009641,53.794268 36.7877182,57.7329988 L36.7877182,57.7329988 Z" id="Shape" fill="#FFFFFF"></path>
                        <path d="M122.949987,57.7329988 L113.020354,62.4873194 L108.055382,71.9956618 C112.168628,75.9343926 118.837053,75.9343926 122.949987,71.9956618 C127.062609,68.056931 127.063233,61.6714309 122.949987,57.7329988 L122.949987,57.7329988 Z" id="Shape" fill="#D0EEEF"></path>
                        <path d="M108.055382,57.7329988 C103.942136,61.6717297 103.942136,68.0572297 108.055382,71.9956618 L122.949987,57.7329988 C118.836741,53.794268 112.168628,53.794268 108.055382,57.7329988 L108.055382,57.7329988 Z" id="Shape" fill="#FFFFFF"></path>
                    </g>
                </g>
            </g>
        </g>
    </g>
</svg>