<?xml version="1.0" encoding="UTF-8"?>
<svg width="122px" height="25px" viewBox="0 0 122 25" version="1.1" xmlns="http://www.w3.org/2000/svg" xmlns:xlink="http://www.w3.org/1999/xlink">
    <!-- Generator: Sketch 39.1 (31720) - http://www.bohemiancoding.com/sketch -->
    <title>facebook-1</title>
    <desc>Created with Sketch.</desc>
    <defs></defs>
    <g id="Page-1" stroke="none" stroke-width="1" fill="none" fill-rule="evenodd">
        <g id="Artboard" transform="translate(-185.000000, -1291.000000)">
            <g id="partner-group" transform="translate(169.000000, 1275.000000)">
                <g id="partners-visible">
                    <g id="facebook-1">
                        <g id="Group">
                            <polygon id="Shape" points="0 0 149 0 149 56 0 56"></polygon>
                            <g transform="translate(15.684211, 15.680000)" id="Shape" fill="#3B5998">
                                <path d="M62.7486053,12.09432 C61.749297,12.09432 61.0289436,12.42192 60.2985075,12.75568 L60.2985075,20.30784 C60.9981353,20.37448 61.399203,20.37448 62.0629812,20.37448 C64.4615451,20.37448 64.7903534,19.27632 64.7903534,17.74304 L64.7903534,14.13608 C64.7903534,13.00376 64.4144925,12.09432 62.7486053,12.09432 L62.7486053,12.09432 Z M46.8190489,11.68216 C45.1548421,11.68216 44.7750602,12.59552 44.7750602,13.72672 L44.7750602,14.36232 L48.860797,14.36232 L48.860797,13.72672 C48.860797,12.59552 48.481015,11.68216 46.8190489,11.68216 L46.8190489,11.68216 Z M15.9603647,19.54288 C15.9603647,20.43776 16.382718,20.90256 17.3148083,20.90256 C18.3146767,20.90256 18.9067556,20.57664 19.6366316,20.24176 L19.6366316,18.45032 L17.4503647,18.45032 C16.4152068,18.45032 15.9603647,18.64296 15.9603647,19.54288 L15.9603647,19.54288 Z M78.2440451,12.09432 C76.5770376,12.09432 75.9995226,13.00376 75.9995226,14.13608 L75.9995226,18.26832 C75.9995226,19.40344 76.5770376,20.31568 78.2440451,20.31568 C79.9065714,20.31568 80.4885677,19.40344 80.4885677,18.26832 L80.4885677,14.13608 C80.4880075,13.00376 79.9060113,12.09432 78.2440451,12.09432 L78.2440451,12.09432 Z M7.79113158,24.17632 L2.89093609,24.17632 L2.89093609,12.31888 L0.442518797,12.31888 L0.442518797,8.23312 L2.89149624,8.23312 L2.89149624,5.7792 C2.89149624,2.44552 4.27338722,0.46368 8.20116165,0.46368 L11.4713195,0.46368 L11.4713195,4.55056 L9.42733083,4.55056 C7.8981203,4.55056 7.79729323,5.12176 7.79729323,6.18744 L7.79113158,8.23256 L11.4937256,8.23256 L11.0607293,12.31832 L7.79113158,12.31832 L7.79113158,24.17632 L7.79113158,24.17632 Z M24.5379474,24.20712 L20.453891,24.20712 L20.2774436,23.17448 C18.412703,24.20712 16.7484962,24.37456 15.6506015,24.37456 C12.6554774,24.37456 11.0612895,22.37424 11.0612895,19.60784 C11.0612895,16.34416 12.9215489,15.17936 16.2494023,15.17936 L19.6366316,15.17936 L19.6366316,14.47376 C19.6366316,12.80776 19.4456203,12.31888 16.8829323,12.31888 L12.6930075,12.31888 L13.1024774,8.23312 L17.6822669,8.23312 C23.3050564,8.23312 24.5379474,10.00888 24.5379474,14.5068 L24.5379474,24.20712 L24.5379474,24.20712 Z M38.4257556,12.61848 C35.8843534,12.1828 35.1544774,12.08704 33.9316692,12.08704 C31.7353195,12.08704 31.0715414,12.57144 31.0715414,14.43624 L31.0715414,17.96368 C31.0715414,19.82848 31.7353195,20.31512 33.9316692,20.31512 C35.1544774,20.31512 35.8843534,20.21768 38.4257556,19.78032 L38.4257556,23.76584 C36.199718,24.2648 34.7494887,24.39584 33.5238797,24.39584 C28.2629474,24.39584 26.171906,21.63 26.171906,17.6344 L26.171906,14.77224 C26.171906,10.77328 28.2629474,8.0024 33.5238797,8.0024 C34.7494887,8.0024 36.199718,8.134 38.4257556,8.6352 L38.4257556,12.61848 L38.4257556,12.61848 Z M53.7604323,17.6344 L44.7745,17.6344 L44.7745,17.96368 C44.7745,19.82848 45.4388383,20.31512 47.6346278,20.31512 C49.6085977,20.31512 50.8134812,20.21768 53.3504023,19.78032 L53.3504023,23.76584 C50.9036654,24.2648 49.6287632,24.39584 47.2285188,24.39584 C41.9670263,24.39584 39.8748647,21.63 39.8748647,17.6344 L39.8748647,14.36176 C39.8748647,10.86568 41.4270414,8.0024 46.8184887,8.0024 C52.2099361,8.0024 53.7604323,10.83264 53.7604323,14.36176 L53.7604323,17.6344 L53.7604323,17.6344 Z M69.6894286,17.71 C69.6894286,21.57176 68.5853722,24.38856 61.8971767,24.38856 C59.4818083,24.38856 58.065188,24.17632 55.3994323,23.7664 L55.3994323,1.6912 L60.2979474,0.87416 L60.2979474,8.596 C61.3566316,8.20288 62.7267594,8.00296 63.9736541,8.00296 C68.8727293,8.00296 69.6888684,10.19872 69.6888684,13.72728 L69.6888684,17.71 L69.6894286,17.71 Z M85.3921241,17.794 C85.3921241,21.12544 84.0163947,24.35664 78.2602895,24.35664 C72.5013835,24.35664 71.0998872,21.12544 71.0998872,17.794 L71.0998872,14.57736 C71.0998872,11.24424 72.5013835,8.01248 78.2602895,8.01248 C84.0163947,8.01248 85.3921241,11.24424 85.3921241,14.57736 L85.3921241,17.794 L85.3921241,17.794 Z M101.084177,17.794 C101.084177,21.12544 99.7067669,24.35664 93.951782,24.35664 C88.1928759,24.35664 86.7913797,21.12544 86.7913797,17.794 L86.7913797,14.57736 C86.7913797,11.24424 88.1928759,8.01248 93.951782,8.01248 C99.7067669,8.01248 101.084177,11.24424 101.084177,14.57736 L101.084177,17.794 L101.084177,17.794 Z M117.18794,24.17632 L111.878274,24.17632 L107.387549,16.68184 L107.387549,24.17632 L102.487353,24.17632 L102.487353,1.69064 L107.387549,0.8736 L107.387549,15.34904 L111.878274,8.23312 L117.18794,8.23312 L112.285504,15.99864 L117.18794,24.17632 L117.18794,24.17632 Z M93.9349774,12.09432 C92.2707707,12.09432 91.6932556,13.00376 91.6932556,14.13608 L91.6932556,18.26832 C91.6932556,19.40344 92.2707707,20.31568 93.9349774,20.31568 C95.5969436,20.31568 96.1851015,19.40344 96.1851015,18.26832 L96.1851015,14.13608 C96.1851015,13.00376 95.5969436,12.09432 93.9349774,12.09432 L93.9349774,12.09432 Z M119.984771,21.37968 C120.809872,21.37968 121.466929,22.05224 121.466929,22.89224 C121.466929,23.74512 120.809312,24.4104 119.978609,24.4104 C119.151827,24.4104 118.481327,23.74512 118.481327,22.89224 C118.481327,22.05224 119.151827,21.37968 119.978609,21.37968 L119.984771,21.37968 L119.984771,21.37968 Z M119.978609,21.61488 C119.313711,21.61488 118.769805,22.18664 118.769805,22.89224 C118.769805,23.61072 119.314271,24.1752 119.984771,24.1752 C120.655831,24.18192 121.191895,23.61072 121.191895,22.89896 C121.191895,22.1872 120.655831,21.61488 119.984771,21.61488 L119.978609,21.61488 L119.978609,21.61488 Z M119.696853,23.77256 L119.427981,23.77256 L119.427981,22.08472 C119.569139,22.06512 119.703575,22.04552 119.905229,22.04552 C120.160658,22.04552 120.327583,22.09928 120.43009,22.17264 C120.529237,22.24712 120.582451,22.3608 120.582451,22.52152 C120.582451,22.7444 120.435692,22.87824 120.254763,22.93256 L120.254763,22.94544 C120.402083,22.97288 120.50235,23.10616 120.536519,23.35424 C120.575729,23.61688 120.61662,23.71712 120.642947,23.772 L120.361192,23.772 C120.321421,23.71712 120.28053,23.56312 120.246921,23.3408 C120.207711,23.12632 120.099041,23.04568 119.883944,23.04568 L119.697414,23.04568 L119.697414,23.77256 L119.696853,23.77256 Z M119.696853,22.83848 L119.891786,22.83848 C120.112485,22.83848 120.300135,22.75728 120.300135,22.5484 C120.300135,22.40056 120.193707,22.25328 119.891786,22.25328 C119.803842,22.25328 119.742786,22.26 119.696853,22.26616 L119.696853,22.83848 L119.696853,22.83848 Z"></path>
                            </g>
                        </g>
                    </g>
                </g>
            </g>
        </g>
    </g>
</svg>