<?xml version="1.0" encoding="UTF-8"?>
<svg width="191px" height="24px" viewBox="0 0 191 24" version="1.1" xmlns="http://www.w3.org/2000/svg" xmlns:xlink="http://www.w3.org/1999/xlink">
    <!-- Generator: Sketch 39.1 (31720) - http://www.bohemiancoding.com/sketch -->
    <title>foursquare</title>
    <desc>Created with Sketch.</desc>
    <defs></defs>
    <g id="Page-1" stroke="none" stroke-width="1" fill="none" fill-rule="evenodd">
        <g id="Artboard" transform="translate(-807.000000, -1292.000000)" fill="#0D389E">
            <g id="partner-group" transform="translate(169.000000, 1275.000000)">
                <g id="partners-visible">
                    <g id="foursquare" transform="translate(638.000000, 17.000000)">
                        <g id="Group">
                            <path d="M54.7811956,0.449030327 L50.2203057,0.449030327 C49.9128439,0.449030327 49.6566149,0.705007818 49.6566149,1.01210276 L49.6566149,12.6845723 C49.6566149,14.5787146 48.8879277,15.6026246 47.1456224,15.6026246 C45.403317,15.6026246 44.6346299,14.5787146 44.6346299,12.6845723 L44.6346299,1.01210276 C44.6346299,0.704942783 44.4296987,0.449030327 44.070939,0.449030327 L39.4588814,0.449030327 C39.1513545,0.449030327 38.8951905,0.705007818 38.8951905,1.01210276 L38.8951905,13.8109122 C38.8951905,17.7528746 41.7648776,20.9780869 47.0943896,20.9780869 C52.4751343,20.9780869 55.3961193,17.804057 55.3961193,13.8109122 L55.3961193,1.01210276 C55.3961193,0.704942783 55.1398252,0.449030327 54.7811956,0.449030327 L54.7811956,0.449030327 Z M87.8855838,8.64011491 L84.5546063,7.51383997 C83.580923,7.1554975 83.4784574,6.64360755 83.4784574,6.28513501 C83.4784574,5.77324506 83.9909155,5.26135512 84.9645337,5.26135512 C86.0406827,5.26135512 87.5780569,5.5685151 89.0642635,6.69479004 C89.2691946,6.84833752 89.5766564,6.84833752 89.7303548,6.64360755 L92.2925801,3.41826516 C92.4463436,3.2135352 92.4463436,2.90637521 92.2413473,2.70151518 C90.0378166,0.858555291 87.3730607,0.192987802 84.913301,0.192987802 C80.147545,0.192987802 77.2777928,3.1623527 77.2777928,6.3876951 C77.2777928,8.89622247 78.7638691,11.2512024 81.8899155,12.2749823 L84.8108354,13.2988922 C86.245744,13.8109122 86.5019731,14.1692547 86.5019731,14.7835096 C86.5019731,15.3467122 85.9382822,15.9609671 84.7596026,15.9609671 C83.1198279,15.9609671 81.2236939,14.9883697 79.9425487,13.9132772 C79.7376176,13.7597298 79.4301558,13.7597298 79.2764574,13.9644597 L76.6629342,17.4457146 C76.5092359,17.6504445 76.5092359,17.9576045 76.7142321,18.1623995 C78.6102359,19.8005644 81.4287553,21.0292694 85.0158967,21.0292694 C89.4741909,21.0292694 92.7539356,18.418377 92.7539356,14.5275322 C92.7538705,11.8142098 91.0627328,9.71520737 87.8855838,8.64011491 L87.8855838,8.64011491 Z M66.9775286,9.04976995 L64.0053108,9.04976995 L64.0053108,5.5685151 L66.9775286,5.5685151 C68.6686012,5.5685151 69.2835249,6.33638254 69.2835249,7.30911001 C69.2835249,8.28183748 68.6173684,9.04976995 66.9775286,9.04976995 L66.9775286,9.04976995 Z M71.4871207,13.0940972 C73.9468804,11.8653923 75.1767928,10.0223673 75.1767928,7.20667999 C75.1767928,3.67424265 72.3070406,0.500212818 67.4387539,0.500212818 L58.6757989,0.500212818 C58.3683371,0.500212818 58.1633408,0.8073728 58.1633408,1.06328526 L58.1633408,20.1078545 C58.1633408,20.4150144 58.419635,20.6197444 58.6757989,20.6197444 L63.3903872,20.6197444 C63.697849,20.6197444 63.9027802,20.3637669 63.9027802,20.1078545 L63.9027802,13.9644597 L65.7476813,13.9644597 L69.0785937,20.1590369 C69.2322921,20.4150144 69.539819,20.6197444 69.8472808,20.6197444 L75.2792584,20.6197444 C75.5867853,20.6197444 75.6892509,20.4150144 75.5355525,20.1590369 L71.4871207,13.0940972 L71.4871207,13.0940972 Z M14.348696,0.449030327 L0.666156442,0.449030327 C0.256229039,0.449030327 0,0.756190309 0,1.06328526 L0,20.0054895 C0,20.3126495 0.256294138,20.5685619 0.563690866,20.5685619 L5.17581357,20.5685619 C5.48327539,20.5685619 5.68827164,20.2614019 5.68827164,20.0054895 L5.68827164,13.8620947 L11.5301766,13.8620947 C11.8377035,13.8620947 12.0938674,13.6572347 12.1451002,13.3500747 L13.016318,9.15213493 C13.0675508,8.89615744 12.9650201,8.64011491 12.6063255,8.64011491 L5.73950443,8.64011491 L5.73950443,5.5685151 L13.4774782,5.5685151 C13.7850051,5.5685151 14.0411691,5.36378514 14.0924018,5.05649508 L14.9123868,1.11453278 C14.9636196,0.807307765 14.7586234,0.449030327 14.348696,0.449030327 L14.348696,0.449030327 Z M189.50481,5.61963256 C189.812272,5.61963256 190.068501,5.41490259 190.119733,5.10761254 L190.939653,1.16565024 C190.990951,0.807307765 190.939653,0.500212818 190.427195,0.500212818 L176.642255,0.500212818 C176.232328,0.500212818 176.027332,0.8073728 176.027332,1.11446775 L176.027332,20.056672 C176.027332,20.3638319 176.283626,20.6197444 176.591022,20.6197444 L189.14605,20.6197444 C189.453577,20.6197444 189.709741,20.4150144 189.761039,20.1078545 L190.580959,16.1657621 C190.632192,15.8074196 190.580959,15.5003247 190.068501,15.5003247 L181.715538,15.5003247 L181.715538,13.1965272 L187.557508,13.1965272 C187.86497,13.1965272 188.121199,12.9917973 188.172432,12.6846373 L189.043585,8.48656744 C189.094882,8.23058995 188.992352,7.9746775 188.633657,7.9746775 L181.715603,7.9746775 L181.715603,5.67088008 L189.50481,5.67088008 L189.50481,5.61963256 L189.50481,5.61963256 Z M144.614016,11.8654573 L142.76918,11.8654573 L144.614016,5.72206257 L146.458852,11.8654573 L144.614016,11.8654573 L144.614016,11.8654573 Z M148.406154,0.909737782 C148.354921,0.653760292 148.047459,0.449030327 147.79123,0.449030327 L141.4881,0.449030327 C141.231806,0.449030327 140.924409,0.653760292 140.873176,0.909737782 L135.082439,20.1078545 C134.979973,20.3638319 135.133672,20.6197444 135.441199,20.6197444 L140.617012,20.6197444 C140.873241,20.6197444 141.180638,20.3637669 141.231936,20.1078545 L142.051856,17.189672 L147.227604,17.189672 L148.098822,20.1078545 C148.150055,20.3638319 148.457582,20.6197444 148.713746,20.6197444 L153.838327,20.6197444 C154.094556,20.6197444 154.248254,20.3637669 154.197021,20.1078545 L148.406154,0.909737782 L148.406154,0.909737782 Z M133.493832,0.449030327 L128.932942,0.449030327 C128.62548,0.449030327 128.369316,0.705007818 128.369316,1.01210276 L128.369316,12.6845723 C128.369316,14.5787146 127.600564,15.6026246 125.858324,15.6026246 C124.115888,15.6026246 123.347331,14.5787146 123.347331,12.6845723 L123.347331,1.01210276 C123.347331,0.704942783 123.142335,0.449030327 122.783575,0.449030327 L118.222751,0.449030327 C117.915224,0.449030327 117.65906,0.705007818 117.65906,1.01210276 L117.65906,13.8109122 C117.65906,17.7528746 120.528812,20.9780869 125.858324,20.9780869 C131.239003,20.9780869 134.159988,17.804057 134.159988,13.8109122 L134.159988,1.01210276 C134.057523,0.704942783 133.801229,0.449030327 133.493832,0.449030327 L133.493832,0.449030327 Z M165.009613,9.04976995 L162.037395,9.04976995 L162.037395,5.5685151 L165.009613,5.5685151 C166.649453,5.5685151 167.315675,6.33638254 167.315675,7.30911001 C167.315675,8.28183748 166.649453,9.04976995 165.009613,9.04976995 L165.009613,9.04976995 Z M169.51914,13.0940972 C171.9789,11.8653923 173.208812,10.0223673 173.208812,7.20667999 C173.208812,3.67424265 170.339125,0.500212818 165.470838,0.500212818 L156.707883,0.500212818 C156.400357,0.500212818 156.19536,0.8073728 156.19536,1.06328526 L156.19536,20.1078545 C156.19536,20.4150144 156.451654,20.6197444 156.707883,20.6197444 L161.422407,20.6197444 C161.729934,20.6197444 161.934865,20.3637669 161.934865,20.1078545 L161.934865,13.9644597 L163.779701,13.9644597 L167.110613,20.1590369 C167.264377,20.4150144 167.571838,20.6197444 167.879365,20.6197444 L173.311343,20.6197444 C173.618805,20.6197444 173.72127,20.4150144 173.567572,20.1590369 L169.51914,13.0940972 L169.51914,13.0940972 Z M104.693974,15.6538721 C102.080451,15.6538721 100.286913,13.3500747 100.286913,10.5343874 C100.286913,7.7187 102.080451,5.41490259 104.693974,5.41490259 C107.307433,5.41490259 109.101036,7.7187 109.101036,10.5343874 C109.101036,13.4012572 107.307498,15.6538721 104.693974,15.6538721 L104.693974,15.6538721 Z M115.148002,18.111217 C114.481846,18.3671945 113.303166,18.6742895 111.91949,18.3671945 C112.124486,18.1624645 112.329483,18.008852 112.534479,17.8041221 C115.250468,14.9371222 116.01909,10.6368174 114.686777,6.95076753 C113.303166,3.1623527 109.664727,0.551460344 105.61636,0.244170293 C101.51676,-0.0629896884 97.3659281,1.93371278 95.4186264,5.46615012 C93.3687941,9.20338246 93.7274888,14.1180722 96.5460082,17.394467 C98.9545351,20.2102845 102.797906,21.3877419 106.333879,20.8757219 L106.487578,21.0292694 C108.486112,22.8723593 111.663326,23.9474518 114.430613,23.9474518 L115.557929,18.418312 C115.557929,18.213582 115.404231,18.008787 115.148002,18.111217 L115.148002,18.111217 Z M25.9813381,15.6538721 C23.3678149,15.6538721 21.5742117,13.3500747 21.5742117,10.5343874 C21.5742117,7.7187 23.3678149,5.41490259 25.9813381,5.41490259 C28.5947962,5.41490259 30.3883995,7.7187 30.3883995,10.5343874 C30.4396973,13.4012572 28.6460941,15.6538721 25.9813381,15.6538721 L25.9813381,15.6538721 Z M26.9037236,0.192922767 C22.804059,-0.114237214 18.6532918,1.88246525 16.7059901,5.41490259 C14.6561578,9.15213493 15.0148524,14.0668247 17.8333067,17.3432195 C21.8304407,22.0019968 29.6197774,22.1555443 33.8218425,17.7528746 C36.5378313,14.8858746 37.3064533,10.5855699 35.9741404,6.89952001 C34.5905297,3.11110518 30.9521554,0.551395309 26.9037236,0.192922767 L26.9037236,0.192922767 Z" id="Shape"></path>
                        </g>
                    </g>
                </g>
            </g>
        </g>
    </g>
</svg>