<?xml version="1.0" encoding="UTF-8"?>
<svg width="108px" height="35px" viewBox="0 0 108 35" version="1.1" xmlns="http://www.w3.org/2000/svg" xmlns:xlink="http://www.w3.org/1999/xlink">
    <!-- Generator: Sketch 39.1 (31720) - http://www.bohemiancoding.com/sketch -->
    <title>google-2015</title>
    <desc>Created with Sketch.</desc>
    <defs></defs>
    <g id="Page-1" stroke="none" stroke-width="1" fill="none" fill-rule="evenodd">
        <g id="Artboard" transform="translate(-655.000000, -1285.000000)">
            <g id="partner-group" transform="translate(169.000000, 1275.000000)">
                <g id="partners-visible">
                    <g id="google-2015" transform="translate(486.000000, 10.000000)">
                        <g id="Layer_1">
                            <path d="M13.3877045,0 L14.3413985,0 C17.6523361,0.0717948718 20.9092911,1.4 23.2485406,3.75128205 C22.3848177,4.63076923 21.5031006,5.47435897 20.657372,6.35384615 C19.3437934,5.16923077 17.7603015,4.25384615 16.0328558,3.93076923 C13.4776756,3.39230769 10.724559,3.87692308 8.58324602,5.33076923 C6.24399658,6.85641026 4.66050465,9.44102564 4.31861435,12.2051282 C3.94073559,14.9333333 4.71448733,17.8051282 6.49591575,19.9230769 C8.20536726,21.9871795 10.8145301,23.2794872 13.5136641,23.3692308 C16.0328558,23.5128205 18.6600128,22.7410256 20.4954239,20.9820513 C21.934962,19.7435897 22.6007484,17.8589744 22.8166791,16.0282051 C19.8296375,16.0282051 16.842596,16.0461538 13.8555544,16.0282051 L13.8555544,12.3307692 L26.4335187,12.3307692 C27.0813108,16.2974359 26.145611,20.7666667 23.122581,23.6025641 C21.1072276,25.6128205 18.3181225,26.7974359 15.4750347,27.0307692 C12.7219181,27.3 9.87883032,26.7794872 7.43161552,25.4512821 C4.49855661,23.8897436 2.15930717,21.2512821 1.00767668,18.1461538 C-0.0719769058,15.2923077 -0.0899711323,12.0615385 0.917705549,9.18974359 C1.8354111,6.56923077 3.59884529,4.25384615 5.86611782,2.63846154 C8.04341922,1.04102564 10.6885705,0.161538462 13.3877045,0 L13.3877045,0 Z" id="Shape" fill="#3780FF"></path>
                            <path d="M85.5445525,0.933333333 L89.395317,0.933333333 L89.395317,26.5641026 C88.1177269,26.5641026 86.8221426,26.5820513 85.5445525,26.5461538 C85.5625468,18.0205128 85.5445525,9.47692308 85.5445525,0.933333333 L85.5445525,0.933333333 Z" id="Shape" fill="#38B137"></path>
                            <path d="M34.9987704,9.81794872 C37.3740083,9.36923077 39.9471827,9.87179487 41.9085534,11.2897436 C43.6899818,12.5461538 44.9315834,14.5205128 45.3094622,16.674359 C45.7953063,19.1692308 45.1835026,21.8974359 43.5640222,23.8717949 C41.8185823,26.0794872 38.9575003,27.2641026 36.1683952,27.0846154 C33.613215,26.9410256 31.1300118,25.6666667 29.6184967,23.5846154 C27.9090452,21.2871795 27.495178,18.1282051 28.4308778,15.4358974 C29.3665776,12.5461538 32.0117289,10.3384615 34.9987704,9.81794872 L34.9987704,9.81794872 Z M35.5385972,13.2282051 C34.566909,13.4794872 33.6671977,14.0358974 33.0194055,14.825641 C31.2739656,16.9076923 31.3819309,20.3 33.3073132,22.2384615 C34.404961,23.3512821 36.0604298,23.8717949 37.5899391,23.5666667 C39.0114829,23.3153846 40.2530846,22.3641026 40.9368652,21.1076923 C42.1244841,18.9717949 41.7825938,16.0282051 39.9651769,14.3589744 C38.7955522,13.2820513 37.0861007,12.8333333 35.5385972,13.2282051 L35.5385972,13.2282051 Z" id="Shape" fill="#FA3913"></path>
                            <path d="M54.0726505,9.81794872 C56.7897787,9.2974359 59.758826,10.0512821 61.7921736,11.9538462 C65.1031113,14.9153846 65.4629958,20.4615385 62.6379023,23.8717949 C60.9284508,26.025641 58.1573399,27.2102564 55.4222175,27.0846154 C52.8130546,27.0128205 50.2398803,25.7205128 48.6923768,23.5846154 C46.9469368,21.2333333 46.5690581,18.0025641 47.5587405,15.2564103 C48.548423,12.4564103 51.1395916,10.3205128 54.0726505,9.81794872 L54.0726505,9.81794872 Z M54.6124773,13.2282051 C53.6407891,13.4794872 52.7410777,14.0358974 52.0932856,14.8076923 C50.3658398,16.8538462 50.4378167,20.1923077 52.2912221,22.1487179 C53.3888699,23.3153846 55.0983214,23.8897436 56.6818133,23.5666667 C58.085363,23.2974359 59.3449588,22.3641026 60.0287394,21.1076923 C61.1983642,18.9538462 60.8564739,16.0102564 59.0210628,14.3410256 C57.851438,13.2641026 56.1419865,12.8333333 54.6124773,13.2282051 L54.6124773,13.2282051 Z" id="Shape" fill="#FCBD06"></path>
                            <path d="M70.2494601,10.8589744 C72.3187961,9.56666667 75.0719128,9.20769231 77.3031968,10.3205128 C78.0049717,10.625641 78.5807869,11.1461538 79.1386079,11.6666667 C79.1566022,11.1820513 79.1386079,10.6794872 79.1566022,10.1769231 C80.3622153,10.1948718 81.5678285,10.1769231 82.7914359,10.1948718 L82.7914359,26.025641 C82.7734417,28.4128205 82.161638,30.9435897 80.4341922,32.6846154 C78.5447985,34.6051282 75.647728,35.1974359 73.0385652,34.8025641 C70.2494601,34.3897436 67.8202395,32.3615385 66.7405859,29.7948718 C67.8202395,29.274359 68.9538758,28.8615385 70.0695178,28.3769231 C70.6993157,29.8487179 71.9769058,31.1051282 73.578392,31.3923077 C75.1798781,31.6794872 77.0332834,31.2846154 78.0769486,29.9564103 C79.1925906,28.5923077 79.1925906,26.725641 79.1386079,25.0564103 C78.3108735,25.8641026 77.3571795,26.5820513 76.205549,26.8512821 C73.7043515,27.5512821 70.9512349,26.6897436 69.0258527,25.0025641 C67.0824762,23.3153846 65.9308457,20.7128205 66.0388111,18.1282051 C66.0927938,15.2025641 67.7482626,12.3846154 70.2494601,10.8589744 L70.2494601,10.8589744 Z M73.9742649,13.1564103 C72.8766171,13.3358974 71.8509462,13.9461538 71.1491714,14.7897436 C69.4577141,16.8 69.4577141,20.0128205 71.1671656,21.9871795 C72.1388538,23.1538462 73.7043515,23.8 75.2158666,23.6384615 C76.6374105,23.4948718 77.950989,22.5974359 78.6527638,21.3589744 C79.8403828,19.2589744 79.6424463,16.4051282 78.0409601,14.574359 C77.0512777,13.4435897 75.4677857,12.8871795 73.9742649,13.1564103 L73.9742649,13.1564103 Z" id="Shape" fill="#3780FF"></path>
                            <path d="M94.0198332,11.774359 C96.1791404,9.76410256 99.5080723,9.08205128 102.279183,10.1410256 C104.90634,11.1282051 106.579803,13.6230769 107.425532,16.1897436 C103.520785,17.8051282 99.6340319,19.4025641 95.7292847,21.0179487 C96.2691115,22.0410256 97.0968459,22.974359 98.212488,23.3512821 C99.7779857,23.9076923 101.649385,23.7102564 102.962964,22.6692308 C103.484796,22.274359 103.898664,21.7538462 104.294537,21.2512821 C105.284219,21.9153846 106.273901,22.5615385 107.263584,23.225641 C105.860034,25.325641 103.502791,26.7974359 100.965605,27.0307692 C98.1585053,27.3717949 95.1714637,26.2948718 93.3540468,24.1051282 C90.3670052,20.6589744 90.6549129,14.8794872 94.0198332,11.774359 L94.0198332,11.774359 Z M95.9452154,15.0948718 C95.3334117,15.974359 95.0814926,17.0512821 95.0994868,18.1102564 C97.7086496,17.0333333 100.317812,15.9564103 102.926975,14.8615385 C102.495114,13.8564103 101.451449,13.2461538 100.389789,13.0846154 C98.6803379,12.7794872 96.8989094,13.6948718 95.9452154,15.0948718 L95.9452154,15.0948718 Z" id="Shape" fill="#FA3913"></path>
                        </g>
                    </g>
                </g>
            </g>
        </g>
    </g>
</svg>