<?xml version="1.0" encoding="UTF-8"?>
<svg width="132px" height="35px" viewBox="0 0 132 35" version="1.1" xmlns="http://www.w3.org/2000/svg" xmlns:xlink="http://www.w3.org/1999/xlink">
    <!-- Generator: Sketch 39.1 (31720) - http://www.bohemiancoding.com/sketch -->
    <title>paypal</title>
    <desc>Created with Sketch.</desc>
    <defs></defs>
    <g id="Page-1" stroke="none" stroke-width="1" fill="none" fill-rule="evenodd">
        <g id="Artboard" transform="translate(-340.000000, -1285.000000)">
            <g id="partner-group" transform="translate(169.000000, 1275.000000)">
                <g id="partners-visible">
                    <g id="paypal" transform="translate(171.000000, 9.000000)">
                        <g id="Group" transform="translate(66.642839, 18.464325) scale(1, -1) translate(-66.642839, -18.464325) translate(0.142839, 0.964325)">
                            <g id="Clipped">
                                <g id="Group" transform="translate(0.472180, 0.443810)">
                                    <path d="M24.2442857,31.0819182 C22.7080832,32.8270862 19.9311723,33.5752767 16.3788187,33.5752767 L6.06864231,33.5752767 C5.34214358,33.5756622 4.72330866,33.0492531 4.60952523,32.3340854 L0.318436244,5.19525912 C0.278168711,4.94046842 0.351854289,4.68087983 0.520080614,4.48488162 C0.688306939,4.28888341 0.934203365,4.17613133 1.19298881,4.17632978 L7.55804296,4.17632978 L9.15664797,14.2823893 L9.10709305,13.9659175 C9.21870131,14.6796909 9.83500775,15.2062674 10.5597863,15.2071088 L13.5844718,15.2071088 C19.5264738,15.2071088 24.1791302,17.6126601 25.5382197,24.5713805 C25.5785978,24.7771786 25.6134698,24.9774887 25.6437533,25.1732256 C26.0475342,27.7452447 25.6410003,29.4959007 24.2452034,31.0810036" id="Shape" fill="#003087"></path>
                                    <path d="M102.166644,18.1678577 C101.777546,15.621449 99.8265507,15.621449 97.939793,15.621449 L96.8661031,15.621449 L97.6195214,20.3758429 C97.6654056,20.6630456 97.9131802,20.8743316 98.2050036,20.8743316 L98.6977997,20.8743316 C99.9825569,20.8743316 101.195735,20.8743316 101.821595,20.145349 C102.195092,19.709057 102.307967,19.0614789 102.166644,18.1678577 M101.345317,24.8119356 L94.2277624,24.8119356 C93.7408045,24.8116945 93.3261623,24.4588986 93.2495116,23.9795965 L90.3734909,5.78978701 C90.3467052,5.61913247 90.3960629,5.44533154 90.5086134,5.31398661 C90.6211639,5.18264168 90.7856718,5.10686434 90.9589731,5.10653727 L94.6113542,5.10653727 C94.9518149,5.10653727 95.2418029,5.35349501 95.2950286,5.68825994 L96.1117671,10.8469327 C96.1870171,11.325299 96.6018102,11.6792718 97.0881825,11.6792718 L99.3401783,11.6792718 C104.029542,11.6792718 106.734874,13.9393924 107.44149,18.4221327 C107.759926,20.3813308 107.454338,21.9216154 106.533901,22.9999975 C105.521696,24.1853947 103.727624,24.8128503 101.346235,24.8128503" id="Shape" fill="#009CDE"></path>
                                    <path d="M51.4003818,18.1678577 C51.0112839,15.621449 49.0602883,15.621449 47.172613,15.621449 L46.098923,15.621449 L46.8523414,20.3758429 C46.8982255,20.6630456 47.1460001,20.8743316 47.4378236,20.8743316 L47.9306197,20.8743316 C49.2153769,20.8743316 50.4285547,20.8743316 51.054415,20.145349 C51.42883,19.709057 51.5417051,19.0614789 51.4003818,18.1678577 M50.5790549,24.8119356 L43.4615001,24.8119356 C42.9751277,24.8119356 42.5603347,24.4588775 42.4841669,23.9795965 L39.6072285,5.78978701 C39.5801168,5.6190762 39.629356,5.44509265 39.7419757,5.31366704 C39.8545953,5.18224142 40.0193027,5.10655215 40.1927107,5.10653727 L43.5918112,5.10653727 C44.0781835,5.10653727 44.4920589,5.45959537 44.5682266,5.93887632 L45.3455047,10.8460181 C45.4207548,11.325299 45.8355478,11.6783571 46.3219202,11.6783571 L48.573916,11.6783571 C53.2632797,11.6783571 55.9686112,13.9393924 56.6752277,18.4221327 C56.9936639,20.3813308 56.6880753,21.9216154 55.7676385,22.9999975 C54.7554334,24.1853947 52.9613618,24.8128503 50.5799725,24.8128503 M67.1037853,11.6371975 C66.7734191,9.6962926 65.2289575,8.39290452 63.2568552,8.39290452 C62.2685098,8.39290452 61.4765488,8.71029095 60.968152,9.31030679 C60.463426,9.90483469 60.2743832,10.7527229 60.4340601,11.6957356 C60.7405665,13.6201767 62.311641,14.9647244 64.2534597,14.9647244 C65.221616,14.9647244 66.0062356,14.644594 66.5256445,14.0390902 C67.0478066,13.4290131 67.2533677,12.5765516 67.1037853,11.6371975 M71.8537161,18.250177 L68.4454388,18.250177 C68.1526857,18.2505263 67.9033689,18.0381408 67.8581213,17.7498589 L67.7094565,16.8004436 L67.4708587,17.1443551 C66.7330411,18.2117613 65.0876342,18.5693927 63.4449804,18.5693927 C59.6797241,18.5693927 56.4632428,15.7248054 55.8373825,11.7368953 C55.5116048,9.74568414 55.9741173,7.84410955 57.106539,6.51694036 C58.1462747,5.29770085 59.6301692,4.7900655 61.3985457,4.7900655 C64.4342434,4.7900655 66.1172753,6.73279972 66.1172753,6.73279972 L65.9649398,5.78887236 C65.9378027,5.61800362 65.9871588,5.44386458 66.0999848,5.31240431 C66.2128107,5.18094404 66.3777714,5.10536968 66.5513397,5.10562261 L69.620074,5.10562261 C70.1064463,5.10562261 70.5212394,5.45776605 70.5974071,5.93796166 L72.440116,17.5660126 C72.466951,17.7369827 72.4173593,17.9110937 72.3043967,18.0425076 C72.191434,18.1739215 72.0264203,18.2494695 71.8527984,18.2492623" id="Shape" fill="#003087"></path>
                                    <path d="M117.870048,11.6371975 C117.539681,9.6962926 115.99522,8.39290452 114.023118,8.39290452 C113.034772,8.39290452 112.242811,8.71029095 111.734414,9.31030679 C111.229688,9.90483469 111.040646,10.7527229 111.200322,11.6957356 C111.506829,13.6201767 113.076986,14.9647244 115.019722,14.9647244 C115.987878,14.9647244 116.772498,14.644594 117.291907,14.0390902 C117.814069,13.4290131 118.01963,12.5765516 117.870048,11.6371975 M122.619978,18.250177 L119.211701,18.250177 C118.918948,18.2505263 118.669631,18.0381408 118.624384,17.7498589 L118.475719,16.8004436 L118.237121,17.1443551 C117.499303,18.2117613 115.853897,18.5693927 114.211243,18.5693927 C110.446904,18.5693927 107.230423,15.7248054 106.603645,11.7368953 C106.277867,9.74568414 106.741297,7.84410955 107.873719,6.51694036 C108.913455,5.29770085 110.397349,4.7900655 112.165726,4.7900655 C115.202341,4.7900655 116.885373,6.73279972 116.885373,6.73279972 L116.733037,5.78887236 C116.705294,5.61820723 116.754177,5.44401095 116.86673,5.31245698 C116.979283,5.18090301 117.14414,5.10527619 117.317602,5.10562261 L120.385419,5.10562261 C120.871791,5.10562261 121.286584,5.45776605 121.363669,5.93796166 L123.206378,17.5660126 C123.233213,17.7369827 123.183622,17.9110937 123.070659,18.0425076 C122.957696,18.1739215 122.792683,18.2494695 122.619061,18.2492623" id="Shape" fill="#009CDE"></path>
                                    <path d="M90.0064174,18.2492623 L86.5797865,18.2492623 C86.2521734,18.2492623 85.9465847,18.0873678 85.763048,17.8166289 L81.0369769,10.8798604 L79.0336734,17.5458901 C78.9081613,17.9633781 78.522975,18.2495501 78.0857061,18.250177 L74.7187246,18.250177 C74.5271694,18.2500844 74.3474259,18.1578853 74.2360178,18.0025733 C74.1246096,17.8472613 74.0952242,17.6479176 74.1571022,17.4672295 L77.9287822,6.43096248 L74.381017,1.44150147 C74.2532167,1.26096556 74.2369661,1.02450496 74.338874,0.82828634 C74.440782,0.632067722 74.6438739,0.50877487 74.865554,0.508550013 L78.2885142,0.508550013 C78.6115389,0.508550013 78.9152922,0.666785898 79.1006643,0.932036804 L90.4927898,17.3208842 C90.6188649,17.5014526 90.6338548,17.7368806 90.5316928,17.9318855 C90.4295308,18.1268903 90.2271343,18.2491804 90.0064174,18.2492623" id="Shape" fill="#003087"></path>
                                    <path d="M126.63668,24.3116175 L123.714775,5.78887236 C123.687965,5.61806014 123.73744,5.44410436 123.850196,5.312725 C123.962953,5.18134565 124.127713,5.10568281 124.301175,5.10562261 L127.238681,5.10562261 C127.725053,5.10562261 128.139846,5.45868071 128.216014,5.93796166 L131.096623,24.1286858 C131.12376,24.2995546 131.074404,24.4736936 130.961578,24.6051539 C130.848752,24.7366142 130.683791,24.8121885 130.510223,24.8119356 L127.22308,24.8119356 C126.930686,24.8126778 126.681558,24.6005099 126.63668,24.3125322" id="Shape" fill="#009CDE"></path>
                                    <path d="M24.2442857,31.0819182 C22.7080832,32.8270862 19.9311723,33.5752767 16.3788187,33.5752767 L6.06864231,33.5752767 C5.34214358,33.5756622 4.72330866,33.0492531 4.60952523,32.3340854 L0.318436244,5.19525912 C0.278168711,4.94046842 0.351854289,4.68087983 0.520080614,4.48488162 C0.688306939,4.28888341 0.934203365,4.17613133 1.19298881,4.17632978 L7.55804296,4.17632978 L9.15664797,14.2823893 L9.10709305,13.9659175 C9.21870131,14.6796909 9.83500775,15.2062674 10.5597863,15.2071088 L13.5844718,15.2071088 C19.5264738,15.2071088 24.1791302,17.6126601 25.5382197,24.5713805 C25.5785978,24.7771786 25.6134698,24.9774887 25.6437533,25.1732256 C26.0475342,27.7452447 25.6410003,29.4959007 24.2452034,31.0810036" id="Shape" fill="#003087"></path>
                                    <path d="M10.8736342,25.1393833 C10.9732683,25.7642243 11.5135214,26.2243871 12.1482968,26.2250827 L20.2312549,26.2250827 C21.188399,26.2250827 22.0813052,26.1628859 22.897126,26.0330044 C23.3431702,25.9614824 23.7844645,25.8631294 24.2185906,25.7384844 C24.7116082,25.6003346 25.1886762,25.4108723 25.641918,25.1732256 C26.0475342,27.7461594 25.6400826,29.4959007 24.2442857,31.0819182 C22.7071655,32.8261716 19.9311723,33.5743621 16.3788187,33.5743621 L6.06772463,33.5743621 C5.34192094,33.5738479 4.72411742,33.0476543 4.61044291,32.3331708 L0.317518561,5.19708844 C0.27697838,4.94231316 0.35041035,4.68262117 0.518465197,4.48644113 C0.686520045,4.29026109 0.932340646,4.17727128 1.19115344,4.17724444 L7.55712528,4.17724444 L9.15573028,14.2842186 L10.8736342,25.1393833 L10.8736342,25.1393833 Z" id="Shape" fill="#003087"></path>
                                    <path d="M25.6428357,25.1741403 C25.6113357,24.9729018 25.576152,24.7722533 25.537302,24.5722951 C24.1782125,17.6144895 19.5255561,15.2080235 13.5835541,15.2080235 L10.557951,15.2080235 C9.83323349,15.2075028 9.21700903,14.6806635 9.10617536,13.9668322 L7.55712528,4.1781591 L7.1166371,1.40125651 C7.08119125,1.17814505 7.14556929,0.950753825 7.29280177,0.779021023 C7.44003425,0.607288221 7.65534689,0.50844665 7.88198531,0.508550013 L13.2476819,0.508550013 C13.882719,0.508550013 14.422317,0.969537794 14.5223446,1.59424941 L14.5746525,1.86681758 L15.58594,8.25479112 L15.6501778,8.60784922 C15.7495086,9.23323203 16.290493,9.69368639 16.9257582,9.69354862 L17.7287314,9.69354862 C22.9264919,9.69354862 26.9964191,11.7972627 28.1857372,17.8852283 C28.6812864,20.4279784 28.424335,22.5527296 27.1120473,24.0445373 C26.6953582,24.5070461 26.1974599,24.8898551 25.6428357,25.1741403" id="Shape" fill="#009CDE"></path>
                                    <path d="M24.2195082,25.7384844 C24.0121117,25.7997666 23.7982914,25.8546461 23.5780473,25.9031229 C23.3578032,25.9515998 23.1302177,25.9945888 22.897126,26.0311751 C22.0803875,26.1638006 21.188399,26.2259973 20.2303372,26.2259973 L12.1482968,26.2259973 C11.5126538,26.2267711 10.971425,25.7653888 10.8736342,25.1393833 L9.15573028,14.2823893 L9.10617536,13.9668322 C9.21700903,14.6806635 9.83323349,15.2075028 10.557951,15.2080235 L13.5835541,15.2080235 C19.5255561,15.2080235 24.1782125,17.6135748 25.537302,24.5722951 C25.5776801,24.7780932 25.6116344,24.9774887 25.6428357,25.1741403 C25.2839112,25.3613267 24.9100548,25.5185752 24.5250969,25.6442746 C24.4250694,25.6772023 24.3232065,25.7083007 24.2195082,25.7393991" id="Shape" fill="#012169"></path>
                                </g>
                            </g>
                        </g>
                    </g>
                </g>
            </g>
        </g>
    </g>
</svg>