<?xml version="1.0" encoding="UTF-8"?>
<svg width="84px" height="34px" viewBox="0 0 84 34" version="1.1" xmlns="http://www.w3.org/2000/svg" xmlns:xlink="http://www.w3.org/1999/xlink">
    <!-- Generator: Sketch 39.1 (31720) - http://www.bohemiancoding.com/sketch -->
    <title>stripe</title>
    <desc>Created with Sketch.</desc>
    <defs></defs>
    <g id="Page-1" stroke="none" stroke-width="1" fill="none" fill-rule="evenodd">
        <g id="Artboard" transform="translate(-518.000000, -1284.000000)" fill="#359AD5">
            <g id="partner-group" transform="translate(169.000000, 1275.000000)">
                <g id="partners-visible">
                    <g id="stripe" transform="translate(349.000000, 9.000000)">
                        <path d="M76.4737143,12.4898343 C74.7841905,12.4898343 74.9605714,14.5377238 74.8904762,16.7240552 L77.7055238,16.7240552 C77.7055238,14.2597127 77.7055238,12.4898343 76.4737143,12.4898343 L76.4737143,12.4898343 Z M74.8904762,20.2989392 C74.8904762,22.2769503 75.875619,22.6586519 77.5297143,22.6586519 C79.4302857,22.6586519 81.9988571,22.1030055 82.984381,21.9296243 L82.984381,26.7194917 C82.2104762,26.9973149 79.8525714,27.6560884 77.5297143,27.6560884 C73.3417143,27.6560884 68.2382857,26.9967514 68.2382857,18.181547 C68.2382857,10.4071934 72.2504762,8.56781215 76.4735238,8.56781215 C80.8024762,8.56781215 83.9344762,10.7543315 83.9344762,18.1120442 L83.9344762,20.2989392 L74.8904762,20.2989392 L74.8904762,20.2989392 Z M58.3820952,13.4268066 C57.9954286,13.4268066 57.2209524,13.7391934 56.7988571,13.982453 L56.7988571,22.8667845 C57.1152381,22.9714144 57.6784762,23.0407293 57.9249524,23.0407293 C59.0864762,23.0407293 59.7902857,22.0688177 59.7902857,18.0083536 C59.7899048,13.878011 59.4729524,13.4268066 58.3820952,13.4268066 L58.3820952,13.4268066 Z M59.1561905,27.6564641 C58.311619,27.6564641 57.4318095,27.4135801 56.7984762,27.2745746 L56.7984762,33.9036354 L50.1118095,33.9036354 L50.1118095,8.91495028 L55.5312381,8.91495028 L56.5169524,10.0602431 C57.5373333,9.1580221 58.9805714,8.56781215 60.4937143,8.56781215 C63.2384762,8.56781215 66.4761905,9.33121547 66.4761905,18.0077901 C66.4761905,27.5180221 61.6198095,27.6564641 59.1561905,27.6564641 L59.1561905,27.6564641 Z M43.9518095,6.65911602 C42.0868571,6.65911602 40.644,5.16668508 40.644,3.3618674 C40.644,1.55704972 42.0868571,0.0646187845 43.9518095,0.0646187845 C45.8173333,0.0646187845 47.2601905,1.55704972 47.2601905,3.3618674 C47.2601905,5.16668508 45.8173333,6.65911602 43.9518095,6.65911602 L43.9518095,6.65911602 Z M40.6087619,27.3095138 L40.6087619,8.91495028 L47.2954286,8.91495028 L47.2954286,27.3095138 L40.6087619,27.3095138 L40.6087619,27.3095138 Z M36.56,14.0863315 C35.5041905,14.0863315 34.6946667,14.5029724 34.3426667,14.711105 L34.3426667,27.3095138 L27.6561905,27.3095138 L27.6561905,8.91495028 L32.9702857,8.91495028 L33.955619,10.6848287 C34.3426667,9.53953591 35.3984762,8.56762431 36.9470476,8.56762431 C38.0028571,8.56762431 38.7066667,8.77594475 39.0230476,8.94932597 L39.0230476,14.4327182 C38.3544762,14.2597127 37.4748571,14.0863315 36.56,14.0863315 L36.56,14.0863315 Z M23.8539048,22.6588398 C24.2761905,22.6588398 25.7544762,22.450895 26.2466667,22.3810166 L26.2466667,27.066442 C25.2264762,27.3091381 22.9739048,27.6564641 21.496,27.6564641 C19.5954286,27.6564641 16.0411429,27.4485193 16.0411429,22.3466409 L16.0411429,13.1146077 L13.5777143,13.1146077 L13.5777143,8.91495028 L16.0415238,8.91495028 L16.8860952,4.75023204 L22.728,3.36205525 L22.728,8.91513812 L26.2472381,8.91513812 L25.367619,13.1147956 L22.7281905,13.1147956 L22.7281905,21.1667845 C22.7278095,22.415768 23.1148571,22.6588398 23.8539048,22.6588398 L23.8539048,22.6588398 Z M6.57238095,14.2251492 C6.57238095,14.953989 7.06533333,15.1968729 8.22647619,15.7173923 L8.93047619,16.0299669 C10.584381,16.7588066 12.871619,17.9388508 12.871619,21.4096685 C12.871619,26.9625635 8.68361905,27.6566519 5.69238095,27.6566519 C3.7567619,27.6566519 1.71561905,27.2054475 0.343047619,26.7893702 L0.343047619,22.0342541 C1.53942857,22.3472044 3.61619048,22.8324088 4.53085714,22.8324088 C5.55142857,22.8324088 6.32571429,22.6939669 6.32571429,21.7913702 C6.32571429,21.0972818 5.83295238,20.7850829 4.74209524,20.2993149 L3.89733333,19.9174254 C2.31390476,19.1883978 0.0613333333,17.9394144 0.0613333333,14.572663 C0.0613333333,9.64416575 3.96761905,8.56856354 7.2407619,8.56856354 C9.70438095,8.56856354 11.3232381,9.12364641 12.167619,9.43622099 L12.167619,14.0521436 C11.1820952,13.7399448 9.17657143,13.3233039 7.98,13.3233039 C7.17066667,13.3229282 6.57238095,13.5308729 6.57238095,14.2251492 L6.57238095,14.2251492 Z" id="Shape"></path>
                    </g>
                </g>
            </g>
        </g>
    </g>
</svg>