<?xml version="1.0" encoding="UTF-8"?>
<svg width="69px" height="23px" viewBox="0 0 69 23" version="1.1" xmlns="http://www.w3.org/2000/svg" xmlns:xlink="http://www.w3.org/1999/xlink">
    <!-- Generator: Sketch 39.1 (31720) - http://www.bohemiancoding.com/sketch -->
    <title>visa</title>
    <desc>Created with Sketch.</desc>
    <defs></defs>
    <g id="Page-1" stroke="none" stroke-width="1" fill="none" fill-rule="evenodd">
        <g id="Artboard" transform="translate(-1043.000000, -1292.000000)">
            <g id="partner-group" transform="translate(169.000000, 1275.000000)">
                <g id="partners-visible">
                    <g id="visa" transform="translate(874.000000, 17.000000)">
                        <g id="Group">
                            <g id="Shape" fill="#2566AF">
                                <path d="M29.862625,22.178325 L24.26615,22.178325 L27.763875,0.682525 L33.360925,0.682525 L29.862625,22.178325 Z M19.55805,0.682525 L14.222625,15.4675 L13.591275,12.283725 L13.59185,12.284875 L11.708725,2.617975 C11.708725,2.617975 11.481025,0.682525 9.05395,0.682525 L0.23345,0.682525 L0.12995,1.0465 C0.12995,1.0465 2.827275,1.6077 5.984025,3.503475 L10.846225,22.1789 L16.6773,22.1789 L25.581175,0.682525 L19.55805,0.682525 L19.55805,0.682525 Z M63.577175,22.178325 L68.71595,22.178325 L64.23555,0.68195 L59.73675,0.68195 C57.659275,0.68195 57.153275,2.2839 57.153275,2.2839 L48.806575,22.178325 L54.640525,22.178325 L55.8072,18.98535 L62.921675,18.98535 L63.577175,22.178325 L63.577175,22.178325 Z M57.418925,14.574525 L60.359475,6.530275 L62.01375,14.574525 L57.418925,14.574525 L57.418925,14.574525 Z M49.24415,5.851775 L50.042825,1.235675 C50.042825,1.235675 47.578375,0.298425 45.009275,0.298425 C42.232025,0.298425 35.636775,1.51225 35.636775,7.414625 C35.636775,12.967975 43.377425,13.036975 43.377425,15.95395 C43.377425,18.870925 36.4343,18.34825 34.142925,16.508825 L33.3109,21.335375 C33.3109,21.335375 35.80985,22.5492 39.62785,22.5492 C43.447,22.5492 49.2085,20.571775 49.2085,15.189775 C49.2085,9.600775 41.398275,9.0804 41.398275,6.65045 C41.39885,4.219925 46.849275,4.53215 49.24415,5.851775 L49.24415,5.851775 Z"></path>
                            </g>
                            <path d="M13.59185,12.2843 L11.708725,2.6174 C11.708725,2.6174 11.481025,0.68195 9.05395,0.68195 L0.23345,0.68195 L0.12995,1.045925 C0.12995,1.045925 4.369425,1.924525 8.435825,5.2164 C12.323975,8.3628 13.59185,12.2843 13.59185,12.2843 L13.59185,12.2843 Z" id="Shape" fill="#E6A540"></path>
                        </g>
                    </g>
                </g>
            </g>
        </g>
    </g>
</svg>